<svg viewBox="0 0 330 200" xmlns="http://www.w3.org/2000/svg"><g><g><g><g><g><line x1="47.8125" y1="174" x2="42.8125" y2="174" style="visibility: inherit;" fill="rgb(0, 0, 0)" stroke="rgb(204, 204, 204)" stroke-width="1px"></line><line x1="47.8125" y1="152.25" x2="42.8125" y2="152.25" style="visibility: inherit;" fill="rgb(0, 0, 0)" stroke="rgb(204, 204, 204)" stroke-width="1px"></line><line x1="47.8125" y1="130.5" x2="42.8125" y2="130.5" style="visibility: inherit;" fill="rgb(0, 0, 0)" stroke="rgb(204, 204, 204)" stroke-width="1px"></line><line x1="47.8125" y1="108.75" x2="42.8125" y2="108.75" style="visibility: inherit;" fill="rgb(0, 0, 0)" stroke="rgb(204, 204, 204)" stroke-width="1px"></line><line x1="47.8125" y1="87" x2="42.8125" y2="87" style="visibility: inherit;" fill="rgb(0, 0, 0)" stroke="rgb(204, 204, 204)" stroke-width="1px"></line><line x1="47.8125" y1="65.25" x2="42.8125" y2="65.25" style="visibility: inherit;" fill="rgb(0, 0, 0)" stroke="rgb(204, 204, 204)" stroke-width="1px"></line><line x1="47.8125" y1="43.5" x2="42.8125" y2="43.5" style="visibility: inherit;" fill="rgb(0, 0, 0)" stroke="rgb(204, 204, 204)" stroke-width="1px"></line><line x1="47.8125" y1="21.749999999999982" x2="42.8125" y2="21.749999999999982" style="visibility: inherit;" fill="rgb(0, 0, 0)" stroke="rgb(204, 204, 204)" stroke-width="1px"></line><line x1="47.8125" y1="0" x2="42.8125" y2="0" style="visibility: inherit;" fill="rgb(0, 0, 0)" stroke="rgb(204, 204, 204)" stroke-width="1px"></line></g><g transform="translate(37.8125, 0)"><text x="0" y="174" dx="0em" dy="0.3em" style="text-anchor: end; visibility: hidden; font-family: Roboto, sans-serif; font-size: 12px; font-weight: 200;" fill="rgb(33, 33, 33)" stroke="none" stroke-width="1px">0</text><text x="0" y="152.25" dx="0em" dy="0.3em" style="text-anchor: end; visibility: inherit; font-family: Roboto, sans-serif; font-size: 12px; font-weight: 200;" fill="rgb(33, 33, 33)" stroke="none" stroke-width="1px">0.02</text><text x="0" y="130.5" dx="0em" dy="0.3em" style="text-anchor: end; visibility: hidden; font-family: Roboto, sans-serif; font-size: 12px; font-weight: 200;" fill="rgb(33, 33, 33)" stroke="none" stroke-width="1px">0.04</text><text x="0" y="108.75" dx="0em" dy="0.3em" style="text-anchor: end; visibility: inherit; font-family: Roboto, sans-serif; font-size: 12px; font-weight: 200;" fill="rgb(33, 33, 33)" stroke="none" stroke-width="1px">0.06</text><text x="0" y="87" dx="0em" dy="0.3em" style="text-anchor: end; visibility: hidden; font-family: Roboto, sans-serif; font-size: 12px; font-weight: 200;" fill="rgb(33, 33, 33)" stroke="none" stroke-width="1px">0.08</text><text x="0" y="65.25" dx="0em" dy="0.3em" style="text-anchor: end; visibility: inherit; font-family: Roboto, sans-serif; font-size: 12px; font-weight: 200;" fill="rgb(33, 33, 33)" stroke="none" stroke-width="1px">0.1</text><text x="0" y="43.5" dx="0em" dy="0.3em" style="text-anchor: end; visibility: hidden; font-family: Roboto, sans-serif; font-size: 12px; font-weight: 200;" fill="rgb(33, 33, 33)" stroke="none" stroke-width="1px">0.12</text><text x="0" y="21.749999999999982" dx="0em" dy="0.3em" style="text-anchor: end; visibility: inherit; font-family: Roboto, sans-serif; font-size: 12px; font-weight: 200;" fill="rgb(33, 33, 33)" stroke="none" stroke-width="1px">0.14</text><text x="0" y="0" dx="0em" dy="0.3em" style="text-anchor: end; visibility: hidden; font-family: Roboto, sans-serif; font-size: 12px; font-weight: 200;" fill="rgb(33, 33, 33)" stroke="none" stroke-width="1px">0.16</text></g><line x1="47.8125" y1="0" x2="47.8125" y2="174" fill="rgb(0, 0, 0)" stroke="rgb(204, 204, 204)" stroke-width="1px"></line></g></g><g transform="translate(47, 0)" clip-path="url(#clip_0)"><clipPath id="clip_0"><rect width="282" height="174"></rect></clipPath><g><g><g><line x1="0" y1="0" x2="0" y2="174" fill="rgb(0, 0, 0)" stroke="rgb(66, 66, 66)" stroke-width="1px" opacity="0.25"></line><line x1="35.2734375" y1="0" x2="35.2734375" y2="174" fill="rgb(0, 0, 0)" stroke="rgb(66, 66, 66)" stroke-width="1px" opacity="0.25"></line><line x1="70.546875" y1="0" x2="70.546875" y2="174" fill="rgb(0, 0, 0)" stroke="rgb(66, 66, 66)" stroke-width="1px" opacity="0.25"></line><line x1="105.8203125" y1="0" x2="105.8203125" y2="174" fill="rgb(0, 0, 0)" stroke="rgb(66, 66, 66)" stroke-width="1px" opacity="0.25"></line><line x1="141.09375" y1="0" x2="141.09375" y2="174" fill="rgb(0, 0, 0)" stroke="rgb(66, 66, 66)" stroke-width="1px" opacity="0.25"></line><line x1="176.3671875" y1="0" x2="176.3671875" y2="174" fill="rgb(0, 0, 0)" stroke="rgb(66, 66, 66)" stroke-width="1px" opacity="0.25"></line><line x1="211.640625" y1="0" x2="211.640625" y2="174" fill="rgb(0, 0, 0)" stroke="rgb(66, 66, 66)" stroke-width="1px" opacity="0.25"></line><line x1="246.9140625" y1="0" x2="246.9140625" y2="174" fill="rgb(0, 0, 0)" stroke="rgb(66, 66, 66)" stroke-width="1px" opacity="0.25"></line><line x1="282.1875" y1="0" x2="282.1875" y2="174" fill="rgb(0, 0, 0)" stroke="rgb(66, 66, 66)" stroke-width="1px" opacity="0.25"></line></g><g><line x1="0" y1="174" x2="282.1875" y2="174" fill="rgb(0, 0, 0)" stroke="rgb(66, 66, 66)" stroke-width="1px" opacity="0.25"></line><line x1="0" y1="152.25" x2="282.1875" y2="152.25" fill="rgb(0, 0, 0)" stroke="rgb(66, 66, 66)" stroke-width="1px" opacity="0.25"></line><line x1="0" y1="130.5" x2="282.1875" y2="130.5" fill="rgb(0, 0, 0)" stroke="rgb(66, 66, 66)" stroke-width="1px" opacity="0.25"></line><line x1="0" y1="108.75" x2="282.1875" y2="108.75" fill="rgb(0, 0, 0)" stroke="rgb(66, 66, 66)" stroke-width="1px" opacity="0.25"></line><line x1="0" y1="87" x2="282.1875" y2="87" fill="rgb(0, 0, 0)" stroke="rgb(66, 66, 66)" stroke-width="1px" opacity="0.25"></line><line x1="0" y1="65.25" x2="282.1875" y2="65.25" fill="rgb(0, 0, 0)" stroke="rgb(66, 66, 66)" stroke-width="1px" opacity="0.25"></line><line x1="0" y1="43.5" x2="282.1875" y2="43.5" fill="rgb(0, 0, 0)" stroke="rgb(66, 66, 66)" stroke-width="1px" opacity="0.25"></line><line x1="0" y1="21.749999999999982" x2="282.1875" y2="21.749999999999982" fill="rgb(0, 0, 0)" stroke="rgb(66, 66, 66)" stroke-width="1px" opacity="0.25"></line><line x1="0" y1="0" x2="282.1875" y2="0" fill="rgb(0, 0, 0)" stroke="rgb(66, 66, 66)" stroke-width="1px" opacity="0.25"></line></g></g></g><g><g><line x1="0" y1="174" x2="282.1875" y2="174" fill="rgb(0, 0, 0)" stroke="rgb(153, 153, 153)" stroke-width="1.5px"></line></g></g><g><g><line x1="35.2734375" y1="0" x2="35.2734375" y2="174" fill="rgb(0, 0, 0)" stroke="rgb(153, 153, 153)" stroke-width="1.5px"></line></g></g><g><g><g><g><g><path stroke="rgb(255, 112, 67)" stroke-width="2px" d="M35.400421875,13.5653011277318L35.605007812500006,56.20938480226323L35.710828125,80.00755760750297L35.9013046875,82.42279596014552L36.0000703125,86.64864297908144L36.0282890625,97.89460247334232L36.176437500000006,112.66902265466709L36.43040625,118.52889651899117L36.48684375,124.51905513878633L36.994781249999996,132.46973923290878L37.1006015625,137.9516449961605L37.262859375,140.08204391201596L37.996546875,137.2876712289915L38.109421875,140.22929749484288L38.2011328125,142.57853302292196L38.3563359375,141.65847930095396L38.553867187499996,143.28457664805967L38.6244140625,141.2386385269769L38.6667421875,142.2617667018516L38.871328125000005,140.60181791239393L39.0335859375,144.66917863984017L39.068859374999995,149.98406351455944L39.082968750000006,133.2591631694721L39.19584375,139.06701400443418L39.47803125,144.09973241285076L39.7672734375,143.47990478058432L39.8096015625,145.92892367546926L39.915421875,141.0089424953447L40.0353515625,144.7341753666857L40.66321875,145.12306859226024L40.7408203125,148.43553799858265L40.945406250000005,148.4002122726225L41.382796875000004,147.54239655190398L41.523890625,149.4683247471534L42.4339453125,148.75524105855945L42.511546875,146.5568765106792L42.5891484375,149.65338026505708L42.829007812499995,150.91262233588975L43.1111953125,151.5184745795896L43.2099609375,152.0660448913068L43.25934375,152.71708222757584L43.400437499999995,154.8281803053692L43.48509375,148.96416843421272L43.569750000000006,150.1596658450917L43.62618749999999,149.05434031758477L43.866046875,150.80201174984606L44.10590625,150.93977297273932L44.12001562499999,150.73147680417821L44.211726562500004,151.17131915238272L44.2399453125,153.46565594740142L44.980687499999995,154.17917725946313L45.2699296875,155.24951414991216L45.5521171875,153.80636610971914L45.559171875000004,155.90347879946168L45.813140624999996,153.86359768625928L45.926015625000005,153.83534778515596L45.9471796875,152.86559089674094L46.19409375,151.67333282361037L46.2152578125,154.93254419724434L46.3140234375,153.50970261952446L46.7514140625,153.3080112243364L46.8078515625,154.74011560333793L47.054765625,154.54932662168457L47.280515625,153.45415259640998L47.3440078125,155.09416181682252L48.303445312499996,143.05173904725135L48.6702890625,145.9423772496922L48.740835937499995,147.13698496910592L48.95953125,148.76397220562492L49.100624999999994,152.90978807707486L49.1076796875,154.04526664391076L49.876640625,154.2980243743206L49.940132812499996,154.27839850929348L50.0106796875,154.81354622347337L50.088281249999994,154.5680695227723L50.8572421875,155.8222055680344L51.6332578125,155.1433636398935L51.9154453125,156.83216676033726L52.458656250000004,156.44217028270478L52.4939296875,153.596646266358L52.585640624999996,153.88400526139253L52.642078125,154.4549003026224L52.6632421875,154.75320007317285L52.9313203125,156.0781101232798L53.030085937500004,157.33792368373463L53.4533671875,156.63344685614817L53.460421875,156.4540133964611L53.6085703125,155.72484651604847L53.806101562500004,156.0548190349314L53.8625390625,157.83176551678616L53.9189765625,156.8588712299993L54.20821875,157.2282677315626L54.271710937499996,156.688199134049L54.377531250000004,157.00655709289146L54.4410234375,156.63161989872236L54.6949921875,154.0139785297935L54.702046875,155.31551183876246L54.800812500000006,155.15918979118376L54.9207421875,155.76001147222584L55.11121875,156.5512142750148L55.33696875,157.37071299873435L55.4568984375,157.13511505356516L56.2470234375,155.79951004277817L57.023039062500004,156.17975337000877L57.03009375,155.392536207689L57.1711875,155.91033867427896L57.1782421875,156.0131260450434L57.284062500000005,156.69546504218883L57.4604296875,155.29146106779282L57.841382812499994,156.0935004386437L57.9683671875,154.72460990373088L58.137679687500004,155.34875057063277L58.3069921875,155.87161779096292L58.32815625,155.57125321442226L58.94896875,155.8567487108072L59.28759375,152.67720344147745L59.689710937499996,153.40344635237253L59.8449140625,157.006730043301L59.9013515625,157.22131024448365L59.96484375,155.2736091991412L60.148265625,154.44292061657592L60.430453125,154.82933357585003L60.4516171875,155.33851394044478L60.6703125,157.16839489798767L60.783187500000004,157.43965999051048L61.051265625,157.74199160588003L61.072429687500005,157.54291267448497L61.1006484375,156.98702623920937L61.15003125,157.12289323513835L61.1711953125,157.0307042031296L61.305234375,157.70090824779467L61.4604375,157.8152243806666L61.8061171875,156.7500157554445L61.954265625,157.14453663953378L62.419875000000005,157.7092110805034L62.433984375,157.21420747293942L62.800828125,159.70694363566585L62.8925390625,160.2239605591586L63.0195234375,157.86401646768397L63.315820312499994,157.56437566781995L63.57684375,159.62929092495864L63.6544453125,160.58083647988275L64.08478125,159.19965530486127L64.2611484375,160.94982286982966L64.3458046875,159.67383723597663L64.36696875,159.91348169157467L64.522171875,159.8963485365931L64.76908593750001,160.37397484069012L64.8466875,160.92602924531664L65.0936015625,161.67747731596808L65.3052421875,161.47437463624377L65.735578125,161.84801127399115L65.806125,163.1865994278944L66.695015625,162.4830637067918L67.2664453125,159.97123376148127L67.2946640625,160.45547906900754L67.47103125,161.13402611595578L67.80965625,159.95709732782655L68.0706796875,159.75732563837954L68.359921875,160.48963482248536L68.37403125,161.1075578460783L68.416359375,160.1068587400952L68.4798515625,161.94207376660788L68.642109375,162.8113560439088L68.9736796875,161.63706393381582L69.3616875,159.21481645943598L69.38285156250001,157.66566312889384L69.38990625,159.21743529058324L69.44634375,161.34715867164329L69.714421875,161.54610913245438L69.911953125,161.09158212169143L70.0459921875,160.83511913794507L70.1870859375,159.80230778666277L70.40578125,161.6522604699772L71.1041953125,162.0246973837296L71.1676875,161.58504068526653L71.18179687499999,158.45038888073282L71.47809375000001,160.06711720264L71.5063125,159.61951739429557L71.6121328125,160.17774090838657L71.6403515625,161.64892554534808L71.86610156249999,162.93260384632399L71.9578125,161.65153047648522L72.1341796875,162.1636253335771L72.225890625,160.63033512483966L72.3317109375,156.56087908559104L72.395203125,158.31454310216344L72.6280078125,159.8177468694245L72.7973203125,158.75398284670683L72.818484375,159.97194261369538L73.100671875,160.12539747256L73.15710937499999,160.60940442229335L73.3899140625,161.2736849756615L73.6862109375,161.8364898970173L73.74970312500001,162.21589954241043L74.1377109375,162.45512664716796L75.2523515625,162.29026369095658L75.69679687499999,162.78141297137478L75.894328125,161.97217371939564L76.0565859375,160.95584793800975L76.416375,160.33791107074836L76.656234375,158.132365545326L76.74794531250001,159.97986781768859L77.29115625,158.62383993780827L77.4675234375,159.4942951344175L77.5803984375,153.5656872908904L77.6650546875,151.2922674936434L77.9754609375,153.59796311131896L78.3846328125,157.34270567046423L78.575109375,158.29888837711854L78.603328125,157.66758555204774L79.18886718750001,155.58917512018147L79.3158515625,153.2874831308792L79.5698203125,147.70804486273943L79.94371875,144.9764219453884L79.95782812499999,141.9519098777147L80.127140625,147.72634314357174L80.1341953125,150.2693697384532L80.16946875000001,147.36776229271507L80.2047421875,148.5273071380211L81.3264375,151.0697913342269L81.453421875,141.0274598649771L81.4886953125,145.75789029160921L81.58040625000001,140.67186649969094L81.6156796875,135.23361521113438L81.72855468750001,137.803786814353L81.763828125,144.24502246574528L81.82732031249999,149.44549161062966L81.9401953125,150.1462873078366L82.3493671875,150.8410135012555L82.6809375,149.71380804936217L82.751484375,144.14838380193788L82.892578125,143.4408800494735L83.259421875,133.4320704440513L83.541609375,140.9716004036509L83.59804687500001,146.16142218948264L84.06365625,132.4943066262654L84.0848203125,142.0833048040987L84.162421875,134.87226647006398L84.5927578125,140.8951393741633L84.62803125,131.45551059116517L84.642140625,141.3734057178771L85.037203125,137.97525214288686L85.4816484375,122.6921618469599L85.5028125,132.78540894541402L85.54514062499999,133.40096331330096L85.81321874999999,138.5702134326366L86.11657031249999,134.87041835145757L86.4410859375,124.65621956903699L86.589234375,134.30928664673246L86.82909375,137.08799436215386L87.040734375,135.84427932217017L87.1465546875,134.55457792245923L87.2453203125,126.93641922064768L87.73209375,124.86211040430157L87.929625,131.8652729921066L87.95784375,140.74005856856843L87.97195312500001,136.68738069829428L88.056609375,119.45760584591082L88.225921875,116.1261029964283L88.310578125,124.11263294298023L88.40934375,114.78179637061696L88.4869453125,113.89464261810268L88.83967968750001,117.42906314838103L88.91728125,127.09816518587274L89.157140625,107.206336351707L89.19946875,103.64993396548891L89.31234375,112.55627930401842L89.7850078125,123.74118985229184L89.80617187499999,121.72957089539437L89.98959375000001,116.84728641358656L90.257671875,115.721877195225L90.2647265625,112.72285875695101L90.4481484375,115.78606157685607L90.568078125,102.62594737222963L90.6880078125,96.07104135967L90.97019531250001,112.55718199561062L91.01252343750001,103.62367802351727L91.21005468749999,112.79827781090148L91.612171875,102.2195316914857L92.035453125,100.8410585620487L92.26120312500001,99.76696491530444L92.57160937500001,101.85882885033433L92.7268125,88.49743727460232L93.23475,104.77735005462006L93.3264609375,75.90325363662143L93.66508593750001,85.15617381296337L93.7638515625,97.42973767898549L93.79912499999999,94.16862344254297L94.2717890625,85.13031893378044L94.37055468749999,106.47479905578818L94.51164843749999,101.02956406708554L95.1747890625,93.35826358757018L95.57690625,91.5701222497916L95.61923437499999,87.79205039463614L95.68272656250001,100.50106823859915L96.07073437499999,96.32112550090731L96.3599765625,91.56582275540221L96.3881953125,105.47124955362433L96.60689062499999,99.20246827934L96.81853125,103.47341829141267L97.0160625,108.19689920678907L97.185375,95.6734371685098L97.199484375,87.46596041191283L97.5169453125,104.04486355628768L97.5874921875,96.35810335544464L97.81324218750001,100.19453389833998L97.848515625,95.39758542561907L97.89789843749999,92.81042272081599L98.1800859375,84.18122099477426L98.20830468749999,72.70552774601207L98.6598046875,94.26857893963471L98.80795312500001,102.25753324881086L98.99842968749999,104.43662566262417L99.174796875,113.63308484594782L99.61924218749999,101.32069820905187L99.8379375,70.26587744500908L100.26121875,83.52215554384395L100.54340625,81.71669327955249L100.81853906250001,94.46772609496594L100.90319531249999,77.4235786369114L100.9666875,71.55442688439302L101.0725078125,85.65495384230623L101.19949218750001,76.34993163343911L101.2982578125,73.4280017977753L101.38996875000001,78.80597969536775L101.4252421875,93.32516640287514L101.49578906250001,83.14007944382354L101.9825625,95.83462376157716L102.561046875,76.72955001002714L102.6245390625,93.6958655713866L102.758578125,95.75483846508682L103.4993203125,94.68971645142567L103.506375,85.78647563639841L103.7885625,85.64665139188504L104.0778046875,103.10551613700471L104.08485937500001,105.90817303140211L104.21184375,88.78249507653265L104.50108593750001,76.5553630441877L104.5786875,87.03675791772919L104.6703984375,93.3540994593663L104.76210937500001,98.71829147378581L104.8820390625,82.81556732946622L105.07251562500001,81.9539016320943L105.2347734375,71.7461101001286L105.45346875,80.37403157417677L105.46052343749999,80.60741613545835L105.467578125,86.01128552847398L105.538125,85.7527896344262L105.6298359375,82.91887060133205L105.6721640625,83.5090394024705L105.7709296875,59.92699176398844L106.2647578125,68.96509142266471L106.45523437499999,69.92896693227745L106.6739296875,89.63501197563443L106.793859375,77.56417585740586L107.1677578125,61.13603445488275L107.28768749999999,61.546953617620844L107.3370703125,76.32565175538564L107.7180234375,86.13368506607596L107.795625,77.10149908141602L108.23301562500001,73.75860708252377L108.2541796875,72.62440664050452L108.261234375,68.10042033182067L108.60691406250001,67.87981796614218L108.9596484375,65.91648456067972L109.00197656249999,59.42535021222312L109.00903124999999,59.809528689483884L109.051359375,68.77052531296022L109.3547109375,72.60000478717092L109.474640625,72.73848471040965L109.7779921875,79.68908207413816L110.02490625,87.84273635028161L110.28592968749999,70.14601290481303L110.3564765625,67.40115189556488L110.3705859375,46.93636187913543L110.8079765625,59.22888949514942L110.87852343750001,67.0032341167421L110.92790625,84.15935508817977L111.2594765625,80.30831047690242L111.76035937500001,88.38082527247863L113.0372578125,79.08580727057335L113.07253125,75.31342558668064L113.12896875,73.0164359948397L113.25595312499999,79.25829299785853L113.538140625,83.53212815224029L113.70745312499999,81.52047393589555L113.74978125,84.51455643099155L113.7568359375,71.67092417968276L113.9966953125,80.69746414597608L114.074296875,69.44521337464916L114.37059375,59.578656625541846L114.412921875,65.60712252962159L114.469359375,56.05317603592616L115.203046875,46.69391885128345L115.2101015625,45.96824335740044L115.654546875,68.97170375249407L115.72509375,80.88107662774101L115.76036718750001,69.1691019736348L116.0002265625,83.6229386003386L116.1272109375,57.15795021781749L116.14132031250001,64.52829553204431L116.58576562500001,70.93606080572401L116.952609375,64.98814417100307L117.1854140625,69.47359020517085L117.7850625,79.46439935866483L118.06725,94.43414786519699L118.20834375,99.62052045054492L118.2718359375,92.08530704699314L118.41998437500001,94.39712312234852L118.65278906249999,77.72614055075294L118.8503203125,78.72248953847912L118.99141406250001,46.33325496178168L119.05490625,44.352448179491134L119.097234375,63.785066525142085L119.6122265625,61.50597355812827L119.73215625,70.21177088052058L120.12016406250001,64.15652147430195L120.46584375,73.86746740340003L121.1642578125,83.07771293520217L121.1924765625,81.7379972737985L121.5875390625,97.15370846923929L121.84150781250001,87.34933137379134L122.060203125,96.36156855810907L122.07431249999999,72.18932410949009L122.15896875,86.25907733663045L122.427046875,67.29269431158376L122.70923437500001,51.73159199729248L122.737453125,68.50049644723346L122.7515625,80.5084468335796L122.8997109375,85.08981347148946L122.90676562499999,94.11714412534434L123.0125859375,82.37610115864396L123.09724218749999,95.19083199804138L123.28771875,96.9823681721396L123.301828125,96.3842487042729L123.3159375,63.22080473933124L123.837984375,56.18431995411816L124.1695546875,65.11102089941562L124.50112499999999,63.9601584116224L124.92440624999999,62.662870142734256L125.446453125,50.735989623592026L125.5099453125,57.89091323961363L126.28596093750001,60.81038562148537L126.3141796875,56.66218688303069L126.5893125,68.02284941800735L126.78684374999999,79.88040603237333L126.81506250000001,68.90688202850211L126.96321093750001,70.62198019368762L127.05492187499999,69.1842212965686L127.1536875,50.36115487161869L127.323,55.128890764675106L127.63340625,68.03222598997449L128.31065625,84.97924319054304L128.748046875,61.26588149157534L128.8256484375,74.08431604079826L129.129,76.56957150591863L129.4464609375,69.54107542838726L129.72159375,79.50210971239848L129.933234375,81.20309599401737L130.19425781249998,81.45002480096927L130.666921875,86.3157141089279L130.864453125,62.33827756225102L130.920890625,77.69252235370298L131.3794453125,72.7889311950053L131.51348437500002,69.30316962245972L131.52759375,64.23870862092896L131.5487578125,63.245182419218565L131.64046875,51.23532521390791L132.176625,62.75383647479937L132.64223437500002,62.8084791582723L132.8468203125,57.49792107831833L132.9738046875,74.58760937983631L133.26304687500001,92.17274354433918L133.44646875,100.66962638518754L133.8344765625,77.4193678648564L133.89796875,92.8196006723519L134.081390625,80.76406701256488L134.363578125,85.6613397291282L135.153703125,83.30874723440284L135.2877421875,51.53854574707672L135.36534375,66.22931448785975L135.492328125,69.72816206019232L135.859171875,66.7169378504223L135.90855468750001,78.05179781645933L136.5011484375,89.98260667804121L136.536421875,81.41802437980914L136.5858046875,71.54555416929688L136.8538828125,65.01013834969977L136.8962109375,44.92441451964842L136.9949765625,49.982440158236436L137.05846875,66.41792281389739L137.5381875,80.34520244551007L137.8133203125,73.01472243340197L138.1096171875,74.3646603609406L138.4341328125,58.28925582082768L138.58933593749998,57.79730114079536L139.2948046875,72.44236256919515L139.400625,70.04759056712517L139.8168515625,77.01985529419977L140.0426015625,77.84782362644194L140.1343125,82.05001692422819L140.16253125,81.15125522880906L140.5364296875,80.86973569911214L140.56464843749998,67.2790934331506L140.67046875,78.90059591306982L141.2277890625,71.71273400320851L141.5523046875,72.59690936466602L141.559359375,90.06044730282157L141.58757812500002,91.7124547480722L141.869765625,83.37234290058493L141.96853124999998,58.5865314609711L142.06729687499998,62.16837328117518L142.1731171875,66.36681938881534L142.335375,52.939016867964625L142.3988671875,80.53975963028618L142.49763281249997,67.0166345279357L143.33714062500002,64.03307854032165L143.450015625,81.81308908325819L143.54878125000002,75.92391041107409L143.647546875,69.67566816173454L143.71103906250002,87.46353160835778L144.0496640625,87.8365639299004L144.1625390625,74.9575350165277L144.20486718749999,66.74352002620157L144.3106875,67.28582288163578L144.35301562499998,64.04116573236988L144.550546875,68.17386997224452L145.39710937499999,71.18678652335146L145.594640625,66.02794959598148L145.80628125,75.23948607118942L146.1166875,72.63969450904142L146.187234375,78.70646252908237L146.37771093749998,78.73328839646534L146.4553125,80.98361116443132L146.68811718749998,89.6828494313005L146.7445546875,79.91386721686384L146.87859375,79.81432575676358L146.9561953125,80.14970177974413L147.2524921875,72.54234427551098L147.59111718749998,74.75440914386311L147.598171875,74.39734764965652L148.3741875,73.44454460783172L148.68459375,87.89389197196583L148.97383593749998,87.27990135649452L149.4535546875,79.4733412927366L149.460609375,53.016602856873064L149.81334375,57.57382696745312L149.8345078125,70.30334526674459L149.8486171875,50.47316739187545L149.89094531249998,68.62858895347061L150.3565546875,74.333372748706L150.589359375,70.5974614750226L150.91387500000002,59.1996060523915L151.04791406249998,60.99011072895095L151.069078125,71.91190164018373L151.16078906250002,87.65684026392518L152.4024140625,101.06113076306713L152.4165234375,87.65577752052147L152.4870703125,82.22710826789377L153.30541406249998,82.39266469952487L153.3336328125,60.81227127240315L154.032046875,55.17402898237833L154.257796875,66.98502676615553L154.35656250000002,61.136223527368536L154.3777265625,64.39968407903709L154.5470390625,70.35548521134017L154.8292265625,68.2277604210541L154.8574453125,56.62523629475626L155.217234375,78.47423163478967L155.316,64.44524947360394L155.584078125,59.02800439033053L155.6052421875,63.97548486580338L155.73928124999998,66.7213486852639L156.0496875,81.62858304812868L156.09201562500002,74.46486221810792L156.0990703125,70.96050357407698L156.2119453125,69.94860566607936L156.2966015625,78.85498267681493L156.8186484375,59.457267587012616L156.8327578125,63.20480555273685L156.966796875,78.77857099311109L157.0585078125,84.92178925923442L157.1290546875,83.63110245050152L157.1854921875,90.10680985022282L157.982671875,77.1306332651895L158.2436953125,76.6278230580164L158.83628906250001,64.47253954604106L159.1749140625,60.901401598422744L159.55586718749998,69.97280159245076L159.6616875,93.24206314772454L159.66874218750002,82.30624489957145L159.9368203125,69.25545009359152L160.05675000000002,76.89093695363064L160.1202421875,70.46450742203389L160.3601015625,58.40971375476358L160.621125,42.117814069813726L160.945640625,46.145851362244024L161.3618671875,32.56807978957638L161.4183046875,36.83159808522312L161.4465234375,57.85999791297824L161.7992578125,63.506377011379655L161.9191875,66.70505956103865L162.00384375000002,64.19100864255705L162.2930859375,70.82441405668425L162.31425000000002,62.184401704159775L162.5047265625,71.34053421812499L162.7093125,56.45561932800558L162.878625,59.42783891575543L163.02677343750003,70.90269200752383L163.1114296875,63.93404861539725L163.1678671875,64.99131770432068L163.1960859375,53.54539632797286L163.2243046875,74.06157972514656L163.7181328125,65.09508674204365L164.20490625,69.39612069493542L164.59996875000002,68.8340510786534L164.6916796875,77.38088995730642L165.1149609375,63.52103205928662L165.1996171875,61.633244013246646L165.28427343750002,49.77955510643527L165.39009374999998,59.135718428655885L165.55940625,51.4262771717098L165.6511171875,54.54495562382858L165.714609375,65.04104416381311L165.94035937499999,62.17149237877721L166.6035,60.081363028804034L166.6387734375,76.90441148967717L166.730484375,62.86177176082835L166.8080859375,62.11312799957218L167.605265625,78.18254098479046L167.6123203125,66.77160844912584L167.65464843750001,73.10746384686503L167.67581249999998,42.45619294957085L167.76046875,62.14095535228113L167.86628906250002,58.10300562292016L168.592921875,69.34150559162902L168.63525,63.81233223352317L169.2490078125,61.27765349491525L169.56646874999998,69.1378957506662L169.5876328125,74.87274978766713L170.0109140625,82.06673345094845L170.0814609375,56.46561051682188L170.1096796875,66.52704645708535L170.116734375,73.07933438131413L170.7869296875,71.22555645888566L171.273703125,62.803577906403056L171.5629453125,62.8697649830658L171.91567968750002,62.83502815926544L171.9721171875,76.78491651871485L172.0779375,84.66908807074239L172.176703125,94.183578162731L172.27546875000002,81.26959952970817L172.656421875,76.32992350614354L172.82573437500002,69.64348290596178L172.8468984375,68.39898099144558L173.164359375,58.7080170177833L173.6652421875,63.67254320165012L173.7781171875,72.75349307436048L173.92626562499998,72.99309127407253L173.97564843749998,56.66220218763936L174.6952265625,46.878428261436156L174.70933593750001,46.51205713954994L175.24549218750002,50.68763676379577L175.3865859375,77.17207350042138L175.6264453125,88.40610519770783L175.73932031249998,87.39377060815099L175.816921875,87.74141552468777L176.2331484375,95.55466981408382L176.24020312500002,94.82502246753802L176.268421875,85.90847967330474L176.36013281249998,72.83238957383548L176.465953125,76.15562897806356L176.8962890625,82.0303263985216L177.312515625,68.92733030456898L178.5611953125,74.40947265290377L178.70934375,82.03059781708217L178.920984375,76.85992470453915L179.146734375,81.50828446937047L179.2102265625,82.59777692402865L179.344265625,68.53855235693135L179.47125,77.07201250235603L179.8451484375,79.72472954595305L179.98624218749998,73.895300089146L180.1414453125,82.6998464130314L180.303703125,62.01433937030743L180.42363281250002,67.61154270933694L180.44479687499998,62.87010020176545L180.4659609375,57.32404380089031L180.726984375,49.12202313569776L180.924515625,63.827537915275045L181.05149999999998,51.953609976867156L181.065609375,62.66549825143772L181.72875,75.64529019130444L181.9192265625,77.11216352005707L182.10264843750002,57.52512948286477L182.279015625,64.26247215313879L182.3001796875,64.39033328469495L183.0479765625,81.8810652902776L183.0761953125,68.91488681352462L183.182015625,77.59508765409186L183.196125,84.32593487304325L183.23139843750002,77.26894872547312L183.2737265625,78.31409416741803L183.3654375,78.1000472792785L183.421875,96.99348125838043L183.67584375,85.98478656251908L183.78871875,69.29068204605389L184.33192968749998,56.50497062709217L184.4871328125,50.754855467118546L184.5858984375,44.55151580467089L184.6423359375,46.46099054780164L184.68466406250002,57.57592472414114L184.86808593749998,72.63251558828316L184.8963046875,68.04838341854787L185.0656171875,61.27070887912974L185.14321875000002,78.04862184095184L185.3054765625,80.94643400620103L185.39013281249998,91.46271557367253L185.6158828125,71.23714229021314L186.173203125,80.26863046916631L186.3777890625,75.75856618989889L186.7023046875,76.01892003512015L187.527703125,69.41461814996975L187.5418125,75.12797237668858L187.6053046875,100.6781495607461L187.6335234375,78.87902103194985L187.64057812500002,58.52393718558188L187.6899609375,67.78242512343905L187.80283593750002,63.364437690666804L188.19084375000003,58.052182544047525L188.204953125,76.5472111232727L188.50125,87.36032941059169L188.600015625,75.09971035489974L189.15028125,74.79157311600171L189.1996640625,73.41573900807931L189.3830859375,59.08922659056801L190.92100781250002,64.00732427208077L191.09032031249998,54.921844804993L191.280796875,71.13610178363962L191.436,67.17401295830393L191.506546875,68.53082890617601L191.619421875,70.6356477442846L192.0920859375,70.74470648488196L192.4024921875,55.89735554349894L192.4730390625,47.67780062670992L192.4871484375,67.15694568673065L192.53653125,81.25360280644472L192.6423515625,85.20841848177656L193.143234375,90.48192739381162L193.15734375,101.6291778774188L193.4183671875,80.76692082531012L193.7569921875,86.95348959593032L194.102671875,71.3319917242411L194.22965625,57.5195968640258L194.4765703125,62.85210048958125L194.73759375,89.08093365239775L195.0268359375,87.85866836135193L195.428953125,75.49303662284974L195.80990624999998,83.64063040914992L195.97921875,55.860386475937716L195.9862734375,60.24812302441428L196.9739296875,74.80687977344412L197.16440624999998,90.43481772002946L197.41132031249998,78.81607259575947L197.45364843750002,83.05394630887761L197.4818671875,82.95255693649443L197.9051484375,62.491757743687565L197.940421875,48.41385122128196L198.0321328125,70.53473314337651L198.194390625,64.55024276192617L198.279046875,83.66819366076966L199.379578125,98.68445570921529L199.633546875,95.66750712189453L199.78875,91.98001964684354L199.859296875,73.9097845467688L200.19792187500002,82.70945753233202L200.395453125,91.93501664892774L200.4025078125,78.84385666815008L201.05859375,70.57389426271656L201.32667187500002,89.1615210863384L201.68646093750002,96.47598851427033L201.70057031250002,86.69573500576375L201.95453906249998,74.3039146934316L202.0815234375,64.22845226373467L202.10268749999997,66.16859674660083L202.596515625,63.4509022605879L203.2949296875,50.20070801213163L204.063890625,67.09691113105285L204.2473125,68.09599753094236L204.769359375,73.14802619440867L205.079765625,66.30742183997341L205.12209375,60.16385606780116L205.43955468750002,78.60239140900651L206.13796875,72.59108143277574L206.73761718749998,62.45651116655832L207.09740625,73.63379325977901L207.25260937500002,86.15462481982671L207.34432031249997,64.01547006372908L207.65472656249997,58.39837430479704L207.89458593749998,69.62664246298418L207.9228046875,56.196426038369815L208.04273437499998,58.25658949877338L208.05684374999998,62.27672497877785L208.861078125,76.2035309088189L209.07271875,91.31905264627687L209.24908593749998,76.44485645277352L209.55243750000002,57.49237864484222L209.651203125,79.32682838079234L209.933390625,65.9360991316253L210.356671875,67.3797240106591L210.42721875,79.97952089299729L210.50482031250002,90.81400429660064L210.53303906250002,75.83023421587932L210.7587890625,74.85047298593753L210.808171875,67.47535730256698L210.9563203125,57.38306433471477L211.203234375,32.86171347804329L211.344328125,63.230117459043626L211.3584375,69.40019512709664L211.4783671875,57.78508213482313L211.5771328125,55.08094035578973L212.0145234375,43.889194288809335L212.0286328125,64.81143298385098L212.43075000000002,68.83112895421716L212.501296875,54.221982174709645L212.868140625,58.09461505627346L212.9598515625,55.517176642511565L213.3972421875,56.28074140965599L213.5665546875,77.76669609617983L214.448390625,82.1121859346139L214.77290625,83.2592234474008L214.9351640625,74.21631956467539L215.95809375,79.92149587195819L216.21911718750002,74.49258748723094L216.3037734375,62.41390761752738L216.4871953125,52.03350584518798L216.6000703125,56.734061535071646L216.6141796875,62.0616086011358L216.6706171875,75.77272374392913L216.6847265625,69.6168573496423L216.9810234375,59.510566690425996L217.38314062499998,65.35866290859039L217.4889609375,72.72328952867781L217.496015625,81.88256650965806L217.8699140625,82.8307273808205L218.0392265625,86.7784209280064L218.1097734375,77.45193441682162L218.19442968750002,74.94062456323566L218.624765625,92.59236249750174L219.090375,71.87193530455421L219.1538671875,84.19720815065617L219.3796171875,93.27903820540378L219.44310937499998,88.03288288841172L219.49954687500002,82.66652574497178L219.555984375,82.11173924867936L219.7746796875,85.99222577550786L219.7887890625,89.33583304547534L219.9863203125,95.54620972283641L220.34610937500003,74.93188099269842L220.5506953125,72.69891643348203L220.56480468750001,62.8101183761529L220.741171875,62.983747229836695L220.8328828125,54.1640832742228L220.8469921875,62.237002972970835L220.910484375,71.87937345904734L221.3549296875,74.11585581483023L221.6653359375,89.28633179176794L221.700609375,89.7517539227542L222.1591640625,80.9098601796947L222.57539062499998,88.15951222531334L222.8364140625,76.44898845465381L222.87168749999998,72.16448457367063L222.9069609375,61.55009031937623L223.139765625,70.60520669308964L223.252640625,79.63064264647761L223.4995546875,81.20233446295619L223.57010156249999,72.17377966454958L223.5842109375,73.44394024796088L223.61242968750003,77.92978324792863L223.6406484375,78.89418471188594L223.86639843749998,83.87750039596109L224.0074921875,84.94370847105233L224.437828125,78.15141256248504L224.44488281250003,69.75990764257641L224.45193749999999,77.03572280232507L225.14329687499998,63.276731538918014L225.538359375,77.80996336975478L225.848765625,79.61952431761493L225.9545859375,94.48207729541227L226.088625,62.67560004879811L226.16622656250001,67.59627694302667L226.4836875,73.81274861344022L226.6177265625,72.72238249777747L226.73765625,79.98784103214139L226.9281328125,76.98950881790753L227.92284375,57.59377129990838L228.33907031249998,56.297013217919954L228.5366015625,54.49221199882858L228.868171875,59.182104555564145L228.8893359375,56.56310860681354L228.952828125,60.54206080208911L229.4254921875,75.94785554987605L229.5383671875,41.287493108406146L229.5806953125,66.20038901042611L230.166234375,77.97141900075478L230.194453125,78.1175009394467L230.3426015625,76.72110151259781L230.7235546875,87.37810294782331L231.238546875,62.2729448345614L231.3373125,68.31649669810011L231.57011718750002,73.31534148635791L231.6265546875,80.72521854866936L231.6547734375,72.83250867831349L232.056890625,44.77243417804025L232.071,10.454071642783768L232.2191484375,44.3034705172941L232.6142109375,60.83955222373991L232.847015625,62.37012894455069L233.1221484375,58.617788404247L233.524265625,46.36592713595679L234.2367890625,37.03190018893036L234.370828125,58.21650984085056L235.3655390625,75.92613964197905L235.5348515625,83.70659600149317L235.99340625000002,93.6291718234165L236.04984375,87.69746019539495L236.1697734375,90.75829762278354L236.1909375,51.71151683663341L236.43785156250001,80.6872219931186L236.571890625,82.12293254233008L236.93167968749998,84.82948107508781L237.0304453125,60.94801321022488L237.1433203125,68.33612158383595L237.23503125,76.80190221509734L238.392,54.28702430153728L238.406109375,50.633140435664906L238.829390625,60.42334754964653L239.026921875,77.30377714753715L239.66184375,79.56840660077671L239.675953125,65.44225418211425L239.7465,58.12933721924664L240.26149218749998,69.44429305812623L240.69888281250002,57.35150002611223L240.748265625,71.30082888408032L240.988125,49.09373203816133L241.6865390625,68.84365873576473L242.046328125,69.59315505946441L242.32146093749998,55.176996385006696L242.3496796875,62.45618704256331L242.70946874999998,88.45824266551085L242.8999453125,95.6581005890855L243.118640625,100.89977753771475L243.15391406249998,85.15964814938981L243.31617187499998,56.38837355326344L243.4219921875,71.80022335917192L243.5348671875,67.7171188838508L243.8452734375,59.23518650068202L244.23328125,62.80528261264178L244.34615625,55.50930099189291L244.59307031249998,58.91942956298597L244.6353984375,59.65753530263904L244.7200546875,58.24324918270114L244.89642187500002,66.34651131767039L245.319703125,62.26902514450552L245.39025,70.03846843989372L245.43963281249998,66.02006191582488L245.5595625,83.42129257661706L245.7218203125,71.96468981112604L245.84175,64.02231869402866L246.025171875,55.223675762434816L246.307359375,61.47228236783744L246.6530390625,54.303280066187384L246.73064062499998,62.693900748035425L246.90700781249998,67.38172247644731L247.3020703125,74.18225525698941L247.3867265625,50.789108305465476L247.4784375,64.35624583172279L248.325,89.69428939883397L248.6283515625,84.01593239167029L248.70595312499998,83.5317677307647L248.72006249999998,65.59196492424735L248.74828125,75.18010789985136L249.03046874999998,64.70051014920877L249.2632734375,63.61459949911121L249.3761484375,65.64082452088881L249.5101875,72.85361668127949L249.8699765625,74.55771012847526L249.8981953125,56.7272121742064L250.01107031249998,63.08670527545775L250.653046875,44.57777267878155L251.189203125,60.93784205427707L251.21036718750003,65.00281214452352L251.245640625,64.51599858395197L251.2526953125,72.46797087455951L251.781796875,70.42084001699187L251.8735078125,95.09491485997496L251.97227343749998,90.2037855901984L252.2121328125,97.7761271905105L252.2262421875,78.32482479728463" style="fill: none;" fill="none"></path></g></g></g></g><g opacity="0.2"><g><g><g><path stroke="rgb(255, 112, 67)" stroke-width="2px" d="M35.400421875,13.5653011277318L35.605007812500006,81.79583500698209L35.710828125,102.8538035005331L35.9013046875,85.26311626285315L36.0000703125,92.16590884700418L36.0282890625,113.45181299932301L36.176437500000006,133.79667990468442L36.43040625,127.07264886796474L36.48684375,133.35337557457387L36.994781249999996,144.27557850815356L37.1006015625,146.12478315923363L37.262859375,143.26604874897748L37.996546875,133.10523631609976L38.109421875,144.63597394153476L38.2011328125,146.09962487686425L38.3563359375,140.27904761116952L38.553867187499996,145.72303455881774L38.6244140625,138.17025080882013L38.6667421875,143.79630310088396L38.871328125000005,138.1120464541018L39.0335859375,150.7699966672808L39.068859374999995,157.95621593808755L39.082968750000006,108.17214285582304L39.19584375,147.77872145734727L39.47803125,151.6487742550671L39.7672734375,142.55016597546637L39.8096015625,149.6024457514286L39.915421875,133.62897827848792L40.0353515625,150.32202124223113L40.66321875,145.70640821568668L40.7408203125,153.40424100961536L40.945406250000005,148.34722369071096L41.382796875000004,146.25567307323217L41.523890625,152.3572169020772L42.4339453125,147.6856155563146L42.511546875,143.25932974554598L42.5891484375,154.2981358487159L42.829007812499995,152.80148543044925L43.1111953125,152.4272529417649L43.2099609375,152.88740035705268L43.25934375,153.69363823067397L43.400437499999995,157.99482741951942L43.48509375,140.1681506317109L43.569750000000006,151.95291196089238L43.62618749999999,147.39635202661157L43.866046875,153.42351889796555L44.10590625,151.14641480706632L44.12001562499999,150.4190325513482L44.211726562500004,151.8310826746747L44.2399453125,156.9071611398831L44.980687499999995,155.24945922754705L45.2699296875,156.85501948557794L45.5521171875,151.64164404943585L45.559171875000004,159.04914783407003L45.813140624999996,150.80377601645887L45.926015625000005,153.792972933501L45.9471796875,151.41095556411892L46.19409375,149.88494571391493L46.2152578125,159.82136125769466L46.3140234375,151.37544025294483L46.7514140625,153.00547413155437L46.8078515625,156.88827217184007L47.054765625,154.26314314920455L47.280515625,151.81139155849814L47.3440078125,157.5541756474413L48.303445312499996,124.98810489289463L48.6702890625,150.2783345533535L48.740835937499995,148.92889654822648L48.95953125,151.20445306040347L49.100624999999994,159.12851188424975L49.1076796875,155.7484844941646L49.876640625,154.67716096993536L49.940132812499996,154.24895971175283L50.0106796875,155.61626779474318L50.088281249999994,154.19985447172076L50.8572421875,157.70340963592753L51.6332578125,154.12510074768215L51.9154453125,159.36537144100294L52.458656250000004,155.85717556625605L52.4939296875,149.3283602418378L52.585640624999996,154.31504375394434L52.642078125,155.3112428644672L52.6632421875,155.20064972899854L52.9313203125,158.06547519844025L53.030085937500004,159.2276440244168L53.4533671875,155.5767316147685L53.460421875,156.18486320693046L53.6085703125,154.63109619542956L53.806101562500004,156.5497778132558L53.8625390625,160.49718523956835L53.9189765625,155.399529799819L54.20821875,157.7823624839075L54.271710937499996,155.87809623777866L54.377531250000004,157.4840940311551L54.4410234375,156.06921410746872L54.6949921875,150.0875164764002L54.702046875,157.26781180221587L54.800812500000006,154.92470671981573L54.9207421875,156.66124399378896L55.11121875,157.73801847919822L55.33696875,158.5999610843137L55.4568984375,156.7817181358114L56.2470234375,153.79610252659768L57.023039062500004,156.75011836085469L57.03009375,154.21171046420932L57.1711875,156.68704237416387L57.1782421875,156.1673071011901L57.284062500000005,157.718973537907L57.4604296875,153.1854551061988L57.841382812499994,157.29655949492007L57.9683671875,152.67127410136163L58.137679687500004,156.28496157098562L58.3069921875,156.6559186214581L58.32815625,155.12070634961128L58.94896875,156.2849919553846L59.28759375,147.9078855374828L59.689710937499996,154.4928107187152L59.8449140625,162.41165557969362L59.9013515625,157.54318054625764L59.96484375,152.35205763112754L60.148265625,153.196887742728L60.430453125,155.4089530147612L60.4516171875,156.10228448733687L60.6703125,159.91321633430198L60.783187500000004,157.8465576292947L61.051265625,158.1954890289344L61.072429687500005,157.24429427739233L61.1006484375,156.15319658629596L61.15003125,157.32669372903183L61.1711953125,156.89242065511644L61.305234375,158.7062143147923L61.4604375,157.98669857997447L61.8061171875,155.1522028176114L61.954265625,157.7363179656677L62.419875000000005,158.55622274195775L62.433984375,156.47170206159353L62.800828125,163.4460478797555L62.8925390625,160.99948594439775L63.0195234375,154.324100330472L63.315820312499994,157.11491446802393L63.57684375,162.72666381066665L63.6544453125,162.0081548122689L64.08478125,157.12788354232907L64.2611484375,163.57507421728224L64.3458046875,157.75985878519714L64.36696875,160.27294837497175L64.522171875,159.87064880412072L64.76908593750001,161.09041429683566L64.8466875,161.75411085225642L65.0936015625,162.80464942194521L65.3052421875,161.1697206166573L65.735578125,162.40846623061225L65.806125,165.19448165874928L66.695015625,161.42776012513787L67.2664453125,156.20348884351552L67.2946640625,161.18184703029692L67.47103125,162.15184668637812L67.80965625,158.19170414563268L68.0706796875,159.457668104209L68.359921875,161.58809859864414L68.37403125,162.03444238146767L68.416359375,158.60581008112058L68.4798515625,164.6948963063769L68.642109375,164.11527945986018L68.9736796875,159.8756257686764L69.3616875,155.5814452478662L69.38285156250001,155.3419331330806L69.38990625,161.54509353311732L69.44634375,164.54174374323338L69.714421875,161.84453482367098L69.911953125,160.40979160554707L70.0459921875,160.45042466232553L70.1870859375,158.25309075973928L70.40578125,164.42718949494883L71.1041953125,162.5833527543582L71.1676875,160.92555563757196L71.18179687499999,153.74841117393225L71.47809375000001,162.4922096855007L71.5063125,158.94811768177897L71.6121328125,161.01507617952302L71.6403515625,163.85570250079036L71.86610156249999,164.85812129778787L71.9578125,159.729920421727L72.1341796875,162.93176761921495L72.225890625,158.3303998117335L72.3317109375,150.45669502671808L72.395203125,160.94503912702203L72.6280078125,162.0725525203161L72.7973203125,157.1583368126303L72.818484375,161.79888226417825L73.100671875,160.35557976085693L73.15710937499999,161.3354148468934L73.3899140625,162.27010580571368L73.6862109375,162.68069727905095L73.74970312500001,162.78501401050016L74.1377109375,162.81396730430424L75.2523515625,162.04296925663948L75.69679687499999,163.51813689200208L75.894328125,160.7583148414269L76.0565859375,159.43135926593095L76.416375,159.41100576985627L76.656234375,154.82404725719243L76.74794531250001,162.7511212262325L77.29115625,156.5897981179878L77.4675234375,160.79997792933136L77.5803984375,144.67277552559972L77.6650546875,147.88213779777288L77.9754609375,157.05650653783232L78.3846328125,162.95981950918213L78.575109375,159.73316243709996L78.603328125,156.72063131444156L79.18886718750001,152.47155947238207L79.3158515625,149.83494514692575L79.5698203125,139.3388874605298L79.94371875,140.87898756936193L79.95782812499999,137.4151417762041L80.127140625,156.38799304235727L80.1341953125,154.08390963077545L80.16946875000001,143.01535112410784L80.2047421875,150.2666244059801L81.3264375,154.88351762853563L81.453421875,125.96396266110241L81.4886953125,152.85353593155742L81.58040625000001,133.04283081181347L81.6156796875,127.07623827829957L81.72855468750001,141.65904421918094L81.763828125,153.90687594283372L81.82732031249999,157.24619532795623L81.9401953125,151.197480853647L82.3493671875,151.88310279138386L82.6809375,148.0229998715222L82.751484375,135.8002474308014L82.892578125,142.37962442077696L83.259421875,118.418856035918L83.541609375,152.28089534305036L83.59804687500001,153.94615486823022L84.06365625,111.99363328143954L84.0848203125,156.46680207084864L84.162421875,124.0557089690119L84.5927578125,149.9294487303123L84.62803125,117.29606741666794L84.642140625,156.25024840794504L85.037203125,132.87802178040147L85.4816484375,99.7675264030695L85.5028125,147.92527959309518L85.54514062499999,134.32429486513138L85.81321874999999,146.32408861164004L86.11657031249999,129.320725729689L86.4410859375,109.33492139540613L86.589234375,148.78888726327568L86.82909375,141.25605593528599L87.040734375,133.97870676219463L87.1465546875,132.62002582289279L87.2453203125,115.50918116793036L87.73209375,121.75064717978239L87.929625,142.37001687381417L87.95784375,154.05223693326116L87.97195312500001,130.60836389288306L88.056609375,93.6129435673356L88.225921875,111.12884872220457L88.310578125,136.0924278628081L88.40934375,100.78554151207209L88.4869453125,112.56391198933125L88.83967968750001,122.73069394379854L88.91728125,141.6018182421103L89.157140625,77.36859310045838L89.19946875,98.3153303861618L89.31234375,125.91579731181264L89.7850078125,140.51855567470193L89.80617187499999,118.7121424600482L89.98959375000001,109.52385969087481L90.257671875,114.0337633676827L90.2647265625,108.22433109954L90.4481484375,120.3808658067137L90.568078125,82.88577606528997L90.6880078125,86.23868234083056L90.97019531250001,137.28639294952154L91.01252343750001,90.22342206537724L91.21005468749999,126.56017749197781L91.612171875,86.351412512362L92.035453125,98.77334886789322L92.26120312500001,98.15582444518805L92.57160937500001,104.99662475287914L92.7268125,68.4553499110043L93.23475,129.1972192246467L93.3264609375,32.59210900962353L93.66508593750001,99.03555407747626L93.7638515625,115.84008347801864L93.79912499999999,89.27695208787918L94.2717890625,71.57286217063665L94.37055468749999,138.4915192387998L94.51164843749999,92.86171158403158L95.1747890625,81.8513128682971L95.57690625,88.88791024312377L95.61923437499999,82.12494261190295L95.68272656250001,119.56459500454366L96.07073437499999,90.0512113943696L96.3599765625,84.43286863714457L96.3881953125,126.32938975095749L96.60689062499999,89.79929636791348L96.81853125,109.87984330952168L97.0160625,115.28212057985365L97.185375,76.8882441110909L97.199484375,75.15474527701735L97.5169453125,128.91321827284992L97.5874921875,84.82796305418015L97.81324218750001,105.94917971268296L97.848515625,88.20216271653771L97.89789843749999,88.92967866361141L98.1800859375,71.23741840571165L98.20830468749999,55.491987872868776L98.6598046875,126.61315573006868L98.80795312500001,114.24096471257508L98.99842968749999,107.70526428334415L99.174796875,127.4277736209333L99.61924218749999,82.85211825370789L99.8379375,23.68364629894495L100.26121875,103.40657269209623L100.54340625,79.00849988311529L100.81853906250001,113.59427531808615L100.90319531249999,51.85735744982958L100.9666875,62.75069925561547L101.0725078125,106.805744279176L101.19949218750001,62.392398320138454L101.2982578125,69.04510704427958L101.38996875000001,86.87294654175639L101.4252421875,115.10394646413624L101.49578906250001,67.86244900524616L101.9825625,114.87644023820758L102.561046875,48.07193938270211L102.6245390625,119.1453389134258L102.758578125,98.84329780563712L103.4993203125,93.09203343093395L103.506375,72.43161441385746L103.7885625,85.43691502511501L104.0778046875,129.2938132546842L104.08485937500001,110.11215837299824L104.21184375,63.09397814422846L104.50108593750001,58.21466499567032L104.5786875,102.75885022804141L104.6703984375,102.83011177182198L104.76210937500001,106.76457949541509L104.8820390625,58.9614811129868L105.07251562500001,80.66140308603644L105.2347734375,56.43442280218005L105.45346875,93.315913785249L105.46052343749999,80.95749297738075L105.467578125,94.11708961799741L105.538125,85.36504579335451L105.6298359375,78.66799205169082L105.6721640625,84.39429260417819L105.7709296875,24.553920306265354L106.2647578125,82.5222409106791L106.45523437499999,71.37478019669652L106.6739296875,119.19407954066992L106.793859375,59.45792168006301L107.1677578125,36.49382235109806L107.28768749999999,62.16333236172795L107.3370703125,98.4936989620328L107.7180234375,100.8457350321114L107.795625,63.553220104426146L108.23301562500001,68.74426908418536L108.2541796875,70.92310597747564L108.261234375,61.31444086879492L108.60691406250001,67.54891441762447L108.9596484375,62.97148445248604L109.00197656249999,49.68864868953824L109.00903124999999,60.385796405375004L109.051359375,82.21202024817467L109.3547109375,78.344223998487L109.474640625,72.94620459526777L109.7779921875,90.11497811973095L110.02490625,100.0732177644968L110.28592968749999,43.600927736610174L110.3564765625,63.28386038169265L110.3705859375,16.239176854491234L110.8079765625,77.66768091917038L110.87852343750001,78.66475104913116L110.92790625,109.89353654533625L111.2594765625,74.53174355998635L111.76035937500001,100.48959746584296L113.0372578125,65.14328026771545L113.07253125,69.65485306084156L113.12896875,69.57095160707831L113.25595312499999,88.62107850238681L113.538140625,89.9428808838129L113.70745312499999,78.50299261137843L113.74978125,89.00568017363548L113.7568359375,52.40547580271959L113.9966953125,94.23727409541607L114.074296875,52.56683721765876L114.37059375,44.778821501880884L114.412921875,74.64982138574123L114.469359375,41.72225629538298L115.203046875,32.65503307431936L115.2101015625,44.879730116575956L115.654546875,103.4768943451345L115.72509375,98.74513594061136L115.76036718750001,51.60113999247551L116.0002265625,105.3036935403943L116.1272109375,17.460467644035816L116.14132031250001,75.58381350338459L116.58576562500001,80.5477087162435L116.952609375,56.06626921892166L117.1854140625,76.20175925642252L117.7850625,94.45061308890581L118.06725,116.88877062499523L118.20834375,107.40007932856679L118.2718359375,80.78248694166541L118.41998437500001,97.8648472353816L118.65278906249999,52.71966669335961L118.8503203125,80.2170130200684L118.99141406250001,-2.2505969032645226L119.05490625,41.381238006055355L119.097234375,92.93399404361844L119.6122265625,58.0873341076076L119.73215625,83.27046686410904L120.12016406250001,55.07364736497402L120.46584375,88.43388629704714L121.1642578125,96.89308123290539L121.1924765625,79.72842378169298L121.5875390625,120.27727526240051L121.84150781250001,72.64276573061943L122.060203125,109.87992433458567L122.07431249999999,35.930957436561584L122.15896875,107.36370717734098L122.427046875,38.84311977401376L122.70923437500001,28.38993852585554L122.737453125,93.65385312214494L122.7515625,98.52037241309881L122.8997109375,91.96186342835426L122.90676562499999,107.65814010612667L123.0125859375,64.76453670859337L123.09724218749999,114.41292825713754L123.28771875,99.6696724332869L123.301828125,95.48706950247288L123.3159375,13.475638791918755L123.837984375,45.62959277629852L124.1695546875,78.50107231736183L124.50112499999999,62.233864679932594L124.92440624999999,60.716937739402056L125.446453125,32.845668844878674L125.5099453125,68.62329866364598L126.28596093750001,65.18959419429302L126.3141796875,50.43988877534866L126.5893125,85.06384322047234L126.78684374999999,97.66674095392227L126.81506250000001,52.4465960226953L126.96321093750001,73.19462744146585L127.05492187499999,67.02758295089006L127.1536875,22.126555234193802L127.323,62.28049460425973L127.63340625,87.38722882792354L128.31065625,110.39976899139583L128.748046875,25.695838943123817L128.8256484375,93.3119678646326L129.129,80.29745470359921L129.4464609375,58.99833131209016L129.72159375,94.44366113841534L129.933234375,83.75457541644573L130.19425781249998,81.82041801139712L130.666921875,93.61424807086587L130.864453125,26.37212274223566L130.920890625,100.72388954088092L131.3794453125,65.43354445695877L131.51348437500002,64.07452726364136L131.52759375,56.64201711863279L131.5487578125,61.754893116652966L131.64046875,33.22053940594196L132.176625,80.03160336613655L132.64223437500002,62.89044318348169L132.8468203125,49.532083958387375L132.9738046875,100.22214183211327L133.26304687500001,118.55044479109347L133.44646875,113.41495064646006L133.8344765625,42.543980084359646L133.89796875,115.91994988359511L134.081390625,62.68076652288437L134.363578125,93.0072488039732L135.153703125,79.77985849231482L135.2877421875,3.883243516087532L135.36534375,88.26546759903431L135.492328125,74.97643341869116L135.859171875,62.20010153576732L135.90855468750001,95.05408776551485L136.5011484375,107.87881997041404L136.536421875,68.57115093246102L136.5858046875,56.7368488535285L136.8538828125,55.20701462030411L136.8962109375,14.795828774571419L136.9949765625,57.56947861611843L137.05846875,91.07114679738879L137.5381875,101.23612189292908L137.8133203125,62.01900241523981L138.1096171875,76.38956725224853L138.4341328125,34.176149010658264L138.58933593749998,57.05936912074685L139.2948046875,94.40995471179485L139.400625,66.45543256402016L139.8168515625,87.47825238481164L140.0426015625,79.08977612480521L140.1343125,88.35330687090755L140.16253125,79.80311268568039L140.5364296875,80.44745640456676L140.56464843749998,46.8931300342083L140.67046875,96.33284963294864L141.2277890625,60.93094113841653L141.5523046875,73.92317240685225L141.559359375,116.25575421005487L141.58757812500002,94.19046591594815L141.869765625,70.862175129354L141.96853124999998,21.40781430155039L142.06729687499998,67.54113601148129L142.1731171875,72.66448855027556L142.335375,32.79731308668852L142.3988671875,121.94087377376854L142.49763281249997,46.731946874409914L143.33714062500002,59.557744558900595L143.450015625,108.483104897663L143.54878125000002,67.09014240279794L143.647546875,60.30330478772521L143.71103906250002,114.14532677829266L144.0496640625,88.39611241221428L144.1625390625,55.63899164646864L144.20486718749999,54.42249754071236L144.3106875,68.09927716478705L144.35301562499998,59.17418000847101L144.550546875,74.37292633205652L145.39710937499999,75.70616135001183L145.594640625,58.28969420492649L145.80628125,89.05679078400135L146.1166875,68.7400071658194L146.187234375,87.80661455914378L146.37771093749998,78.7735271975398L146.4553125,84.35909531638026L146.68811718749998,102.73170683160424L146.7445546875,65.26039389520884L146.87859375,79.6650135666132L146.9561953125,80.65276581421494L147.2524921875,61.131308019161224L147.59111718749998,78.07250644639134L147.598171875,73.86175540834665L148.3741875,72.01534004509449L148.68459375,109.56791301816702L148.97383593749998,86.35891543328762L149.4535546875,67.76350119709969L149.460609375,13.331495203077793L149.81334375,64.40966313332319L149.8345078125,89.39762271568179L149.8486171875,20.727900579571724L149.89094531249998,95.86172129586339L150.3565546875,82.89054844155908L150.589359375,64.99359456449747L150.91387500000002,42.10282291844487L151.04791406249998,63.67586774379015L151.069078125,88.29458800703287L151.16078906250002,111.2742481995374L152.4024140625,121.16756651178002L152.4165234375,67.547747656703L152.4870703125,74.08410438895226L153.30541406249998,82.64099934697151L153.3336328125,28.441681131720543L154.032046875,46.71666554734111L154.257796875,84.70152344182134L154.35656250000002,52.36301866918802L154.3777265625,69.29487490653992L154.5470390625,79.28918690979481L154.8292265625,65.03617323562503L154.8574453125,39.221450105309486L155.217234375,111.24772464483976L155.316,43.40177623182535L155.584078125,50.90213676542044L155.6052421875,71.39670557901263L155.73928124999998,70.8401444144547L156.0496875,103.98943459242582L156.09201562500002,63.71928097307682L156.0990703125,65.70396560803056L156.2119453125,68.43075880408287L156.2966015625,92.2145481929183L156.8186484375,30.36069495230913L156.8327578125,68.82611250132322L156.966796875,102.13921915367246L157.0585078125,94.13661665841937L157.1290546875,81.6950722374022L157.1854921875,99.82037094980478L157.982671875,57.66636838763952L158.2436953125,75.87360774725676L158.83628906250001,46.23961427807808L159.1749140625,55.54469467699528L159.55586718749998,83.57990158349276L159.6616875,128.14595548063517L159.66874218750002,65.90251752734184L159.9368203125,49.67925788462162L160.05675000000002,88.3441672436893L160.1202421875,60.824863124638796L160.3601015625,40.32752325385809L160.621125,17.679964542388916L160.945640625,52.18790730088949L161.3618671875,12.201422430574894L161.4183046875,43.2268755286932L161.4465234375,89.40259765461087L161.7992578125,71.9759456589818L161.9191875,71.50308338552713L162.00384375000002,60.41993226483464L162.2930859375,80.77452217787504L162.31425000000002,49.22438317537308L162.5047265625,85.0747329890728L162.7093125,34.12824699282646L162.878625,63.88616829738021L163.02677343750003,88.11497164517641L163.1114296875,53.481083527207375L163.1678671875,66.57722133770585L163.1960859375,36.3765142634511L163.2243046875,104.83585482090712L163.7181328125,51.6453472673893L164.20490625,75.84767162427306L164.59996875000002,67.99094665423036L164.6916796875,90.20114827528596L165.1149609375,42.73124521225691L165.1996171875,58.80156194418669L165.28427343750002,31.999021746218204L165.39009374999998,73.16996341198683L165.55940625,39.862115286290646L165.6511171875,59.22297330200672L165.714609375,80.78517697378993L165.94035937499999,57.86716470122337L166.6035,56.94616900384426L166.6387734375,102.13898418098688L166.730484375,41.797812167555094L166.8080859375,60.99016235768795L167.605265625,102.28666046261787L167.6123203125,49.65520964562893L167.65464843750001,82.61124694347382L167.67581249999998,-3.520713396370411L167.76046875,91.66809895634651L167.86628906250002,52.04608102887869L168.592921875,86.19925554469228L168.63525,55.5185721963644L169.2490078125,57.47563538700342L169.56646874999998,80.9282591342926L169.5876328125,83.4750308431685L170.0109140625,92.8577089458704L170.0814609375,18.063926115632057L170.1096796875,81.61920036748052L170.116734375,82.90776626765728L170.7869296875,68.444889575243L171.273703125,50.17061007767916L171.5629453125,62.96904559805989L171.91567968750002,62.78292292356491L171.9721171875,97.70974905788898L172.0779375,96.49534539878368L172.176703125,108.4553133007139L172.27546875000002,61.89863158017397L172.656421875,68.92040947079659L172.82573437500002,59.613822005689144L172.8468984375,66.53222811967134L173.164359375,44.17157105728984L173.6652421875,71.11933247745037L173.7781171875,86.37491788342595L173.92626562499998,73.35248857364058L173.97564843749998,32.1658685579896L174.6952265625,32.20276737213135L174.70933593750001,45.96250045672059L175.24549218750002,56.95100620016456L175.3865859375,116.89872860535979L175.6264453125,105.25715274363756L175.73932031249998,85.87526872381568L175.816921875,88.26288289949298L176.2331484375,107.27455124817789L176.24020312500002,93.73055144771934L176.268421875,72.53366548195481L176.36013281249998,53.218254424631596L176.465953125,81.14048808440566L176.8962890625,90.84237252920866L177.312515625,49.27283616364002L178.5611953125,82.63268617540598L178.70934375,93.46228556334972L178.920984375,69.10391503572464L179.146734375,88.48082411661744L179.2102265625,84.23201560601592L179.344265625,47.44971550628543L179.47125,89.87220272049308L179.8451484375,83.70380511134863L179.98624218749998,65.15115590393543L180.1414453125,95.9066658988595L180.303703125,30.986078806221485L180.42363281250002,76.0073477178812L180.44479687499998,55.75793644040823L180.4659609375,49.00495919957757L180.726984375,36.818992137908936L180.924515625,85.88581008464098L181.05149999999998,34.14271806925535L181.065609375,78.7333306632936L181.72875,95.1149781011045L181.9192265625,79.31247351318598L182.10264843750002,28.14457842707634L182.279015625,74.36848615854979L182.3001796875,64.5821249820292L183.0479765625,108.11716329865158L183.0761953125,49.46561909839511L183.182015625,90.61538891494274L183.196125,94.42220570147038L183.23139843750002,66.68346950411797L183.2737265625,79.88181233033538L183.3654375,77.77897694706917L183.421875,125.33363222703338L183.67584375,69.47174451872706L183.78871875,44.249525271356106L184.33192968749998,37.3264034986496L184.4871328125,42.12968272715807L184.5858984375,35.24650631099939L184.6423359375,49.32520266249776L184.68466406250002,74.24832598865032L184.86808593749998,95.21740188449621L184.8963046875,61.17218516394496L185.0656171875,51.104197070002556L185.14321875000002,103.21549128368497L185.3054765625,85.29315225407481L185.39013281249998,107.23713792487979L185.6158828125,40.89878236502409L186.173203125,93.81586273759604L186.3777890625,68.99346977099776L186.7023046875,76.40945080295205L187.527703125,59.50816532224417L187.5418125,83.69800371676683L187.6053046875,139.0034153368324L187.6335234375,46.180328238755465L187.64057812500002,27.99131141602993L187.6899609375,81.6701570302248L187.80283593750002,56.737456541508436L188.19084375000003,50.083799824118614L188.204953125,104.28975399211049L188.50125,103.58000684157014L188.600015625,56.70878177136183L189.15028125,74.32936725765467L189.1996640625,71.3519878461957L189.3830859375,37.59945796430111L190.92100781250002,71.38447079434991L191.09032031249998,41.293625604361296L191.280796875,95.45748725160956L191.436,61.230879720300436L191.506546875,70.5660528279841L191.619421875,73.79287600144744L192.0920859375,70.90829459577799L192.4024921875,33.62632913142443L192.4730390625,35.348468251526356L192.4871484375,96.37566327676177L192.53653125,102.3985884860158L192.6423515625,91.14064199477434L193.143234375,98.39219076186419L193.15734375,118.35005360282958L193.4183671875,49.47353524714708L193.7569921875,96.23334275186062L194.102671875,47.89974491670728L194.22965625,36.80100457370281L194.4765703125,70.85085592791438L194.73759375,128.42418339662254L195.0268359375,86.02527042478323L195.428953125,56.944589015096426L195.80990624999998,95.86202108860016L195.97921875,14.190020576119423L195.9862734375,66.8297278471291L196.9739296875,96.64501489698887L197.16440624999998,113.87672463990748L197.41132031249998,61.38795490935445L197.45364843750002,89.41075687855482L197.4818671875,82.80047287791967L197.9051484375,31.80055895447731L197.940421875,27.29699143767357L198.0321328125,103.71605602651834L198.194390625,55.57350718975067L198.279046875,112.34512000903487L199.379578125,121.20884878188372L199.633546875,91.14208424091339L199.78875,86.44878843426704L199.859296875,46.80443189665675L200.19792187500002,95.90896701067686L200.395453125,105.7733553238213L200.4025078125,59.207116696983576L201.05859375,58.16895065456629L201.32667187500002,117.04296132177114L201.68646093750002,107.44768965616822L201.70057031250002,72.02535474300385L201.95453906249998,55.716184224933386L202.0815234375,49.11525861918926L202.10268749999997,69.07881347090006L202.596515625,59.37436053156853L203.2949296875,30.325416639447212L204.063890625,92.44121580943465L204.2473125,69.59462713077664L204.769359375,80.7260691896081L205.079765625,56.04651530832052L205.12209375,50.9485074095428L205.43955468750002,106.26019442081451L206.13796875,63.574116468429565L206.73761718749998,47.25465576723218L207.09740625,90.39971639961004L207.25260937500002,104.93587215989828L207.34432031249997,30.806737929582596L207.65472656249997,49.972730666399L207.89458593749998,86.46904470026493L207.9228046875,36.05110140144825L208.04273437499998,61.34683468937874L208.05684374999998,68.30692819878459L208.861078125,97.09373980388045L209.07271875,113.99233525246382L209.24908593749998,54.1335621625185L209.55243750000002,29.06366193294525L209.651203125,112.07850298471749L209.933390625,45.85000525787473L210.356671875,69.5451613292098L210.42721875,98.87921621650457L210.50482031250002,107.06572940200567L210.53303906250002,53.35457909479737L210.7587890625,73.38083114102483L210.808171875,56.41268377751112L210.9563203125,42.24462488293648L211.203234375,-3.9203128069639206L211.344328125,108.78272343054414L211.3584375,78.65531162917614L211.4783671875,40.36241264641285L211.5771328125,51.02472768723965L212.0145234375,27.101575188338757L212.0286328125,96.19479102641344L212.43075000000002,74.86067290976644L212.501296875,32.30826200544834L212.868140625,63.903564378619194L212.9598515625,51.651019021868706L213.3972421875,57.42608856037259L213.5665546875,109.9956281259656L214.448390625,88.63042069226503L214.77290625,84.9797797165811L214.9351640625,60.651963740587234L215.95809375,88.4792603328824L216.21911718750002,66.34922491014004L216.3037734375,44.29588781297207L216.4871953125,36.462903186678886L216.6000703125,63.784895069897175L216.6141796875,70.05292920023203L216.6706171875,96.33939645811915L216.6847265625,60.38305775821209L216.9810234375,44.351130701601505L217.38314062499998,74.13080723583698L217.4889609375,83.7702294588089L217.496015625,95.62148198112845L217.8699140625,84.25296868756413L218.0392265625,92.69996124878526L218.1097734375,63.46220465004444L218.19442968750002,71.1736597828567L218.624765625,119.06996939890087L219.090375,40.791294515132904L219.1538671875,102.6851174198091L219.3796171875,106.90178328752518L219.44310937499998,80.16364991292357L219.49954687500002,74.61699002981186L219.555984375,81.27955950424075L219.7746796875,91.8129555657506L219.7887890625,94.35124395042658L219.9863203125,104.86177473887801L220.34610937500003,44.010387897491455L220.5506953125,69.34946959465742L220.56480468750001,47.976921290159225L220.741171875,63.24419051036239L220.8328828125,40.934587340801954L220.8469921875,74.34638252109289L220.910484375,86.34292918816209L221.3549296875,77.47057934850454L221.6653359375,112.04204575717449L221.700609375,90.44988711923361L222.1591640625,67.64701956510544L222.57539062499998,99.03399029374123L222.8364140625,58.88320279866457L222.87168749999998,65.73772875219584L222.9069609375,45.62849893793464L223.139765625,84.18788125365973L223.252640625,93.16879657655954L223.4995546875,83.55987218767405L223.57010156249999,58.63094746693969L223.5842109375,75.34918112307787L223.61242968750003,84.65854774788022L223.6406484375,80.3407869078219L223.86639843749998,91.35247392207384L224.0074921875,86.54302058368921L224.437828125,67.96296869963408L224.44488281250003,57.17265026271343L224.45193749999999,87.94944554194808L225.14329687499998,42.63824464380741L225.538359375,99.60981111600995L225.848765625,82.33386573940516L225.9545859375,116.7759067621082L226.088625,14.965884178876877L226.16622656250001,74.97729228436947L226.4836875,83.13745611906052L226.6177265625,71.08683332428336L226.73765625,90.8860288336873L226.9281328125,72.49201049655676L227.92284375,28.50016502290964L228.33907031249998,54.351876094937325L228.5366015625,51.785010170191526L228.868171875,66.21694339066744L228.8893359375,52.63461468368769L228.952828125,66.51048909500241L229.4254921875,99.05654767155647L229.5383671875,-10.703050553798676L229.5806953125,103.56973286345601L230.166234375,95.62796398624778L230.194453125,78.33662384748459L230.3426015625,74.62650237232447L230.7235546875,103.36360510066152L231.238546875,24.61520766466856L231.3373125,77.3818244934082L231.57011718750002,80.81360866874456L231.6265546875,91.84003414213657L231.6547734375,60.99344387277961L232.056890625,2.6823224276304245L232.071,-41.02347216010094L232.2191484375,95.0775688290596L232.6142109375,85.64367478340864L232.847015625,64.66599402576685L233.1221484375,52.989277593791485L233.524265625,27.98813523352146L234.2367890625,23.030859768390656L234.370828125,89.99342431873083L235.3655390625,102.4905843436718L235.5348515625,95.37728054076433L235.99340625000002,108.51303555630147L236.04984375,78.79989275336266L236.1697734375,95.34955376386642L236.1909375,-6.8586543425917625L236.43785156250001,124.15077972784638L236.571890625,84.27649836614728L236.93167968749998,88.88930387422442L237.0304453125,25.12581141293049L237.1433203125,79.41828414425254L237.23503125,89.50057316198945L238.392,20.514707431197166L238.406109375,45.15231463685632L238.829390625,75.10865822061896L239.026921875,102.62442154437304L239.66184375,82.96535078063607L239.675953125,44.25302555412054L239.7465,47.15996177494526L240.26149218749998,86.41672681644559L240.69888281250002,39.21231047809124L240.748265625,92.22482217103243L240.988125,15.783086769282818L241.6865390625,98.46854878216982L242.046328125,70.7173995450139L242.32146093749998,33.5527583733201L242.3496796875,73.37497302889824L242.70946874999998,127.4613260999322L242.8999453125,106.45788747444749L243.118640625,108.76229296065867L243.15391406249998,61.5494540669024L243.31617187499998,13.23146165907383L243.4219921875,94.91799806803465L243.5348671875,61.59246217086911L243.8452734375,46.51228792592883L244.23328125,68.16042678058147L244.34615625,44.56532856076956L244.59307031249998,64.03462241962552L244.6353984375,60.76469391211867L244.7200546875,56.121820002794266L244.89642187500002,78.5014045201242L245.319703125,56.152795884758234L245.39025,81.69263338297606L245.43963281249998,59.99245212972164L245.5595625,109.52313856780529L245.7218203125,54.77978566288948L245.84175,52.10876201838255L246.025171875,42.02571136504412L246.307359375,70.84519227594137L246.6530390625,43.54977661371231L246.73064062499998,75.2798317708075L246.90700781249998,74.4134550690651L247.3020703125,84.38305442780256L247.3867265625,15.69938787817955L247.4784375,84.70695212110877L248.325,127.70135474950075L248.6283515625,75.4983968809247L248.70595312499998,82.80552073940635L248.72006249999998,38.68226071447134L248.74828125,89.56232236325741L249.03046874999998,48.98111352324486L249.2632734375,61.98573352396488L249.3761484375,68.68016205355525L249.5101875,83.67280492186546L249.8699765625,77.11385029926896L249.8981953125,29.981465242803097L250.01107031249998,72.62594492733479L250.653046875,16.814373783767223L251.189203125,85.47794611752033L251.21036718750003,71.10026727989316L251.245640625,63.78577824309468L251.2526953125,84.39592931047082L251.781796875,67.35014373064041L251.8735078125,132.1060271244496L251.97227343749998,82.86709168553352L252.2121328125,109.13463959097862L252.2262421875,49.14787120744586" style="fill: none;" fill="none"></path></g></g></g></g></g></g><g transform="translate(47, 174)" clip-path="url(#clip_1)"><clipPath id="clip_1"><rect width="282" height="26"></rect></clipPath><g><g><line x1="0" y1="0" x2="0" y2="5" style="visibility: inherit;" fill="rgb(0, 0, 0)" stroke="rgb(204, 204, 204)" stroke-width="1px"></line><line x1="35.2734375" y1="0" x2="35.2734375" y2="5" style="visibility: inherit;" fill="rgb(0, 0, 0)" stroke="rgb(204, 204, 204)" stroke-width="1px"></line><line x1="70.546875" y1="0" x2="70.546875" y2="5" style="visibility: inherit;" fill="rgb(0, 0, 0)" stroke="rgb(204, 204, 204)" stroke-width="1px"></line><line x1="105.8203125" y1="0" x2="105.8203125" y2="5" style="visibility: inherit;" fill="rgb(0, 0, 0)" stroke="rgb(204, 204, 204)" stroke-width="1px"></line><line x1="141.09375" y1="0" x2="141.09375" y2="5" style="visibility: inherit;" fill="rgb(0, 0, 0)" stroke="rgb(204, 204, 204)" stroke-width="1px"></line><line x1="176.3671875" y1="0" x2="176.3671875" y2="5" style="visibility: inherit;" fill="rgb(0, 0, 0)" stroke="rgb(204, 204, 204)" stroke-width="1px"></line><line x1="211.640625" y1="0" x2="211.640625" y2="5" style="visibility: inherit;" fill="rgb(0, 0, 0)" stroke="rgb(204, 204, 204)" stroke-width="1px"></line><line x1="246.9140625" y1="0" x2="246.9140625" y2="5" style="visibility: inherit;" fill="rgb(0, 0, 0)" stroke="rgb(204, 204, 204)" stroke-width="1px"></line><line x1="282.1875" y1="0" x2="282.1875" y2="5" style="visibility: inherit;" fill="rgb(0, 0, 0)" stroke="rgb(204, 204, 204)" stroke-width="1px"></line></g><g transform="translate(0, 8)"><text x="0" y="0" dx="0em" dy="0.95em" style="text-anchor: middle; visibility: hidden; font-family: Roboto, sans-serif; font-size: 12px; font-weight: 200;" fill="rgb(33, 33, 33)" stroke="none" stroke-width="1px">-5k</text><text x="35.2734375" y="0" dx="0em" dy="0.95em" style="text-anchor: middle; visibility: inherit; font-family: Roboto, sans-serif; font-size: 12px; font-weight: 200;" fill="rgb(33, 33, 33)" stroke="none" stroke-width="1px">0</text><text x="70.546875" y="0" dx="0em" dy="0.95em" style="text-anchor: middle; visibility: inherit; font-family: Roboto, sans-serif; font-size: 12px; font-weight: 200;" fill="rgb(33, 33, 33)" stroke="none" stroke-width="1px">5k</text><text x="105.8203125" y="0" dx="0em" dy="0.95em" style="text-anchor: middle; visibility: inherit; font-family: Roboto, sans-serif; font-size: 12px; font-weight: 200;" fill="rgb(33, 33, 33)" stroke="none" stroke-width="1px">10k</text><text x="141.09375" y="0" dx="0em" dy="0.95em" style="text-anchor: middle; visibility: inherit; font-family: Roboto, sans-serif; font-size: 12px; font-weight: 200;" fill="rgb(33, 33, 33)" stroke="none" stroke-width="1px">15k</text><text x="176.3671875" y="0" dx="0em" dy="0.95em" style="text-anchor: middle; visibility: inherit; font-family: Roboto, sans-serif; font-size: 12px; font-weight: 200;" fill="rgb(33, 33, 33)" stroke="none" stroke-width="1px">20k</text><text x="211.640625" y="0" dx="0em" dy="0.95em" style="text-anchor: middle; visibility: inherit; font-family: Roboto, sans-serif; font-size: 12px; font-weight: 200;" fill="rgb(33, 33, 33)" stroke="none" stroke-width="1px">25k</text><text x="246.9140625" y="0" dx="0em" dy="0.95em" style="text-anchor: middle; visibility: inherit; font-family: Roboto, sans-serif; font-size: 12px; font-weight: 200;" fill="rgb(33, 33, 33)" stroke="none" stroke-width="1px">30k</text><text x="282.1875" y="0" dx="0em" dy="0.95em" style="text-anchor: middle; visibility: hidden; font-family: Roboto, sans-serif; font-size: 12px; font-weight: 200;" fill="rgb(33, 33, 33)" stroke="none" stroke-width="1px">35k</text></g><line x1="0" y1="0" x2="282.1875" y2="0" fill="rgb(0, 0, 0)" stroke="rgb(204, 204, 204)" stroke-width="1px"></line></g></g></g></g></svg>