<svg viewBox="0 0 330 200" xmlns="http://www.w3.org/2000/svg"><g><g><g><g><g><line x1="28.90625" y1="174" x2="23.90625" y2="174" style="visibility: inherit;" fill="rgb(0, 0, 0)" stroke="rgb(204, 204, 204)" stroke-width="1px"></line><line x1="28.90625" y1="158.1818181818182" x2="23.90625" y2="158.1818181818182" style="visibility: inherit;" fill="rgb(0, 0, 0)" stroke="rgb(204, 204, 204)" stroke-width="1px"></line><line x1="28.90625" y1="142.36363636363635" x2="23.90625" y2="142.36363636363635" style="visibility: inherit;" fill="rgb(0, 0, 0)" stroke="rgb(204, 204, 204)" stroke-width="1px"></line><line x1="28.90625" y1="126.54545454545455" x2="23.90625" y2="126.54545454545455" style="visibility: inherit;" fill="rgb(0, 0, 0)" stroke="rgb(204, 204, 204)" stroke-width="1px"></line><line x1="28.90625" y1="110.72727272727272" x2="23.90625" y2="110.72727272727272" style="visibility: inherit;" fill="rgb(0, 0, 0)" stroke="rgb(204, 204, 204)" stroke-width="1px"></line><line x1="28.90625" y1="94.9090909090909" x2="23.90625" y2="94.9090909090909" style="visibility: inherit;" fill="rgb(0, 0, 0)" stroke="rgb(204, 204, 204)" stroke-width="1px"></line><line x1="28.90625" y1="79.0909090909091" x2="23.90625" y2="79.0909090909091" style="visibility: inherit;" fill="rgb(0, 0, 0)" stroke="rgb(204, 204, 204)" stroke-width="1px"></line><line x1="28.90625" y1="63.27272727272727" x2="23.90625" y2="63.27272727272727" style="visibility: inherit;" fill="rgb(0, 0, 0)" stroke="rgb(204, 204, 204)" stroke-width="1px"></line><line x1="28.90625" y1="47.45454545454545" x2="23.90625" y2="47.45454545454545" style="visibility: inherit;" fill="rgb(0, 0, 0)" stroke="rgb(204, 204, 204)" stroke-width="1px"></line><line x1="28.90625" y1="31.636363636363626" x2="23.90625" y2="31.636363636363626" style="visibility: inherit;" fill="rgb(0, 0, 0)" stroke="rgb(204, 204, 204)" stroke-width="1px"></line><line x1="28.90625" y1="15.818181818181824" x2="23.90625" y2="15.818181818181824" style="visibility: inherit;" fill="rgb(0, 0, 0)" stroke="rgb(204, 204, 204)" stroke-width="1px"></line><line x1="28.90625" y1="0" x2="23.90625" y2="0" style="visibility: inherit;" fill="rgb(0, 0, 0)" stroke="rgb(204, 204, 204)" stroke-width="1px"></line></g><g transform="translate(18.90625, 0)"><text x="0" y="174" dx="0em" dy="0.3em" style="text-anchor: end; visibility: hidden; font-family: Roboto, sans-serif; font-size: 12px; font-weight: 200;" fill="rgb(33, 33, 33)" stroke="none" stroke-width="1px">-2</text><text x="0" y="158.1818181818182" dx="0em" dy="0.3em" style="text-anchor: end; visibility: inherit; font-family: Roboto, sans-serif; font-size: 12px; font-weight: 200;" fill="rgb(33, 33, 33)" stroke="none" stroke-width="1px">0</text><text x="0" y="142.36363636363635" dx="0em" dy="0.3em" style="text-anchor: end; visibility: hidden; font-family: Roboto, sans-serif; font-size: 12px; font-weight: 200;" fill="rgb(33, 33, 33)" stroke="none" stroke-width="1px">2</text><text x="0" y="126.54545454545455" dx="0em" dy="0.3em" style="text-anchor: end; visibility: inherit; font-family: Roboto, sans-serif; font-size: 12px; font-weight: 200;" fill="rgb(33, 33, 33)" stroke="none" stroke-width="1px">4</text><text x="0" y="110.72727272727272" dx="0em" dy="0.3em" style="text-anchor: end; visibility: hidden; font-family: Roboto, sans-serif; font-size: 12px; font-weight: 200;" fill="rgb(33, 33, 33)" stroke="none" stroke-width="1px">6</text><text x="0" y="94.9090909090909" dx="0em" dy="0.3em" style="text-anchor: end; visibility: inherit; font-family: Roboto, sans-serif; font-size: 12px; font-weight: 200;" fill="rgb(33, 33, 33)" stroke="none" stroke-width="1px">8</text><text x="0" y="79.0909090909091" dx="0em" dy="0.3em" style="text-anchor: end; visibility: hidden; font-family: Roboto, sans-serif; font-size: 12px; font-weight: 200;" fill="rgb(33, 33, 33)" stroke="none" stroke-width="1px">10</text><text x="0" y="63.27272727272727" dx="0em" dy="0.3em" style="text-anchor: end; visibility: inherit; font-family: Roboto, sans-serif; font-size: 12px; font-weight: 200;" fill="rgb(33, 33, 33)" stroke="none" stroke-width="1px">12</text><text x="0" y="47.45454545454545" dx="0em" dy="0.3em" style="text-anchor: end; visibility: hidden; font-family: Roboto, sans-serif; font-size: 12px; font-weight: 200;" fill="rgb(33, 33, 33)" stroke="none" stroke-width="1px">14</text><text x="0" y="31.636363636363626" dx="0em" dy="0.3em" style="text-anchor: end; visibility: inherit; font-family: Roboto, sans-serif; font-size: 12px; font-weight: 200;" fill="rgb(33, 33, 33)" stroke="none" stroke-width="1px">16</text><text x="0" y="15.818181818181824" dx="0em" dy="0.3em" style="text-anchor: end; visibility: hidden; font-family: Roboto, sans-serif; font-size: 12px; font-weight: 200;" fill="rgb(33, 33, 33)" stroke="none" stroke-width="1px">18</text><text x="0" y="0" dx="0em" dy="0.3em" style="text-anchor: end; visibility: hidden; font-family: Roboto, sans-serif; font-size: 12px; font-weight: 200;" fill="rgb(33, 33, 33)" stroke="none" stroke-width="1px">20</text></g><line x1="28.90625" y1="0" x2="28.90625" y2="174" fill="rgb(0, 0, 0)" stroke="rgb(204, 204, 204)" stroke-width="1px"></line></g></g><g transform="translate(28, 0)" clip-path="url(#clip_0)"><clipPath id="clip_0"><rect width="301" height="174"></rect></clipPath><g><g><g><line x1="0" y1="0" x2="0" y2="174" fill="rgb(0, 0, 0)" stroke="rgb(66, 66, 66)" stroke-width="1px" opacity="0.25"></line><line x1="37.63671875" y1="0" x2="37.63671875" y2="174" fill="rgb(0, 0, 0)" stroke="rgb(66, 66, 66)" stroke-width="1px" opacity="0.25"></line><line x1="75.2734375" y1="0" x2="75.2734375" y2="174" fill="rgb(0, 0, 0)" stroke="rgb(66, 66, 66)" stroke-width="1px" opacity="0.25"></line><line x1="112.91015625" y1="0" x2="112.91015625" y2="174" fill="rgb(0, 0, 0)" stroke="rgb(66, 66, 66)" stroke-width="1px" opacity="0.25"></line><line x1="150.546875" y1="0" x2="150.546875" y2="174" fill="rgb(0, 0, 0)" stroke="rgb(66, 66, 66)" stroke-width="1px" opacity="0.25"></line><line x1="188.18359375" y1="0" x2="188.18359375" y2="174" fill="rgb(0, 0, 0)" stroke="rgb(66, 66, 66)" stroke-width="1px" opacity="0.25"></line><line x1="225.8203125" y1="0" x2="225.8203125" y2="174" fill="rgb(0, 0, 0)" stroke="rgb(66, 66, 66)" stroke-width="1px" opacity="0.25"></line><line x1="263.45703125" y1="0" x2="263.45703125" y2="174" fill="rgb(0, 0, 0)" stroke="rgb(66, 66, 66)" stroke-width="1px" opacity="0.25"></line><line x1="301.09375" y1="0" x2="301.09375" y2="174" fill="rgb(0, 0, 0)" stroke="rgb(66, 66, 66)" stroke-width="1px" opacity="0.25"></line></g><g><line x1="0" y1="174" x2="301.09375" y2="174" fill="rgb(0, 0, 0)" stroke="rgb(66, 66, 66)" stroke-width="1px" opacity="0.25"></line><line x1="0" y1="158.1818181818182" x2="301.09375" y2="158.1818181818182" fill="rgb(0, 0, 0)" stroke="rgb(66, 66, 66)" stroke-width="1px" opacity="0.25"></line><line x1="0" y1="142.36363636363635" x2="301.09375" y2="142.36363636363635" fill="rgb(0, 0, 0)" stroke="rgb(66, 66, 66)" stroke-width="1px" opacity="0.25"></line><line x1="0" y1="126.54545454545455" x2="301.09375" y2="126.54545454545455" fill="rgb(0, 0, 0)" stroke="rgb(66, 66, 66)" stroke-width="1px" opacity="0.25"></line><line x1="0" y1="110.72727272727272" x2="301.09375" y2="110.72727272727272" fill="rgb(0, 0, 0)" stroke="rgb(66, 66, 66)" stroke-width="1px" opacity="0.25"></line><line x1="0" y1="94.9090909090909" x2="301.09375" y2="94.9090909090909" fill="rgb(0, 0, 0)" stroke="rgb(66, 66, 66)" stroke-width="1px" opacity="0.25"></line><line x1="0" y1="79.0909090909091" x2="301.09375" y2="79.0909090909091" fill="rgb(0, 0, 0)" stroke="rgb(66, 66, 66)" stroke-width="1px" opacity="0.25"></line><line x1="0" y1="63.27272727272727" x2="301.09375" y2="63.27272727272727" fill="rgb(0, 0, 0)" stroke="rgb(66, 66, 66)" stroke-width="1px" opacity="0.25"></line><line x1="0" y1="47.45454545454545" x2="301.09375" y2="47.45454545454545" fill="rgb(0, 0, 0)" stroke="rgb(66, 66, 66)" stroke-width="1px" opacity="0.25"></line><line x1="0" y1="31.636363636363626" x2="301.09375" y2="31.636363636363626" fill="rgb(0, 0, 0)" stroke="rgb(66, 66, 66)" stroke-width="1px" opacity="0.25"></line><line x1="0" y1="15.818181818181824" x2="301.09375" y2="15.818181818181824" fill="rgb(0, 0, 0)" stroke="rgb(66, 66, 66)" stroke-width="1px" opacity="0.25"></line><line x1="0" y1="0" x2="301.09375" y2="0" fill="rgb(0, 0, 0)" stroke="rgb(66, 66, 66)" stroke-width="1px" opacity="0.25"></line></g></g></g><g><g><line x1="0" y1="158.1818181818182" x2="301.09375" y2="158.1818181818182" fill="rgb(0, 0, 0)" stroke="rgb(153, 153, 153)" stroke-width="1.5px"></line></g></g><g><g><line x1="37.63671875" y1="0" x2="37.63671875" y2="174" fill="rgb(0, 0, 0)" stroke="rgb(153, 153, 153)" stroke-width="1.5px"></line></g></g><g><g><g><g><g><path stroke="rgb(255, 112, 67)" stroke-width="2px" d="M37.7722109375,19.477853081443094L37.990503906250005,61.10542666912079L38.1034140625,85.53978583896756L38.30665234375,91.7009667570897L38.41203515625,101.86886147407093L38.44214453125,103.53175604898078L38.60021875,117.00563091122302L38.871203125,123.90925278961177L38.931421875,128.54695706664353L39.473390625,133.5318477863358L39.58630078125,135.56865928184394L39.7594296875,135.36273099223607L40.5422734375,133.0791440931771L40.6627109375,132.88473034543233L40.76056640625,135.34272073343604L40.92616796874999,137.3784149195622L41.13693359375,140.27506414338453L41.212207031249996,141.15344776351267L41.25737109375,141.88124078589124L41.4756640625,142.93095500873108L41.64879296875,144.3105960552031L41.686429687499995,145.62829307688486L41.70148437500001,138.2755559237498L41.821921875,138.43087022567687L42.123015625,140.73454772918353L42.43163671875,141.74439964807465L42.47680078125,143.4069701994652L42.589710937499994,143.66152705857021L42.71767578125,145.30995163706226L43.387609375000004,146.49027223631455L43.470410156250004,147.4357603436936L43.688703125,144.49791975324L44.155398437500004,145.87767858079545L44.3059453125,147.4581007795182L45.27697265625,148.9891863750357L45.3597734375,148.2042492750676L45.44257421875,147.81863791572448L45.69850390625,146.5122768890583L45.999597656249996,148.39092177532686L46.10498046875,148.56124557290752L46.157671875,149.6936632520791L46.308218749999995,149.41943487780117L46.398546874999994,148.08175392427893L46.488875,148.42110664106275L46.54909375,148.7394351477442L46.805023437500004,148.5638375730036L47.060953125,148.28901612626424L47.076007812499995,148.38074428522577L47.17386328125,148.6033504884511L47.20397265625,149.09696786237035L47.99434375,148.8807523288256L48.302964843750004,149.74949674615888L48.604058593750004,150.15706609211577L48.6115859375,150.42314002500058L48.8825703125,148.98734050959092L49.0030078125,148.72427008459078L49.02558984375,148.9740638304842L49.289046875000004,148.02621255820443L49.31162890625,148.4542797454704L49.41701171875,148.7628267533866L49.88370703125,149.50355924909854L49.94392578125,150.4751534934483L50.2073828125,150.41723933237284L50.4482578125,149.12448270461363L50.51600390625,149.11821435622485L51.53972265625,148.26953892385595L51.93114453125,148.12663568650157L52.00641796875,148.9983944207642L52.239765625,149.79828228740448L52.39031249999999,150.2076427069979L52.397839843750006,150.57742362891787L53.2183203125,150.92640944092201L53.28606640625,149.20638830957412L53.361339843749995,150.11467122948906L53.444140624999996,150.98368278150352L54.26462109375,151.93546015622968L55.09262890625,152.1875679929854L55.39372265625,150.79630781540988L55.973328125,150.97060181586681L56.010964843749996,151.35290672604395L56.108820312499994,151.08938706596638L56.1690390625,151.40021680240164L56.19162109375,151.48155681593184L56.477660156249996,150.88859743819052L56.58304296875,151.4654508224398L57.03468359375,151.2369272064294L57.0422109375,151.77518234286734L57.200285156250004,150.55401979033203L57.411050781250005,150.87582861704425L57.471269531249995,151.0910487112949L57.53148828125,151.25409424149473L57.840109375,151.33519694928597L57.90785546875,150.36862458693275L58.020765625,149.43723147185293L58.088511718750006,149.87088251319153L58.359496093749996,150.66557805444592L58.367023437499995,151.18170433248375L58.472406250000006,150.91212417378114L58.60037109375,151.80831832378286L58.803609375,151.53693085235952L59.044484374999996,152.49100508177744L59.17244921875,151.50119700471333L60.01551171875,152.26092208669266L60.84351953125,152.9120926194313L60.851046875,152.21264368112602L61.00159375,152.21398446341695L61.00912109375,152.1363064176298L61.122031250000006,152.31251538120088L61.31021484375,151.8789137967858L61.71669140625,151.9533451820112L61.85218359375,151.90388058462827L62.032839843750004,151.70658763930473L62.21349609375,150.97302517865896L62.236078125,151.25846704424663L62.898484375,151.93504005475134L63.259796875,151.82880551589415L63.68885546875,151.80877905796967L63.85445703125001,152.4713029811713L63.91467578125,151.59923286139565L63.982421875,151.59957972650938L64.1781328125,151.93420877366572L64.4792265625,151.6985291792059L64.50180859375,152.52371689451903L64.73515625,149.78315682221807L64.85559375,150.01805975496927L65.14163281249999,150.14692075418438L65.16421484375,150.11037374465957L65.19432421875,150.68501195377775L65.247015625,151.08280759276767L65.26959765625,151.01541855413262L65.4126171875,151.2089218742544L65.57821875,152.37903504651158L65.94705859375,152.200936224187L66.1051328125,151.6333680633724L66.6019375,151.7080565892795L66.6169921875,151.38968922785483L67.0084140625,152.77486551512763L67.10626953124999,153.58881127498603L67.24176171875,153.4931302700707L67.55791015625,153.99302344201345L67.836421875,154.7100865101065L67.91922265625,154.74508609234042L68.378390625,153.6806231241043L68.56657421875,154.37447098226318L68.65690234375,154.3410487536087L68.679484375,154.597520489034L68.8450859375,154.79811545198106L69.10854296875,154.54019194507296L69.19134375,154.53126023373855L69.45480078125,154.89543348322152L69.68062109374999,154.82988427740239L70.1397890625,154.3508059096775L70.2150625,154.41788006715805L71.1635078125,154.62707616297828L71.77322265625,154.7903613293673L71.80333203125,155.3123260882202L71.991515625,155.47046084953294L72.352828125,155.24493567471202L72.63133984375,154.91161270876876L72.9399609375,154.9671765302212L72.955015625,155.07981572086433L73.0001796875,152.71825598417792L73.06792578125,153.31929891875106L73.2410546875,153.69965873158947L73.59483984375,153.8110270250747L74.00884375,154.08464300978187L74.03142578125001,154.43230784146786L74.038953125,154.59142900613048L74.09917187500001,155.1160089352879L74.38521093749999,155.00168869587878L74.5959765625,154.61841118477915L74.73899609375,153.76974723641138L74.88954296875,154.08673656579836L75.122890625,154.31545825902268L75.86809765625,154.45111032569415L75.93584374999999,154.33756292228483L75.95089843749999,154.38719162941544L76.267046875,154.47369483688001L76.29715625,154.1265507607914L76.41006640625,154.12581104778064L76.44017578125,154.08085173160973L76.68105078125,154.2440544007597L76.77890625,153.9501691992833L76.96708984375,154.28610165603212L77.0649453125,153.46849004385675L77.17785546875001,149.29769947286945L77.2456015625,151.09283921486764L77.49400390625,152.51924581150192L77.67466015625,152.90939018239743L77.6972421875,153.41714319544047L77.9983359375,154.13809784570992L78.05855468749999,153.41760338627006L78.30695703125,153.7603904692204L78.62310546875,154.02518341414813L78.69085156250001,154.34876396124986L79.10485546875,154.26105915011044L80.29417578125,153.38284698373178L80.7683984375,153.6432505194204L80.9791640625,153.3851717362752L81.15229296875,152.1280965964873L81.5361875,152.75411827439436L81.7921171875,150.7242747381698L81.88997265625001,152.18447969712497L82.469578125,151.43791646195245L82.65776171875001,151.91059126136557L82.77819921874999,152.30593308668594L82.86852734375,149.69733541308418L83.19973046874999,151.06118759246542L83.63631640625,151.97996649094634L83.8395546875,151.91887847641942L83.86966406250001,152.72391860520744L84.49443359375,151.95941230015046L84.62992578125001,150.8002780350322L84.90091015624999,145.28303610625602L85.299859375,142.8914479975105L85.3149140625,141.832749742845L85.49557031249999,144.86197243193996L85.50309765624999,147.30490253332655L85.540734375,146.03917305339326L85.57837109375001,146.19429339460808L86.77521875000001,146.2979072724771L86.9107109375,139.22339833403123L86.94834765625001,142.5695397739353L87.046203125,142.20494653274886L87.08383984375,135.6553886329006L87.20427734375001,137.99466154978265L87.2419140625,140.84277431859834L87.30966015624999,144.35254684341868L87.43009765625,145.9511598455809L87.86668359375,147.82420362768895L88.22046875,145.92099196213027L88.2957421875,142.12626905846213L88.4462890625,142.30769941139422L88.83771093749999,136.8271971129343L89.1388046875,142.50907456990055L89.1990234375,145.33994377162006L89.695828125,136.0393909462828L89.71841015625,141.4908941698829L89.8012109375,135.44716172456933L90.26037890625,140.07708282006985L90.298015625,135.25502844618953L90.3130703125,140.11804680154495L90.7346015625,139.52184583348767L91.20882421875,130.16527832292974L91.23140624999999,137.17556577822188L91.2765703125,135.66112199312278L91.562609375,135.76955596086333L91.88628515625,135.74450826766625L92.23254296875001,128.20997582421944L92.3906171875,135.68868992762606L92.646546875,139.08244117953842L92.8723671875,135.641079491617L92.98527734375,135.14254723075624L93.09066015625,129.88401794375048L93.61004687500001,129.07927561638124L93.8208125,133.60383885622622L93.850921875,140.5051026109818L93.86597656250001,135.81268078524198L93.9563046875,121.6131989862819L94.13696093749999,121.56788974116768L94.2272890625,127.74395084826281L94.332671875,121.18301010398945L94.41547265625,119.09998044260941L94.79183984375001,122.99970058190532L94.874640625,130.7275570996592L95.1305703125,120.91696680485057L95.175734375,119.47212967758142L95.296171875,125.17223645141578L95.80050390625,130.5771204654734L95.8230859375,122.57819597216067L96.018796875,123.67940101363864L96.3048359375,123.6195686983654L96.31236328125,117.42432869349544L96.50807421875,123.44578764959948L96.6360390625,118.0996264475977L96.76400390625001,114.30080555591991L97.06509765625,121.73160911140339L97.11026171875,115.66216466963967L97.32102734374999,121.16672319691155L97.7500859375,116.79526734987631L98.2017265625,118.26651237609012L98.4426015625,116.70281583407915L98.7738046875,115.99137361577064L98.93940625,106.49070731349426L99.48137500000001,108.61968571219876L99.57923046875,95.2589835714288L99.94054296875001,106.53756681952076L100.04592578124999,118.11336855379298L100.08356249999999,112.65778250215439L100.58789453125,110.87562958430046L100.69327734375,119.1672794690667L100.84382421874999,115.34874523867435L101.55139453125,112.49994786494534L101.980453125,107.11971128585618L102.02561718749999,103.36078523431556L102.09336328125,108.9583892709438L102.5073671875,110.61239271353949L102.81598828124999,105.90018676351633L102.84609765625001,112.76737079237937L103.0794453125,113.62580423645834L103.305265625,108.87007148050138L103.51603125,117.82282979965836L103.6966875,109.61935242982719L103.7117421875,105.7478807117138L104.05047265625001,118.90416770849191L104.12574609375,105.3077624312364L104.36662109375,107.09764575733138L104.4042578125,104.20197205841939L104.45694921875,106.53083571959864L104.75804296874999,102.33158749063591L104.78815234374999,100.93406600243263L105.26990234375,110.1364575534249L105.4279765625,113.52907792547092L105.63121484375,117.01041919860309L105.8193984375,121.8738457352485L106.29362109374999,117.98351197619994L106.52696875,104.15372125071686L106.978609375,108.2432193871988L107.279703125,106.05223717084355L107.57326953125,108.21337384727818L107.66359765624999,103.32462203189432L107.73134375000001,97.25057235659884L107.84425390625,102.5059123864602L107.97974609375001,94.89267089767425L108.08512890624999,100.0108566841401L108.182984375,96.4512322500082L108.22062109375,107.35325803161781L108.29589453125001,108.3987619832496L108.81528125,112.28843009422442L109.4325234375,102.90601208180323L109.50026953125001,115.48433055556443L109.64328906249999,119.62442953090391L110.43366015625,117.28160190674701L110.4411875,114.06340432655998L110.74228125,109.96810137001712L111.05090234375001,115.11011729589833L111.05842968750001,114.87198142434744L111.193921875,106.4846697408944L111.50254296875,107.10758262845L111.58534374999999,107.29501518861451L111.68319921875,110.03563090119363L111.7810546875,110.19687682687672L111.90901953125,94.2610836447877L112.1122578125,89.10555644380842L112.28538671875,94.81960739603136L112.518734375,99.78237487241107L112.52626171874999,100.06311090589071L112.5337890625,104.97794085730507L112.6090625,108.84293255041042L112.70691796875,102.84935517372327L112.75208203125,104.38314019760108L112.85746484375001,86.4023858733214L113.38437890624999,89.27086090770422L113.58761718749999,90.83805680979253L113.82096484375,101.64880328600981L113.9489296875,99.66710462216851L114.34787890624999,90.57682534265922L114.47584375,86.3990088020089L114.52853515625,95.20409985920271L114.93501171874999,99.38047944954596L115.0178125,95.16724568170157L115.4845078125,100.44893682066977L115.50708984375,96.41922726019304L115.5146171875,95.05639551749277L115.88345703125,88.22391164160587L116.25982421875,80.48170905244619L116.30498828124999,81.49201324108242L116.31251562499999,82.58741205592209L116.35767968750001,91.97526564286609L116.68135546875,90.69211222635131L116.8093203125,98.27893393959275L117.13299609375001,104.61636672181562L117.39645312500001,108.5642707062794L117.67496484374999,93.32647746283014L117.75023828125,98.18742619008377L117.76529296875,84.73871917646372L118.23198828125,91.11543847123802L118.30726171875001,95.72280594814919L118.359953125,105.5059517601404L118.71373828125,105.19343909877L119.2481796875,111.86050059027676L120.61062890625,102.35574994190132L120.648265625,103.30503321709391L120.708484375,102.28793806338511L120.84397656249999,105.13583249370956L121.1450703125,104.40829616661925L121.3257265625,105.54700476074038L121.370890625,104.68559572240547L121.37841796875,100.22778924191495L121.63434765624999,101.23851380712851L121.7171484375,96.47972719324595L122.033296875,88.73112158178341L122.0784609375,94.63980138853981L122.1386796875,96.92145669358088L122.9215234375,92.9181474397769L122.92905078125,95.65541309363242L123.4032734375,104.42950098769911L123.478546875,112.95222981389409L123.51618359375,99.0167575119715L123.77211328125,108.78338209188306L123.90760546874999,90.56233012099675L123.92266015625,99.6040470240418L124.39688281250001,102.05653050171756L124.7883046875,99.19665859227919L125.03670703125,94.91235665133921L125.67653125,101.9198766449173L125.977625,115.33703105064889L126.12817187499999,121.9035070183815L126.19591796875001,115.97925201043407L126.35399218750001,111.89706020617167L126.60239453125,95.9939061163233L126.81316015625,101.09594994101755L126.96370703125001,86.7833086633965L127.031453125,88.06287779280885L127.07661718749999,94.27159947079029L127.62611328125,90.91790134534926L127.754078125,95.61483741407102L128.16808203125,96.69493692498293L128.536921875,105.7951602064424L129.28212890625,113.74111211923787L129.31223828125,106.08228930717614L129.73376953125,114.31802132440967L130.00475390625002,111.64101915242836L130.2381015625,118.1199749141976L130.25315625,106.5219805095981L130.343484375,115.51842478404424L130.6295234375,97.25442964293187L130.9306171875,87.85455889216003L130.9607265625,100.1598708444402L130.97578125,104.0623523210895L131.13385546875,98.21781414839099L131.14138281249998,101.49468657266941L131.25429296875,94.52130979072523L131.34462109375,106.3542638754228L131.547859375,108.09153034410245L131.5629140625,111.73561226635361L131.57796875,96.17102129047625L132.13499218750002,92.4410583337007L132.48877734375,95.77663874278524L132.84256249999999,93.68512959271705L133.294203125,96.35749063973557L133.8512265625,91.76895203099154L133.91897265625,95.24797913429984L134.74698046875,96.72923259679638L134.77708984375,99.45531623807051L135.07065625,98.14120473737687L135.281421875,108.46517288307L135.31153125,98.26768498844241L135.46960546875002,95.173907224422L135.5674609375,99.27072311883286L135.67284375,88.9570205037682L135.8535,97.17823125922557L136.184703125,94.05454888237752L136.907328125,106.4581683143841L137.3740234375,89.95405900865L137.45682421875,99.91645775723522L137.7805,101.98908507789739L138.11923046875,93.99576778174598L138.412796875,92.80897293988832L138.63861718750002,98.19077207583929L138.91712890624999,102.73650019674203L139.4214609375,104.0053122468405L139.6322265625,94.95505034221162L139.69244531249998,98.9856888273751L140.18172265625,97.00044334375504L140.3247421875,97.4421979041967L140.339796875,101.4385051140612L140.36237890625,97.66215005302256L140.460234375,85.15075395032606L141.0323125,85.18175565804853L141.52911718750002,91.34991894617077L141.74741015625,88.21420850049277L141.88290234375,97.36818069902282L142.1915234375,107.9445710038919L142.387234375,112.57624435432155L142.80123828125,98.0599319458449L142.868984375,111.67831936925587L143.0646953125,109.00483035279908L143.3657890625,104.88167984245558L144.2088515625,108.5091735777756L144.35187109375,82.02206856788563L144.434671875,95.166379596209L144.5701640625,89.56776165526402L144.9615859375,89.69549819077913L145.01427734375,95.19013017237432L145.64657421875,103.17758884214419L145.6842109375,91.50796671998155L145.73690234375,94.92843099898L146.02294140625,88.21535813219161L146.06810546875,80.05412558071988L146.17348828125,85.43153180040282L146.241234375,97.6047725736721L146.75309375,98.6847686976512L147.04666015625,98.07956237312618L147.36280859375,102.03443642414759L147.70906640625,95.66999886010379L147.87466796875,92.7264731999512L148.62740234375,96.01285140210406L148.7403125,92.43243580158959L149.18442578125,92.66467364054405L149.42530078125,97.45378574546702L149.52315625,104.86975771783796L149.553265625,108.22852362317879L149.95221484375,103.84864879540606L149.98232421875,87.57175381498556L150.095234375,103.22963731651265L150.68989453125,100.52410307624794L151.03615234375,95.31855817170978L151.0436796875,92.74881087154283L151.0737890625,104.81739542837114L151.3748828125,101.0018727657507L151.480265625,84.61587873507852L151.5856484375,87.32171684259853L151.69855859375,95.63007359033361L151.87168749999998,91.02570411486023L151.93943359375,106.35175780716186L152.04481640625,99.71138933728452L152.9405703125,92.78411353595337L153.06100781249998,106.12574126429996L153.16639062500002,103.04458574771016L153.2717734375,92.84101456702322L153.33951953125,107.88175964859737L153.70083203125,104.14808266682178L153.82126953124998,99.26834289732317L153.86643359374997,101.96738257707798L153.97934375,106.21373159328272L154.0245078125,96.35042703857793L154.23527343749998,101.73491005670944L155.1385546875,100.45791073836581L155.3493203125,89.49094527752546L155.57514062500002,89.59514016872363L155.90634375000002,92.36192210838082L155.9816171875,98.06088218015634L156.18485546875,102.47845721794486L156.26765625000002,106.33679920439643L156.51605859375,107.92102719331433L156.57627734374998,101.67600616695185L156.719296875,101.9785905630473L156.80209765625,94.82894306324786L157.11824609375,96.29813335503854L157.47955859375,101.57277516225409L157.4870859375,99.72684112066231L158.31509375000002,101.20042776823925L158.64629687500002,103.32717872390408L158.95491796874998,99.79858720953999L159.46677734375,97.58640638872336L159.4743046875,80.92234529946494L159.85067187500002,90.62099322884555L159.87325390625,99.4452421997363L159.88830859375,84.6450575290925L159.93347265625,93.58302936275913L160.43027734375,86.99468081567572L160.6786796875,97.2289972343839L161.02493750000002,84.11542474804556L161.16795703124998,82.09257867084881L161.1905390625,93.02434327364854L161.28839453125,107.25253788328705L162.61320703125,108.970969068279L162.62826171875,108.14724241494977L162.70353515625,111.19124328374771L163.57670703124998,103.60928349715957L163.60681640625,92.07495484311332L164.35202343749998,85.64914046263067L164.5928984375,89.58039114902726L164.69828125,85.79438701235891L164.72086328125,96.86958361788233L164.90151953125002,101.85003592554008L165.20261328125,95.85334573107201L165.23272265625,89.20838680543122L165.61661718750003,99.64215027714522L165.722,89.26378779285184L166.0080390625,92.17683688261475L166.03062109375003,89.2515266429522L166.173640625,82.49330587280079L166.50484375000002,97.06508142407111L166.5500078125,97.03635989167964L166.55753515625,96.92672591855606L166.67797265625,92.27446539399585L166.76830078125,94.29071393835176L167.32532421875,86.3645691045327L167.34037890625,93.65650757253296L167.4833984375,98.50073890312227L167.58125390625003,103.67214139193884L167.65652734375,100.84095620176821L167.71674609375,109.94591832902103L168.5673359375,101.77046719475591L168.84584765625002,100.50842469828997L169.47814453125,93.52092253775726L169.83945703125,91.74920454443837L170.24593359374998,99.40357475011716L170.35884374999998,112.94198243933421L170.36637109375002,107.3576138909798L170.65241015625,95.64700546837695L170.78037500000002,98.85335714857433L170.84812109375,94.59898588421518L171.10405078124998,85.99851412935057L171.3825625,75.19130357232582L171.7288203125,80.2951512951178L172.17293359375,65.1274163094637L172.23315234375,66.05736738683012L172.26326171875,84.08555601545544L172.63962890624998,82.91768655754875L172.76759375,85.73726822753129L172.85792187500002,86.03597766486794L173.16654296875,85.20583963264545L173.18912500000002,82.76928673579734L173.39236328125,85.92357297503885L173.61065625,75.66217486717665L173.7913125,82.01902913572681L173.94938671875002,90.33228645906948L174.03971484375,89.43056371864792L174.09993359375,91.86140996414329L174.13004296875,90.50435870570323L174.16015234374998,97.29805707633831L174.68706640625,83.07123124204101L175.206453125,86.62128769680707L175.627984375,92.35955013176167L175.72583984374998,95.57356864037514L176.17748046875,90.7407801931806L176.26780859375,91.39813133501347L176.35813671875002,81.56603292587492L176.47104687499998,80.41112417502515L176.651703125,88.49817827601673L176.74955859375,76.21017970814155L176.8173046875,86.88685051523137L177.0581796875,89.55493832455299L177.76575,96.15714964925616L177.80338671874998,105.84379217963492L177.9012421875,91.23853602916103L177.98404296875,96.15235996463684L178.8346328125,107.47854043917584L178.84216015625,91.55954986303722L178.88732421875,89.26426309042975L178.90990624999998,84.8177896643941L179.00023437500002,95.20370863653264L179.11314453125001,94.6724463303238L179.8884609375,94.37544811851787L179.933625,90.43098755313974L180.58850390625,89.24883744931994L180.92723437499998,99.52546274444437L180.94981640625002,106.16660972161225L181.40145703125,104.82055723935608L181.47673046875,90.34313782289499L181.50683984375002,93.5148118423243L181.5143671875,93.42868791577499L182.22946484375,92.49621664184338L182.7488515625,88.25125753970475L183.05747265625,88.4875975635956L183.43383984375,96.01876295946084L183.49405859375,98.94206263518467L183.60696875,106.08243312665414L183.7123515625,109.95680488484258L183.81773437500001,101.63614982404964L184.2242109375,106.89319718882454L184.4048671875,102.02456216760933L184.42744921874998,101.8901587379158L184.7661796875,96.07220805652567L185.30062109375,95.90584357795059L185.42105859375,100.0409429476404L185.57913281249998,102.6935853463042L185.63182421874998,84.67480006281845L186.39961328125003,76.49827436918964L186.41466796875002,79.16333489822499L186.98674609375,72.55842120066485L187.13729296875,87.86145020006309L187.39322265625,100.17623686642015L187.51366015624998,105.4613722662255L187.59646093749998,107.46386046356164L188.04057421875,108.0641159635285L188.04810156250002,113.00649984878027L188.07821093750002,109.48680540118376L188.17606640625,96.5121852734584L188.28897656249998,104.31030360334506L188.74814453124998,103.45304026289814L189.1922578125,95.34742400154438L190.52459765625,93.63709462781094L190.68267187499998,94.19745350756038L190.9084921875,93.66512276565796L191.14936718750002,101.6429759871924L191.21711328125,101.19697817418577L191.36013281249998,87.91898317054705L191.495625,96.11621270617235L191.89457421875002,99.22616622580412L192.04512109375,94.60007126064005L192.21072265625,102.34741622981156L192.3838515625,84.50165621288471L192.51181640625,95.01625064412377L192.5343984375,88.02014560991842L192.55698046875,95.2976127399301L192.8354921875,91.00004754535854L193.0462578125,93.69527458212455L193.18175,88.70900899587896L193.19680468750002,92.01164677284365L193.90437500000002,98.35614253605726L194.10761328125,100.56582176944264L194.30332421875002,90.51364758603525L194.4915078125,97.64194298707372L194.51408984374999,81.99939849710039L195.31198828125,97.7505804094896L195.34209765625,87.91264200928796L195.4550078125,92.24130439322259L195.4700625,98.79384227837852L195.50769921875002,95.90373789543621L195.55286328125,97.50544200594958L195.65071875,97.25895111388137L195.7109375,102.51078426127425L195.981921875,88.91341777938752L196.102359375,84.26807533138428L196.68196484375,84.39908798974632L196.84756640625,81.95343854907463L196.95294921874998,89.98666995206553L197.01316796875003,84.553145118101L197.05833203125002,94.29347620785124L197.25404296874999,98.48536866912993L197.28415234374998,87.70407367950529L197.46480859375,86.11573231722242L197.547609375,100.94769278957553L197.72073828125,100.7387669334277L197.81106640625,111.04811704995474L198.05194140625,100.5605700521386L198.6466015625,103.68281345365199L198.86489453125,105.09507896075208L199.21115234375,97.29507120374397L200.09185156249998,86.57641360930913L200.10690624999998,93.37501733492473L200.17465234375,108.1629943473216L200.20476171875,95.56363842191391L200.21228906250002,82.07333205522355L200.26498046875,93.08234802061527L200.38541796875,89.4414338409447L200.799421875,89.61931833318677L200.8144765625,101.23673394355443L201.130625,107.46800203397378L201.2360078125,105.11710321470801L201.823140625,101.581196377067L201.87583203125,89.54435787001904L202.07154296874998,89.30244143626702L203.71250390625002,90.32553463742829L203.89316015625,85.91290719575375L204.0963984375,101.26303665851115L204.262,99.68784074954561L204.3372734375,99.67987462753386L204.45771093750002,100.08249411453856L204.96204296875,96.92740989174116L205.29324609375,93.12881466090806L205.36851953125,84.97143472744195L205.38357421875,96.45779231063068L205.436265625,100.12238707086549L205.54917578125,106.91003018799272L206.0836171875,102.08969650052425L206.098671875,101.08948675892935L206.37718359374998,95.09491613622365L206.73849609375,96.69401480624592L207.10733593749998,87.11671267236616L207.24282812500002,82.7332786132741L207.50628515625,88.94313369614605L207.784796875,104.72081456327977L208.09341796875,102.66233312606268L208.5224765625,102.49926664976316L208.928953125,106.05784410781665L209.109609375,91.89145917243147L209.11713671874998,98.12729575201068L210.17096484375,98.84562897985964L210.374203125,102.79622475632952L210.63766015624998,99.49390545954391L210.68282421875,106.79116846549019L210.71293359375002,105.18658670495996L211.16457421875,83.35074555213968L211.2022109375,77.66200723035385L211.30006640625,98.16580744635827L211.4731953125,91.24160014746917L211.5635234375,101.60432641871498L212.7377890625,108.90590806269915L213.0087734375,113.14683291592762L213.174375,110.46409524682662L213.2496484375,101.5562658750136L213.6109609375,104.12226877252792L213.82172656249998,110.36695050870607L213.82925390625,101.17155524840547L214.529296875,92.5607473483175L214.8153359375,102.2296687382752L215.19923046875002,112.10190935460673L215.21428515625,106.93838464932408L215.48526953125,93.02857266387312L215.62076171875,89.82778830296921L215.64334374999999,81.5639005707819L216.17025781249998,88.05673342552133L216.91546484375,86.23659857276884L217.73594531249998,94.61602542714742L217.93165625,97.69560659207059L218.4886796875,102.08074416195734L218.8198828125,101.17099817245072L218.865046875,100.78670006022537L219.20377734375,99.50556532214041L219.948984375,88.81406698897183L220.58880859375,83.04871487239366L220.972703125,92.40717496211586L221.1383046875,102.31139352055453L221.23616015624998,91.88424045359692L221.56736328124998,87.33442042072883L221.82329296875,90.41747368021606L221.85340234375,92.08983804696352L221.98136718749998,88.09919483285006L221.99642187499998,93.56504576587105L222.85453906249998,96.55011206812082L223.080359375,107.37486791253664L223.26854296874998,102.84345866769354L223.59221875,83.54089433541503L223.6976015625,101.22287443361321L223.9986953125,91.2542006026062L224.45033593749997,97.86795897892323L224.52560937500002,98.87836353113612L224.60841015625002,101.9911651142261L224.63851953125,97.12985382733584L224.87939453125,97.61137482081556L224.9320859375,93.18028796483264L225.09016015625,96.94618372291926L225.3536171875,78.14256669709717L225.5041640625,96.07541262124126L225.51921875,96.45513077711821L225.64718359375001,97.12067945517919L225.75256640625,95.44448929098303L226.21926171875,83.97020285332071L226.23431640625,89.65515064057576L226.663375,94.04287592900099L226.7386484375,83.42381335369853L227.13007031249998,88.17394958614936L227.22792578125,85.95722470580226L227.69462109375002,91.73613480919357L227.87527734374999,102.3401015661691L228.8161953125,104.36665736484461L229.162453125,100.13778800494414L229.33558203125,101.79003926081894L230.427046875,101.22642383336903L230.70555859375003,103.4277297577851L230.79588671875,94.3415255846626L230.99159765625,89.85478554705332L231.11203515625002,88.20318113020066L231.12708984375,94.58461181074979L231.18730859375,98.16194692376345L231.20236328125,95.12759837581568L231.51851171874998,89.48175277049562L231.9475703125,96.12743367232378L232.06048046875,104.75929703075911L232.0680078125,107.22738273325372L232.46695703125,104.12430042852644L232.64761328125,101.30051432042042L232.72288671875,96.68370256308853L232.81321484375002,93.47278711596702L233.2723828125,107.71681521773087L233.7691875,93.18191213978267L233.83693359375,101.81681232848076L234.07780859375,105.71282687684699L234.14555468749998,106.2257078885538L234.2057734375,103.54969043511983L234.26599218750002,101.87082830817438L234.49933984375,106.58016473448293L234.51439453125,107.03761471745979L234.72516015625,113.05139667110753L235.10905468750002,103.44813144721132L235.32734765625,98.62977575914043L235.34240234375,87.70372650201524L235.5305859375,89.78674465143109L235.62844140625,86.43737500741139L235.64349609375,88.44373545005897L235.7112421875,91.33538099337966L236.18546484375003,93.25387760850671L236.51666796875,101.72493057109101L236.55430468749998,108.64988566920381L237.04358203125,107.8179473705386L237.4876953125,108.47831262079283L237.76620703125,97.93941798546177L237.80384374999997,100.17534956613503L237.84148046875,93.84532807852601L238.08988281249998,103.22992937372136L238.21032031250002,105.68083397186133L238.47377734375,101.66006411422366L238.54905078124997,96.91896802425376L238.56410546874997,104.26371090446814L238.59421484375002,111.75758182416394L238.62432421875002,105.74836527949591L238.86519921874998,104.26429729033937L239.01574609375,106.6722702937038L239.4749140625,105.80353850193364L239.48244140625002,90.7049862811473L239.48996875,98.66535153694899L240.2276484375,96.96345760268919L240.6491796875,105.67875265873154L240.9803828125,106.41726141288254L241.09329296875,110.32665524930201L241.2363125,100.7525028264278L241.31911328125003,105.35817393082539L241.65784374999998,100.00316226948377L241.80086328125,95.20871724278268L241.928828125,101.37368913861616L242.13206640625,98.56739491988179L243.19342187499998,97.58015174782194L243.63753515624998,99.75685356436811L243.84830078125,102.1680094795688L244.20208593750002,102.02292245285028L244.22466796875,99.47803720681203L244.2924140625,91.75274254697649L244.79674609375,98.2170469695866L244.91718359375,83.58856235894257L244.96234765625002,100.37182934526942L245.58711718749998,102.06121822372772L245.61722656249998,102.45306782610453L245.77530078125,100.362141116944L246.18177734375,108.90940414717835L246.7312734375,86.29831305382547L246.83665625,87.42526936943794L247.08505859375,95.6865646777208L247.14527734375,102.03747360984958L247.17538671875,92.66059254076549L247.60444531250002,84.79803014187983L247.61950000000002,63.13548929706417L247.77757421875,82.93181861929851L248.19910546875,89.8545305102632L248.44750781250002,94.30799342212472L248.74107421875,95.94579696394712L249.17013281250001,79.04486701115412L249.93039453125002,76.73238535006962L250.0734140625,87.96282050613998L251.13476953125002,95.94532638335707L251.31542578124998,99.50749434394689L251.804703125,99.12937510826022L251.864921875,101.2861043913777L251.99288671875001,104.52678228800822L252.01546875,93.5902676274769L252.27892578125002,105.65145389272038L252.42194531250001,103.1816470624999L252.80583984375,104.24492533869068L252.91122265625,96.22521437652098L253.03166015624998,96.84771534091725L253.129515625,100.42578951616257L254.364,92.61008311244079L254.3790546875,84.55041033693578L254.8306953125,98.02118301898389L255.04146093749998,94.40406844703264L255.718921875,101.30719638660113L255.7339765625,88.051206225016L255.80925000000002,78.11515605950578L256.35874609374997,90.2180948786012L256.82544140625004,86.87428028503757L256.8781328125,102.2271568766056L257.13406249999997,97.63491636134822L257.87926953125,108.2427040955121L258.2631640625,100.77162232413964L258.55673046875,99.51406148486022L258.58683984375,96.41968084982283L258.970734375,111.55982592849497L259.17397265625,117.21216240071938L259.4073203125,121.01661292421846L259.44495703125,100.63385930754286L259.6180859375,66.61544069272442L259.73099609375,80.89517730736938L259.85143359375,83.52865769695492L260.18263671875,92.0734112395719L260.596640625,95.83941904779255L260.717078125,75.32590668463477L260.98053515624997,85.17470362603744L261.02569921875,85.6988974999411L261.11602734375003,84.92571469708601L261.3042109375,93.47278588154508L261.75585156249997,89.67194632862076L261.831125,93.92870400489173L261.88381640625,98.07368987882614L262.01178125,106.00493965957885L262.18491015625,105.93147888322179L262.312875,100.06428505720578L262.5085859375,83.17384162120425L262.8096796875,85.7653844141399L263.17851953125,75.56706863759749L263.2613203125,84.49734791154575L263.44950390624996,80.0779884297111L263.87103515625,87.69422939052929L263.96136328125,75.38298844691745L264.05921875,92.05359407412081L264.9625,107.32547857415557L265.28617578125,105.71379589957034L265.3689765625,105.63303356557672L265.38403124999996,99.66463622238714L265.41414062499996,99.31100013941594L265.71523437499997,100.79726034185602L265.96363671875,97.73320534424045L266.08407421875,97.45651639404983L266.22709375,101.51299524195302L266.61098828125,99.4816633304468L266.64109765625,87.5426176951453L266.76153515625,94.42889030536399L267.4465234375,80.69811759719212L268.0186015625,90.49546107900063L268.04118359375,98.04149710361042L268.0788203125,93.62389960910119L268.08634765625,94.19619368058856L268.6508984375,91.07828083903496L268.74875390625,108.84589782193571L268.85413671875,104.21639113165463L269.11006640625,111.68666423554464L269.12512109375,97.94856584784532" style="fill: none;" fill="none"></path></g></g></g></g><g opacity="0.2"><g><g><g><path stroke="rgb(255, 112, 67)" stroke-width="2px" d="M37.7722109375,19.477853081443094L37.990503906250005,86.0819708217274L38.1034140625,108.9967706420205L38.30665234375,98.94651551680131L38.41203515625,115.14406481656161L38.44214453125,105.83213788812809L38.60021875,136.2734875462272L38.871203125,133.97479976307264L38.931421875,135.38667004758662L39.473390625,140.93382954597473L39.58630078125,138.60540279475126L39.7594296875,135.0549592104825L40.5422734375,129.66122005202553L40.6627109375,132.59349060058594L40.76056640625,139.02681704000992L40.92616796874999,140.43052046949214L41.13693359375,144.6188122142445L41.212207031249996,142.47080017219892L41.25737109375,142.9728194475174L41.4756640625,144.50543039495295L41.64879296875,146.37998196211728L41.686429687499995,147.60479525002566L41.70148437500001,127.246595361016L41.821921875,138.66383983872154L42.123015625,144.19004761088976L42.43163671875,143.25917321985418L42.47680078125,145.90082177248868L42.589710937499994,144.04336195642298L42.71767578125,147.78258698636836L43.387609375000004,148.26075248284775L43.470410156250004,148.853992191228L43.688703125,140.09115945209155L44.155398437500004,147.94731665741315L44.3059453125,149.82873396439987L45.27697265625,151.28581470251083L45.3597734375,147.0268436453559L45.44257421875,147.24022088267586L45.69850390625,144.55273536118594L45.999597656249996,151.20888909426603L46.10498046875,148.81673126870936L46.157671875,151.3922897685658L46.308218749999995,149.0080923167142L46.398546874999994,146.0752324949611L46.488875,148.93013571609148L46.54909375,149.21692790768364L46.805023437500004,148.30044121092016L47.060953125,147.8767839561809L47.076007812499995,148.5183365236629L47.17386328125,148.93725979328156L47.20397265625,149.8373939232393L47.99434375,148.55642902851105L48.302964843750004,151.0526133721525L48.604058593750004,150.76842011104932L48.6115859375,150.82225092432716L48.8825703125,146.83364123647863L49.0030078125,148.32966444709083L49.02558984375,149.3487544493242L49.289046875000004,146.60443564978513L49.31162890625,149.09638052636927L49.41701171875,149.22564726526087L49.88370703125,150.61465799266642L49.94392578125,151.93254485997286L50.2073828125,150.3303680907596L50.4482578125,147.18534776297483L50.51600390625,149.10881183364174L51.53972265625,146.99652577530256L51.93114453125,147.91228083047L52.00641796875,150.3060325221582L52.239765625,150.99811408736488L52.39031249999999,150.82168333638796L52.397839843750006,151.13209501179782L53.2183203125,151.44988815892825L53.28606640625,146.6263566125523L53.361339843749995,151.47709560936147L53.444140624999996,152.28720010952514L54.26462109375,153.36312621831894L55.09262890625,152.56572974811903L55.39372265625,148.7094175490466L55.973328125,151.23204281655225L56.010964843749996,151.92636409130964L56.108820312499994,150.69410757585007L56.1690390625,151.86646140705457L56.19162109375,151.6035668362271L56.477660156249996,149.99915837157855L56.58304296875,152.33073089881378L57.03468359375,150.8941417824138L57.0422109375,152.58256504752418L57.200285156250004,148.7222759615291L57.411050781250005,151.35854185711256L57.471269531249995,151.41387885267085L57.53148828125,151.49866253679448L57.840109375,151.4568510109728L57.90785546875,148.91876604340294L58.020765625,148.04014179923317L58.088511718750006,150.52135907519946L58.359496093749996,151.85762136632746L58.367023437499995,151.9558937495405L58.472406250000006,150.5077539357272L58.60037109375,153.15260954878548L58.803609375,151.12984964522448L59.044484374999996,153.92211642590436L59.17244921875,150.01648488911715L60.01551171875,153.40050970966166L60.84351953125,153.88884841853923L60.851046875,151.1634702736681L61.00159375,152.2159956368533L61.00912109375,152.0197893489491L61.122031250000006,152.5768288265575L61.31021484375,151.22851142016324L61.71669140625,152.06499225984922L61.85218359375,151.8296836885539L62.032839843750004,151.41064822131938L62.21349609375,149.8726814876903L62.236078125,151.68662984262815L62.898484375,152.94989957050842L63.259796875,151.6694537076083L63.68885546875,151.778739371083L63.85445703125001,153.46508886597374L63.91467578125,150.29112768173218L63.982421875,151.60010002418L64.1781328125,152.43615234440023L64.4792265625,151.34500978751618L64.50180859375,153.7614984674887L64.73515625,145.67231671376663L64.85559375,150.37041415409607L65.14163281249999,150.34021225300702L65.16421484375,150.05555323037234L65.19432421875,151.546969267455L65.247015625,151.67950105125254L65.26959765625,150.91433499618012L65.4126171875,151.49917685443705L65.57821875,154.1342048048973L65.94705859375,151.9337879907001L66.1051328125,150.7820158221505L66.6019375,151.82008937814018L66.6169921875,150.91213818571785L67.0084140625,154.85262994603676L67.10626953124999,154.8097299147736L67.24176171875,153.34960876269776L67.55791015625,154.7428631999276L67.836421875,155.7856811122461L67.91922265625,154.7975854656913L68.378390625,152.08392867175016L68.56657421875,155.41524276950142L68.65690234375,154.29091541062704L68.679484375,154.98222809217194L68.8450859375,155.09900789640167L69.10854296875,154.15330668471077L69.19134375,154.51786266673693L69.45480078125,155.44169335744598L69.68062109374999,154.7315604686737L70.1397890625,153.63218835809013L70.2150625,154.51849130337888L71.1635078125,154.9408703067086L71.77322265625,155.03528907895088L71.80333203125,156.09527322649956L71.991515625,155.70766299150208L72.352828125,154.90664791248062L72.63133984375,154.4116282598539L72.9399609375,155.05052226239985L72.955015625,155.248774506829L73.0001796875,149.1759163791483L73.06792578125,154.22086332061073L73.2410546875,154.2701984508471L73.59483984375,153.97807946530256L74.00884375,154.49506698684257L74.03142578125001,154.9538050889969L74.038953125,154.83011075312442L74.09917187500001,155.90287882902405L74.38521093749999,154.8302083367651L74.5959765625,154.04349491812965L74.73899609375,152.49675131385976L74.88954296875,154.56222055987877L75.122890625,154.65854079885918L75.86809765625,154.65458842570132L75.93584374999999,154.16724181717092L75.95089843749999,154.46163469011134L76.267046875,154.60344964807683L76.29715625,153.60583464665848L76.41006640625,154.12470147826454L76.44017578125,154.01341275735336L76.68105078125,154.48885840448466L76.77890625,153.5093413970687L76.96708984375,154.79000034115532L77.0649453125,152.24207262559372L77.17785546875001,143.0415136163885L77.2456015625,153.78554882786491L77.49400390625,154.65885570645332L77.67466015625,153.49460673874074L77.6972421875,154.178772715005L77.9983359375,155.21952982111412L78.05855468749999,152.33686169711027L78.30695703125,154.27457109364596L78.62310546875,154.4223728315397L78.69085156250001,154.8341347819025L79.10485546875,154.1295019334013L80.29417578125,152.06552873416382L80.7683984375,154.0338558229533L80.9791640625,152.99805356155744L81.15229296875,150.24248388680545L81.5361875,153.6931507912549L81.7921171875,147.67950943383303L81.88997265625001,154.3747871355577L82.469578125,150.31807160919362L82.65776171875001,152.61960346048528L82.77819921874999,152.89894582466644L82.86852734375,145.78443890268153L83.19973046874999,153.10696586153725L83.63631640625,153.35813483866778L83.8395546875,151.82724645462903L83.86966406250001,153.93147879838943L84.49443359375,150.812652842565L84.62992578125001,149.06157663735476L84.90091015624999,137.00717321309176L85.299859375,139.30406583439222L85.3149140625,140.2447023608468L85.49557031249999,149.40580646558243L85.50309765624999,150.96929768540642L85.540734375,144.14057883349332L85.57837109375001,146.42697390643033L86.77521875000001,146.45332808928055L86.9107109375,128.61163492636246L86.94834765625001,147.58875193379143L87.046203125,141.6580566709692L87.08383984375,125.83105178312822L87.20427734375001,141.50357092510572L87.2419140625,145.11494347182187L87.30966015624999,149.61720563064924L87.43009765625,148.34907934882423L87.86668359375,150.63376930085096L88.22046875,143.06617446379227L88.2957421875,136.43418470295993L88.4462890625,142.5798449407924L88.83771093749999,128.60644366524437L89.1388046875,151.03189075534993L89.1990234375,149.58624757419935L89.695828125,122.08856170827694L89.71841015625,149.66814900528303L89.8012109375,126.381563056599L90.26037890625,147.02196446332064L90.298015625,128.02194688536903L90.3130703125,147.4125743345781L90.7346015625,138.62754438140175L91.20882421875,116.13042705709286L91.23140624999999,147.69099696116012L91.2765703125,133.3894563154741L91.562609375,135.93220691247421L91.88628515625,135.7069367278706L92.23254296875001,116.9081771590493L92.3906171875,146.90676108273593L92.646546875,144.17306805740705L92.8723671875,130.47903695973483L92.98527734375,134.39474883946505L93.09066015625,121.99622401324186L93.61004687500001,127.87216212532738L93.8208125,140.3906837159937L93.850921875,150.85699824311516L93.86597656250001,128.77404804663223L93.9563046875,100.3139762878418L94.13696093749999,121.49992587349632L94.2272890625,137.0080425089056L94.332671875,111.34159898757935L94.41547265625,115.97543595053932L94.79183984375001,128.84928079084915L94.874640625,142.31934187629005L95.1305703125,106.20108136263761L95.175734375,117.30487398667769L95.296171875,133.72239661216736L95.80050390625,138.68444648655978L95.8230859375,110.57980923219161L96.018796875,125.3312085758556L96.3048359375,123.52982022545555L96.31236328125,108.13146868619052L96.50807421875,132.4779760837555L96.6360390625,110.08038464459506L96.76400390625001,108.6025742184032L97.06509765625,132.87781444462863L97.11026171875,106.55799800699405L97.32102734374999,129.42356098781934L97.7500859375,110.2380835793235L98.2017265625,120.4733799154108L98.4426015625,114.35727102106266L98.7738046875,114.92421028830788L98.93940625,92.23970786007968L99.48137500000001,111.81315331025557L99.57923046875,75.21793036027388L99.94054296875001,123.4554416916587L100.04592578124999,135.4770711552013L100.08356249999999,104.47440342469649L100.58789453125,108.20240020751953L100.69327734375,131.6047542962161L100.84382421874999,109.62094389308582L101.55139453125,108.2267518043518L101.980453125,99.04935641722246L102.02561718749999,97.72239615700462L102.09336328125,117.35479532588612L102.5073671875,113.09339787743309L102.81598828124999,98.83187783848156L102.84609765625001,123.06814683567394L103.0794453125,114.91345440257679L103.305265625,101.73647234656593L103.51603125,131.25196727839383L103.6966875,97.31413637508045L103.7117421875,99.94067313454369L104.05047265625001,138.63859820365906L104.12574609375,84.91315451535311L104.36662109375,109.78247074647383L104.4042578125,99.85846151005138L104.45694921875,110.02413121136752L104.75804296874999,96.03271514719181L104.78815234374999,98.83778377012773L105.26990234375,123.94004487991333L105.4279765625,118.61800848353992L105.63121484375,122.23243110830136L105.8193984375,129.16898554021662L106.29362109374999,112.14801133762707L106.52696875,83.40903516249223L106.978609375,114.37746659192172L107.279703125,102.7657638463107L107.57326953125,111.45507886193016L107.66359765624999,95.99149430881847L107.73134375000001,88.13949784365568L107.84425390625,110.38892243125221L107.97974609375001,83.4728086644953L108.08512890624999,107.68813536383888L108.182984375,91.11179559881039L108.22062109375,123.70629670403221L108.29589453125001,109.96701791069725L108.81528125,118.12293226068668L109.4325234375,88.83238506317139L109.50026953125001,134.3518082662062L109.64328906249999,125.83457799391313L110.43366015625,113.7673604705117L110.4411875,109.23610795627941L110.74228125,103.82514693520287L111.05090234375001,122.82314118472013L111.05842968750001,114.51477761702104L111.193921875,93.90370221571489L111.50254296875,108.04195195978336L111.58534374999999,107.57616402886131L111.68319921875,114.14655447006226L111.7810546875,110.43874571540138L111.90901953125,70.35739387165415L112.1122578125,81.37226564233954L112.28538671875,103.39068382436581L112.518734375,107.22652608698063L112.52626171874999,100.4842149561102L112.5337890625,112.3501857844266L112.6090625,114.64042009006847L112.70691796875,93.85898910869251L112.75208203125,106.68381773341785L112.85746484375001,59.431254386901855L113.38437890624999,93.57357345927845L113.58761718749999,93.18885066292503L113.82096484375,117.8649230003357L113.9489296875,96.69455662640658L114.34787890624999,76.94140642339532L114.47584375,80.13228399103339L114.52853515625,108.41173644499345L114.93501171874999,105.6450488350608L115.0178125,88.84739502993497L115.4845078125,108.37147352912208L115.50708984375,90.37466291947798L115.5146171875,93.01214790344238L115.88345703125,77.97518582777543L116.25982421875,68.86840516870673L116.30498828124999,83.00746952403676L116.31251562499999,84.2305102781816L116.35767968750001,106.05704602328214L116.68135546875,88.76738210157914L116.8093203125,109.65916650945492L117.13299609375001,114.12251589514992L117.39645312500001,114.48612668297508L117.67496484374999,70.46978759765625L117.75023828125,105.47884928096424L117.76529296875,64.5656586560336L118.23198828125,100.68051741339943L118.30726171875001,102.63385716351596L118.359953125,120.18067047812721L118.71373828125,104.72467010671444L119.2481796875,121.86109282753685L120.61062890625,88.09862396933815L120.648265625,104.72895812988281L120.708484375,100.76229533282194L120.84397656249999,109.4076741391962L121.1450703125,103.31699167598377L121.3257265625,107.25506765192203L121.370890625,103.39348216490312L121.37841796875,93.5410795211792L121.63434765624999,102.75460065494885L121.7171484375,89.3415472724221L122.033296875,77.10821316458961L122.0784609375,103.50282109867443L122.1386796875,100.34393965114246L122.9215234375,86.91318355907094L122.92905078125,99.76131157441573L123.4032734375,117.59063282879916L123.478546875,125.73632305318661L123.51618359375,78.11354905908759L123.77211328125,123.43331896175037L123.90760546874999,63.2307521646673L123.92266015625,113.16662237860939L124.39688281250001,105.7352557182312L124.7883046875,94.90685072812167L125.03670703125,88.4859037399292L125.67653125,112.43115663528442L125.977625,135.46276265924627L126.12817187499999,131.75322096998042L126.19591796875001,107.09286949851295L126.35399218750001,105.77377249977806L126.60239453125,72.13917498155074L126.81316015625,108.74901567805897L126.96370703125001,65.31434674696489L127.031453125,89.98223148692738L127.07661718749999,103.58468198776245L127.62611328125,85.88735415718773L127.754078125,102.66024151715365L128.16808203125,98.31508619135074L128.536921875,119.44549512863159L129.28212890625,125.66003998843107L129.31223828125,94.59405508908358L129.73376953125,126.67161935025997L130.00475390625002,107.62551589445634L130.2381015625,127.83840855685148L130.25315625,89.12498890269886L130.343484375,129.01309119571337L130.6295234375,69.85843693126333L130.9306171875,73.7547527660023L130.9607265625,118.61783877286044L130.97578125,109.91607453606346L131.13385546875,89.45100688934326L131.14138281249998,106.40999520908703L131.25429296875,84.06124461780894L131.34462109375,124.10369500246915L131.547859375,110.69743004712191L131.5629140625,117.20173514973034L131.57796875,72.82413482666016L132.13499218750002,86.84611389853737L132.48877734375,100.78000935641202L132.84256249999999,90.54786586761475L133.294203125,100.36603221026334L133.8512265625,84.88614411787553L133.91897265625,100.46651978926225L134.74698046875,98.95111279054122L134.77708984375,103.54444169998169L135.07065625,96.17003748633644L135.281421875,123.95112510160966L135.31153125,82.97145314650102L135.46960546875002,90.53324057839134L135.5674609375,105.41594696044922L135.67284375,73.4864665811712L135.8535,109.51004739241166L136.184703125,89.36902531710538L136.907328125,125.06359746239403L137.3740234375,65.19789505004883L137.45682421875,114.86005588011308L137.7805,105.09802605889061L138.11923046875,82.00579183751886L138.412796875,91.02878067710182L138.63861718750002,106.26347077976574L138.91712890624999,109.55509237809615L139.4214609375,105.9085303219882L139.6322265625,81.37965748526832L139.69244531249998,105.03164655512028L140.18172265625,94.02257511832497L140.3247421875,98.10482974485917L140.339796875,107.432965928858L140.36237890625,91.99761746146461L140.460234375,66.3836597962813L141.0323125,85.22825821963224L141.52911718750002,100.60216387835416L141.74741015625,83.51064283197577L141.88290234375,111.09913899681786L142.1915234375,123.80915646119551L142.387234375,119.52375437996605L142.80123828125,76.28546333312988L142.868984375,132.10590050437233L143.0646953125,104.9945968281139L143.3657890625,98.69695407694034L144.2088515625,113.95041418075562L144.35187109375,42.29141105305064L144.434671875,114.88284613869408L144.5701640625,81.16983474384654L144.9615859375,89.88710299405184L145.01427734375,103.43207814476708L145.64657421875,115.15877684679899L145.6842109375,74.0035335367376L145.73690234375,100.0591274174777L146.02294140625,78.14574883200905L146.06810546875,67.8122767535123L146.17348828125,93.4976411299272L146.241234375,115.86463373357601L146.75309375,100.30476288361983L147.04666015625,97.17175288633867L147.36280859375,107.9667475006797L147.70906640625,86.12334251403809L147.87466796875,88.31118470972233L148.62740234375,100.94241870533337L148.7403125,87.06181240081787L149.18442578125,93.01303039897572L149.42530078125,104.63745390285145L149.52315625,115.99371567639437L149.553265625,113.26667248119007L149.95221484375,97.27883655374698L149.98232421875,63.1564113443548L150.095234375,126.71646256880327L150.68989453125,96.46580171585083L151.03615234375,87.51024081490257L151.0436796875,88.8941899212924L151.0737890625,122.92027226361361L151.3748828125,95.27858877182007L151.480265625,60.03688768907027L151.5856484375,91.3804740038785L151.69855859375,108.09260871193626L151.87168749999998,84.11914990165016L151.93943359375,129.34083834561434L152.04481640625,89.75083663246849L152.9405703125,82.39319983395663L153.06100781249998,126.13818285681984L153.16639062500002,98.42285247282548L153.2717734375,77.53565779599276L153.33951953125,130.44287727095863L153.70083203125,98.54756719415836L153.82126953124998,91.94873324307528L153.86643359374997,106.0159420967102L153.97934375,112.58325511758976L154.0245078125,81.55547020652077L154.23527343749998,109.8116345839067L155.1385546875,98.54241176085038L155.3493203125,73.04049708626488L155.57514062500002,89.75143250552091L155.90634375000002,96.51209501786666L155.9816171875,106.6093222878196L156.18485546875,109.10481977462769L156.26765625000002,112.12431218407372L156.51605859375,110.29736917669125L156.57627734374998,92.30847462740812L156.719296875,102.43246715719052L156.80209765625,84.10447181354868L157.11824609375,98.50191879272461L157.47955859375,109.48473787307739L157.4870859375,96.9579400582747L158.31509375000002,103.4108077396046L158.64629687500002,106.51730515740135L158.95491796874998,94.50569993799381L159.46677734375,94.26813515749845L159.4743046875,55.92625366557729L159.85067187500002,105.16896512291649L159.87325390625,112.68161565607242L159.88830859375,62.444780523126774L159.93347265625,106.98998711325905L160.43027734375,77.1121579950506L160.6786796875,112.58047186244617L161.02493750000002,64.44506601853804L161.16795703124998,79.05830955505371L161.1905390625,109.42199017784813L161.28839453125,128.59482979774475L162.61320703125,111.54861584576693L162.62826171875,106.91165243495594L162.70353515625,115.75724458694458L163.57670703124998,92.23634381727739L163.60681640625,74.7734618620439L164.35202343749998,76.01041889190674L164.5928984375,95.47726717862216L164.69828125,80.1153808073564L164.72086328125,113.48237852616744L164.90151953125002,109.3207143870267L165.20261328125,86.85831043936989L165.23272265625,79.24094841696999L165.61661718750003,115.29279548471622L165.722,73.69624406641181L166.0080390625,96.54641051725908L166.03062109375003,84.86356128345835L166.173640625,72.35597471757369L166.50484375000002,118.92274475097656L166.5500078125,96.99327759309249L166.55753515625,96.76227495887062L166.67797265625,85.29607460715553L166.76830078125,97.31508675488558L167.32532421875,74.47535185380416L167.34037890625,104.59441527453336L167.4833984375,105.76708589900623L167.58125390625003,111.42924512516369L167.65652734375,96.59417841651222L167.71674609375,123.60336151990023L168.5673359375,89.50729049335827L168.84584765625002,98.61536095359108L169.47814453125,83.03966929695824L169.83945703125,89.09162755446L170.24593359374998,110.88513005863537L170.35884374999998,133.2495939731598L170.36637109375002,98.98106106844816L170.65241015625,78.08109283447266L170.78037500000002,103.6628846688704L170.84812109375,88.21742898767643L171.10405078124998,73.09780649705367L171.3825625,58.98048773678865L171.7288203125,87.95092287930575L172.17293359375,42.375813830982565L172.23315234375,67.45229400287974L172.26326171875,111.12783895839344L172.63962890624998,81.1658823706887L172.76759375,89.96664073250511L172.85792187500002,86.4840418208729L173.16654296875,83.96063258431175L173.18912500000002,79.11445739052513L173.39236328125,90.65500233390114L173.61065625,60.2700777053833L173.7913125,91.55431053855202L173.94938671875002,102.80217244408348L174.03971484375,88.07797960801558L174.09993359375,95.50767933238636L174.13004296875,88.4687818180431L174.16015234374998,107.48860463229093L174.68706640625,61.730992490595035L175.206453125,91.94637237895618L175.627984375,100.96694378419356L175.72583984374998,100.39459640329532L176.17748046875,83.49159752238882L176.26780859375,92.38415804776278L176.35813671875002,66.81788531216708L176.47104687499998,78.67876104875045L176.651703125,100.62875942750411L176.74955859375,57.77818185632879L176.8173046875,102.90185672586612L177.0581796875,93.55707003853539L177.76575,106.06046663631092L177.80338671874998,120.37375597520308L177.9012421875,69.33065180345015L177.98404296875,103.52309586785057L178.8346328125,124.46781115098433L178.84216015625,67.68106399882925L178.88732421875,85.82133293151855L178.90990624999998,78.14807952534068L179.00023437500002,110.78258709474044L179.11314453125001,93.87555287101051L179.8884609375,93.929950800809L179.933625,84.51429670507257L180.58850390625,87.4756122935902L180.92723437499998,114.94040068713102L180.94981640625002,116.12833018736406L181.40145703125,102.8014785159718L181.47673046875,68.62700869820335L181.50683984375002,98.27232287146828L181.5143671875,93.29950202595104L182.22946484375,91.09750973094593L182.7488515625,81.88381888649681L183.05747265625,88.8421075994318L183.43383984375,107.3155110532587L183.49405859375,103.32701214877042L183.60696875,116.79298886385831L183.7123515625,115.76836252212524L183.81773437500001,89.15516723286022L184.2242109375,114.7787682359869L184.4048671875,94.72160963578658L184.42744921874998,101.68855359337547L184.7661796875,87.34528203444047L185.30062109375,95.656296860088L185.42105859375,106.24359200217506L185.57913281249998,106.67254894429989L185.63182421874998,57.64662213758989L186.39961328125003,64.23348582874644L186.41466796875002,83.16092569177802L186.98674609375,62.65105065432463L187.13729296875,110.81599369916049L187.39322265625,118.6484168659557L187.51366015624998,113.38907536593351L187.59646093749998,110.46759275956587L188.04057421875,108.96449921347877L188.04810156250002,120.42007567665794L188.07821093750002,104.20726372978905L188.17606640625,77.05025508187035L188.28897656249998,116.00748109817505L188.74814453124998,102.16714525222778L189.1922578125,83.18899960951371L190.52459765625,91.07160056721081L190.68267187499998,95.03799182718448L190.9084921875,92.86662665280429L191.14936718750002,113.60975581949405L191.21711328125,100.52798145467587L191.36013281249998,68.00199066508901L191.495625,108.41205700961027L191.89457421875002,103.8910965052518L192.04512109375,87.66092881289396L192.21072265625,113.96843368356876L192.3838515625,57.73301618749445L192.51181640625,110.78814229098234L192.5343984375,77.5259880586104L192.55698046875,106.21381343494762L192.8354921875,84.5536997535012L193.0462578125,97.7381151372736L193.18175,81.22961061651056L193.19680468750002,96.96560343829069L193.90437500000002,107.87288618087769L194.10761328125,103.88034061952071L194.30332421875002,75.43538631092417L194.4915078125,108.33438608863136L194.51408984374999,58.535581762140446L195.31198828125,121.3773532780734L195.34209765625,73.1557344089855L195.4550078125,98.73429796912453L195.4700625,108.62264910611239L195.50769921875002,91.56858132102272L195.55286328125,99.90799817171964L195.65071875,96.88921477577904L195.7109375,110.38853398236361L195.981921875,68.51736805655739L196.102359375,77.30006165937944L196.68196484375,84.59560697728936L196.84756640625,78.28496438806708L196.95294921874998,102.03651705655184L197.01316796875003,76.40285786715421L197.05833203125002,108.90397284247658L197.25404296874999,104.77320736104794L197.28415234374998,71.53213119506836L197.46480859375,83.73322027379815L197.547609375,123.19563349810514L197.72073828125,100.42537814920597L197.81106640625,126.51214222474532L198.05194140625,84.82924955541436L198.6466015625,108.36617855592208L198.86489453125,107.21347722140226L199.21115234375,85.59505956823175L200.09185156249998,70.49842721765692L200.10690624999998,103.57292292334816L200.17465234375,130.34495986591688L200.20476171875,76.66460453380239L200.21228906250002,61.83787250518799L200.26498046875,109.59587196870284L200.38541796875,83.98006257143888L200.799421875,89.88614507154985L200.8144765625,118.66285735910587L201.130625,116.81490416960283L201.2360078125,101.59075498580933L201.823140625,96.27733612060547L201.87583203125,71.48910010944712L202.07154296874998,88.939566785639L203.71250390625002,91.86017443917015L203.89316015625,79.29396603324196L204.0963984375,124.28823085264726L204.262,97.3250468860973L204.3372734375,99.66792544451627L204.45771093750002,100.68642334504561L204.96204296875,92.19478355754505L205.29324609375,87.43092181465843L205.36851953125,72.73536482724276L205.38357421875,113.6873286854137L205.436265625,105.61927921121769L205.54917578125,117.09149486368351L206.0836171875,94.85919596932152L206.098671875,99.5891721465371L206.37718359374998,86.10306020216508L206.73849609375,99.0926628112793L207.10733593749998,72.75075947154653L207.24282812500002,76.158127524636L207.50628515625,98.25791632045399L207.784796875,128.38733586398038L208.09341796875,99.57461097023705L208.5224765625,102.25466693531384L208.928953125,111.39571029489689L209.109609375,70.6418817693537L209.11713671874998,107.48105062137951L210.17096484375,99.92312882163307L210.374203125,108.72211842103438L210.63766015624998,94.54042651436546L210.68282421875,117.73706297440962L210.71293359375002,102.7797140641646L211.16457421875,50.59698382290926L211.2022109375,69.1288997476751L211.30006640625,128.92150777036494L211.4731953125,80.85528919913551L211.5635234375,117.14841582558373L212.7377890625,119.85828052867542L213.0087734375,119.50822019577026L213.174375,106.43998874317516L213.2496484375,88.19452181729403L213.6109609375,107.9712731187994L213.82172656249998,119.7339731129733L213.82925390625,87.37846235795455L214.529296875,79.64453549818559L214.8153359375,116.73305082321167L215.19923046875002,126.91027027910404L215.21428515625,99.19309759140015L215.48526953125,72.16385468569669L215.62076171875,85.02661176161332L215.64334374999999,69.16806897250089L216.17025781249998,97.7959827076305L216.91546484375,83.50639629364014L217.73594531249998,107.18516570871525L217.93165625,102.31497833945534L218.4886796875,108.65845051678744L218.8198828125,99.8063791881908L218.865046875,100.21025289188732L219.20377734375,97.58386321501298L219.948984375,72.77681948921898L220.58880859375,74.40068669752641L220.972703125,106.4448650966991L221.1383046875,117.16772135821256L221.23616015624998,76.2435108531605L221.56736328124998,80.50969037142667L221.82329296875,95.0420535694469L221.85340234375,94.59838459708473L221.98136718749998,82.11323001167992L221.99642187499998,101.7638221654025L222.85453906249998,101.02771152149548L223.080359375,123.61200167916039L223.26854296874998,96.04634480042891L223.59221875,54.58704783699729L223.6976015625,127.74584458091041L223.9986953125,76.30118985609575L224.45033593749997,107.78859654339877L224.52560937500002,100.39397035945545L224.60841015625002,106.66036748886108L224.63851953125,89.8378868970004L224.87939453125,98.33365631103516L224.9320859375,86.53365768085825L225.09016015625,102.59502736004916L225.3536171875,49.937141158364035L225.5041640625,122.97468150745739L225.51921875,97.02470801093361L225.64718359375001,98.11900247227062L225.75256640625,92.93020404468884L226.21926171875,66.75877319682729L226.23431640625,98.1825723214583L226.663375,100.62446386163883L226.7386484375,67.49521949074486L227.13007031249998,95.29915393482555L227.22792578125,82.63213738528165L227.69462109375002,100.40449996428056L227.87527734374999,118.24605170163241L228.8161953125,107.4064910628579L229.162453125,93.79448396509342L229.33558203125,104.26841614463112L230.427046875,100.38100069219418L230.70555859375003,106.72968864440918L230.79588671875,80.71221932497892L230.99159765625,83.12467549063942L231.11203515625002,85.72577450492165L231.12708984375,104.15675783157349L231.18730859375,103.52794959328392L231.20236328125,90.57607555389404L231.51851171874998,81.01298436251554L231.9475703125,106.09595502506603L232.06048046875,117.7070920684121L232.0680078125,110.92951128699562L232.46695703125,99.46967697143555L232.64761328125,97.06483515826139L232.72288671875,89.75848492709073L232.81321484375002,88.65641394528475L233.2723828125,129.0828573703766L233.7691875,71.37955752286044L233.83693359375,114.76916261152788L234.07780859375,111.55684869939633L234.14555468749998,106.99502940611406L234.2057734375,99.53566425496884L234.26599218750002,99.35253511775623L234.49933984375,113.64416937394576L234.51439453125,107.72378969192505L234.72516015625,122.07206960157914L235.10905468750002,89.04323361136696L235.32734765625,91.40224222703414L235.34240234375,71.31465261632745L235.5305859375,92.91127187555485L235.62844140625,81.41332054138184L235.64349609375,91.45327611403032L235.7112421875,95.67284930836071L236.18546484375003,96.13162253119728L236.51666796875,114.43151001496749L236.55430468749998,119.03731831637296L237.04358203125,106.57003992254086L237.4876953125,109.4688604961742L237.76620703125,82.13107603246515L237.80384374999997,103.52924693714489L237.84148046875,84.35029584711249L238.08988281249998,117.30683131651445L238.21032031250002,109.35719086907127L238.47377734375,95.6289093277671L238.54905078124997,89.80732388929887L238.56410546874997,115.28082522478971L238.59421484375002,122.9983882037076L238.62432421875002,96.7345404624939L238.86519921874998,102.03819530660458L239.01574609375,110.28422979875045L239.4749140625,104.50044081427833L239.48244140625002,68.05715794996782L239.48996875,110.60589942065153L240.2276484375,94.41061670129947L240.6491796875,118.75169524279508L240.9803828125,107.525024544109L241.09329296875,116.19074600393124L241.2363125,86.39127419211647L241.31911328125003,112.26668058742176L241.65784374999998,91.97064477747135L241.80086328125,88.01704970273104L241.928828125,110.62114698236637L242.13206640625,94.35795359178023L243.19342187499998,96.09928698973222L243.63753515624998,103.02190628918734L243.84830078125,105.78474335236983L244.20208593750002,101.80529191277245L244.22466796875,95.66070933775468L244.2924140625,80.16480055722323L244.79674609375,107.91350360350175L244.91718359375,61.64583544297652L244.96234765625002,125.54672982475975L245.58711718749998,104.59530154141513L245.61722656249998,103.04084222966976L245.77530078125,97.22575105320324L246.18177734375,121.73029869252987L246.7312734375,52.381676413796164L246.83665625,89.11570384285668L247.08505859375,108.07850764014503L247.14527734375,111.56383700804277L247.17538671875,78.59527093713935L247.60444531250002,73.00418654355136L247.61950000000002,30.641678029840637L247.77757421875,112.62631260265003L248.19910546875,100.2385983467102L248.44750781250002,100.98818778991699L248.74107421875,98.40250227668068L249.17013281250001,53.693472081964664L249.93039453125002,73.26366285844283L250.0734140625,104.80847324024548L251.13476953125002,107.9190851991827L251.31542578124998,104.85074628483166L251.804703125,98.56219625473022L251.864921875,104.52119831605391L251.99288671875001,109.38779913295399L252.01546875,77.18549563667992L252.27892578125002,123.74323329058561L252.42194531250001,99.47693681716919L252.80583984375,105.83984275297685L252.91122265625,84.19564793326637L253.03166015624998,97.78146678751163L253.129515625,105.79290077903053L254.364,80.88652350685814L254.3790546875,72.46090117367831L254.8306953125,118.227342042056L255.04146093749998,88.9783965891058L255.718921875,111.66188829595394L255.7339765625,68.16722098263827L255.80925000000002,63.21108081124046L256.35874609374997,108.3725031072443L256.82544140625004,81.85855839469215L256.8781328125,125.25647176395763L257.13406249999997,90.74655558846214L257.87926953125,124.15438569675793L258.2631640625,89.56499966708097L258.55673046875,97.62772022594105L258.58683984375,91.77810989726673L258.970734375,134.27004354650325L259.17397265625,125.69066710905595L259.4073203125,126.72328870946713L259.44495703125,70.05972888252953L259.6180859375,15.587812770496724L259.73099609375,102.31478222933683L259.85143359375,87.47887828133324L260.18263671875,104.89054155349731L260.596640625,101.48843076012352L260.717078125,44.55563813989813L260.98053515624997,99.94789903814144L261.02569921875,86.48518831079657L261.11602734375003,83.76594049280341L261.3042109375,106.29339265823364L261.75585156249997,83.97068699923429L261.831125,100.31384051929821L261.88381640625,104.29116868972778L262.01178125,117.9018143307079L262.18491015625,105.8212877186862L262.312875,91.2634943181818L262.5085859375,57.838176467201926L262.8096796875,89.65269860354337L263.17851953125,60.26959497278387L263.2613203125,97.89276682246815L263.44950390624996,73.44894920695913L263.87103515625,99.11859083175659L263.96136328125,56.91612703149969L264.05921875,117.05950251492587L264.9625,130.23330532420763L265.28617578125,103.29627188769254L265.3689765625,105.5118900645863L265.38403124999996,90.71204020760277L265.41414062499996,98.78054601495914L265.71523437499997,103.02665064551613L265.96363671875,93.13712284781715L266.08407421875,97.04148296876387L266.22709375,107.59771351380782L266.61098828125,96.43466546318749L266.64109765625,69.63404924219306L266.76153515625,104.75829922069202L267.4465234375,60.101958534934305L268.0186015625,105.19147630171342L268.04118359375,109.36055114052513L268.0788203125,86.99750336733732L268.08634765625,95.0546347878196L268.6508984375,86.40141157670455L268.74875390625,135.49732329628685L268.85413671875,97.27213109623303L269.11006640625,122.89207389137962L269.12512109375,77.34141826629639" style="fill: none;" fill="none"></path></g></g></g></g></g></g><g transform="translate(28, 174)" clip-path="url(#clip_1)"><clipPath id="clip_1"><rect width="301" height="26"></rect></clipPath><g><g><line x1="0" y1="0" x2="0" y2="5" style="visibility: inherit;" fill="rgb(0, 0, 0)" stroke="rgb(204, 204, 204)" stroke-width="1px"></line><line x1="37.63671875" y1="0" x2="37.63671875" y2="5" style="visibility: inherit;" fill="rgb(0, 0, 0)" stroke="rgb(204, 204, 204)" stroke-width="1px"></line><line x1="75.2734375" y1="0" x2="75.2734375" y2="5" style="visibility: inherit;" fill="rgb(0, 0, 0)" stroke="rgb(204, 204, 204)" stroke-width="1px"></line><line x1="112.91015625" y1="0" x2="112.91015625" y2="5" style="visibility: inherit;" fill="rgb(0, 0, 0)" stroke="rgb(204, 204, 204)" stroke-width="1px"></line><line x1="150.546875" y1="0" x2="150.546875" y2="5" style="visibility: inherit;" fill="rgb(0, 0, 0)" stroke="rgb(204, 204, 204)" stroke-width="1px"></line><line x1="188.18359375" y1="0" x2="188.18359375" y2="5" style="visibility: inherit;" fill="rgb(0, 0, 0)" stroke="rgb(204, 204, 204)" stroke-width="1px"></line><line x1="225.8203125" y1="0" x2="225.8203125" y2="5" style="visibility: inherit;" fill="rgb(0, 0, 0)" stroke="rgb(204, 204, 204)" stroke-width="1px"></line><line x1="263.45703125" y1="0" x2="263.45703125" y2="5" style="visibility: inherit;" fill="rgb(0, 0, 0)" stroke="rgb(204, 204, 204)" stroke-width="1px"></line><line x1="301.09375" y1="0" x2="301.09375" y2="5" style="visibility: inherit;" fill="rgb(0, 0, 0)" stroke="rgb(204, 204, 204)" stroke-width="1px"></line></g><g transform="translate(0, 8)"><text x="0" y="0" dx="0em" dy="0.95em" style="text-anchor: middle; visibility: hidden; font-family: Roboto, sans-serif; font-size: 12px; font-weight: 200;" fill="rgb(33, 33, 33)" stroke="none" stroke-width="1px">-5k</text><text x="37.63671875" y="0" dx="0em" dy="0.95em" style="text-anchor: middle; visibility: inherit; font-family: Roboto, sans-serif; font-size: 12px; font-weight: 200;" fill="rgb(33, 33, 33)" stroke="none" stroke-width="1px">0</text><text x="75.2734375" y="0" dx="0em" dy="0.95em" style="text-anchor: middle; visibility: inherit; font-family: Roboto, sans-serif; font-size: 12px; font-weight: 200;" fill="rgb(33, 33, 33)" stroke="none" stroke-width="1px">5k</text><text x="112.91015625" y="0" dx="0em" dy="0.95em" style="text-anchor: middle; visibility: inherit; font-family: Roboto, sans-serif; font-size: 12px; font-weight: 200;" fill="rgb(33, 33, 33)" stroke="none" stroke-width="1px">10k</text><text x="150.546875" y="0" dx="0em" dy="0.95em" style="text-anchor: middle; visibility: inherit; font-family: Roboto, sans-serif; font-size: 12px; font-weight: 200;" fill="rgb(33, 33, 33)" stroke="none" stroke-width="1px">15k</text><text x="188.18359375" y="0" dx="0em" dy="0.95em" style="text-anchor: middle; visibility: inherit; font-family: Roboto, sans-serif; font-size: 12px; font-weight: 200;" fill="rgb(33, 33, 33)" stroke="none" stroke-width="1px">20k</text><text x="225.8203125" y="0" dx="0em" dy="0.95em" style="text-anchor: middle; visibility: inherit; font-family: Roboto, sans-serif; font-size: 12px; font-weight: 200;" fill="rgb(33, 33, 33)" stroke="none" stroke-width="1px">25k</text><text x="263.45703125" y="0" dx="0em" dy="0.95em" style="text-anchor: middle; visibility: inherit; font-family: Roboto, sans-serif; font-size: 12px; font-weight: 200;" fill="rgb(33, 33, 33)" stroke="none" stroke-width="1px">30k</text><text x="301.09375" y="0" dx="0em" dy="0.95em" style="text-anchor: middle; visibility: hidden; font-family: Roboto, sans-serif; font-size: 12px; font-weight: 200;" fill="rgb(33, 33, 33)" stroke="none" stroke-width="1px">35k</text></g><line x1="0" y1="0" x2="301.09375" y2="0" fill="rgb(0, 0, 0)" stroke="rgb(204, 204, 204)" stroke-width="1px"></line></g></g></g></g></svg>