<svg viewBox="0 0 330 200" xmlns="http://www.w3.org/2000/svg"><g><g><g><g><g><line x1="28.90625" y1="174" x2="23.90625" y2="174" style="visibility: inherit;" fill="rgb(0, 0, 0)" stroke="rgb(204, 204, 204)" stroke-width="1px"></line><line x1="28.90625" y1="156.6" x2="23.90625" y2="156.6" style="visibility: inherit;" fill="rgb(0, 0, 0)" stroke="rgb(204, 204, 204)" stroke-width="1px"></line><line x1="28.90625" y1="139.20000000000002" x2="23.90625" y2="139.20000000000002" style="visibility: inherit;" fill="rgb(0, 0, 0)" stroke="rgb(204, 204, 204)" stroke-width="1px"></line><line x1="28.90625" y1="121.8" x2="23.90625" y2="121.8" style="visibility: inherit;" fill="rgb(0, 0, 0)" stroke="rgb(204, 204, 204)" stroke-width="1px"></line><line x1="28.90625" y1="104.39999999999999" x2="23.90625" y2="104.39999999999999" style="visibility: inherit;" fill="rgb(0, 0, 0)" stroke="rgb(204, 204, 204)" stroke-width="1px"></line><line x1="28.90625" y1="87" x2="23.90625" y2="87" style="visibility: inherit;" fill="rgb(0, 0, 0)" stroke="rgb(204, 204, 204)" stroke-width="1px"></line><line x1="28.90625" y1="69.60000000000001" x2="23.90625" y2="69.60000000000001" style="visibility: inherit;" fill="rgb(0, 0, 0)" stroke="rgb(204, 204, 204)" stroke-width="1px"></line><line x1="28.90625" y1="52.20000000000001" x2="23.90625" y2="52.20000000000001" style="visibility: inherit;" fill="rgb(0, 0, 0)" stroke="rgb(204, 204, 204)" stroke-width="1px"></line><line x1="28.90625" y1="34.79999999999999" x2="23.90625" y2="34.79999999999999" style="visibility: inherit;" fill="rgb(0, 0, 0)" stroke="rgb(204, 204, 204)" stroke-width="1px"></line><line x1="28.90625" y1="17.399999999999995" x2="23.90625" y2="17.399999999999995" style="visibility: inherit;" fill="rgb(0, 0, 0)" stroke="rgb(204, 204, 204)" stroke-width="1px"></line><line x1="28.90625" y1="0" x2="23.90625" y2="0" style="visibility: inherit;" fill="rgb(0, 0, 0)" stroke="rgb(204, 204, 204)" stroke-width="1px"></line></g><g transform="translate(18.90625, 0)"><text x="0" y="174" dx="0em" dy="0.3em" style="text-anchor: end; visibility: hidden; font-family: Roboto, sans-serif; font-size: 12px; font-weight: 200;" fill="rgb(33, 33, 33)" stroke="none" stroke-width="1px">-2</text><text x="0" y="156.6" dx="0em" dy="0.3em" style="text-anchor: end; visibility: inherit; font-family: Roboto, sans-serif; font-size: 12px; font-weight: 200;" fill="rgb(33, 33, 33)" stroke="none" stroke-width="1px">-1</text><text x="0" y="139.20000000000002" dx="0em" dy="0.3em" style="text-anchor: end; visibility: hidden; font-family: Roboto, sans-serif; font-size: 12px; font-weight: 200;" fill="rgb(33, 33, 33)" stroke="none" stroke-width="1px">0</text><text x="0" y="121.8" dx="0em" dy="0.3em" style="text-anchor: end; visibility: inherit; font-family: Roboto, sans-serif; font-size: 12px; font-weight: 200;" fill="rgb(33, 33, 33)" stroke="none" stroke-width="1px">1</text><text x="0" y="104.39999999999999" dx="0em" dy="0.3em" style="text-anchor: end; visibility: hidden; font-family: Roboto, sans-serif; font-size: 12px; font-weight: 200;" fill="rgb(33, 33, 33)" stroke="none" stroke-width="1px">2</text><text x="0" y="87" dx="0em" dy="0.3em" style="text-anchor: end; visibility: inherit; font-family: Roboto, sans-serif; font-size: 12px; font-weight: 200;" fill="rgb(33, 33, 33)" stroke="none" stroke-width="1px">3</text><text x="0" y="69.60000000000001" dx="0em" dy="0.3em" style="text-anchor: end; visibility: hidden; font-family: Roboto, sans-serif; font-size: 12px; font-weight: 200;" fill="rgb(33, 33, 33)" stroke="none" stroke-width="1px">4</text><text x="0" y="52.20000000000001" dx="0em" dy="0.3em" style="text-anchor: end; visibility: inherit; font-family: Roboto, sans-serif; font-size: 12px; font-weight: 200;" fill="rgb(33, 33, 33)" stroke="none" stroke-width="1px">5</text><text x="0" y="34.79999999999999" dx="0em" dy="0.3em" style="text-anchor: end; visibility: hidden; font-family: Roboto, sans-serif; font-size: 12px; font-weight: 200;" fill="rgb(33, 33, 33)" stroke="none" stroke-width="1px">6</text><text x="0" y="17.399999999999995" dx="0em" dy="0.3em" style="text-anchor: end; visibility: inherit; font-family: Roboto, sans-serif; font-size: 12px; font-weight: 200;" fill="rgb(33, 33, 33)" stroke="none" stroke-width="1px">7</text><text x="0" y="0" dx="0em" dy="0.3em" style="text-anchor: end; visibility: hidden; font-family: Roboto, sans-serif; font-size: 12px; font-weight: 200;" fill="rgb(33, 33, 33)" stroke="none" stroke-width="1px">8</text></g><line x1="28.90625" y1="0" x2="28.90625" y2="174" fill="rgb(0, 0, 0)" stroke="rgb(204, 204, 204)" stroke-width="1px"></line></g></g><g transform="translate(28, 0)" clip-path="url(#clip_0)"><clipPath id="clip_0"><rect width="301" height="174"></rect></clipPath><g><g><g><line x1="0" y1="0" x2="0" y2="174" fill="rgb(0, 0, 0)" stroke="rgb(66, 66, 66)" stroke-width="1px" opacity="0.25"></line><line x1="25.091145833333332" y1="0" x2="25.091145833333332" y2="174" fill="rgb(0, 0, 0)" stroke="rgb(66, 66, 66)" stroke-width="1px" opacity="0.25"></line><line x1="50.182291666666664" y1="0" x2="50.182291666666664" y2="174" fill="rgb(0, 0, 0)" stroke="rgb(66, 66, 66)" stroke-width="1px" opacity="0.25"></line><line x1="75.2734375" y1="0" x2="75.2734375" y2="174" fill="rgb(0, 0, 0)" stroke="rgb(66, 66, 66)" stroke-width="1px" opacity="0.25"></line><line x1="100.36458333333333" y1="0" x2="100.36458333333333" y2="174" fill="rgb(0, 0, 0)" stroke="rgb(66, 66, 66)" stroke-width="1px" opacity="0.25"></line><line x1="125.45572916666667" y1="0" x2="125.45572916666667" y2="174" fill="rgb(0, 0, 0)" stroke="rgb(66, 66, 66)" stroke-width="1px" opacity="0.25"></line><line x1="150.546875" y1="0" x2="150.546875" y2="174" fill="rgb(0, 0, 0)" stroke="rgb(66, 66, 66)" stroke-width="1px" opacity="0.25"></line><line x1="175.63802083333334" y1="0" x2="175.63802083333334" y2="174" fill="rgb(0, 0, 0)" stroke="rgb(66, 66, 66)" stroke-width="1px" opacity="0.25"></line><line x1="200.72916666666666" y1="0" x2="200.72916666666666" y2="174" fill="rgb(0, 0, 0)" stroke="rgb(66, 66, 66)" stroke-width="1px" opacity="0.25"></line><line x1="225.8203125" y1="0" x2="225.8203125" y2="174" fill="rgb(0, 0, 0)" stroke="rgb(66, 66, 66)" stroke-width="1px" opacity="0.25"></line><line x1="250.91145833333334" y1="0" x2="250.91145833333334" y2="174" fill="rgb(0, 0, 0)" stroke="rgb(66, 66, 66)" stroke-width="1px" opacity="0.25"></line><line x1="276.00260416666663" y1="0" x2="276.00260416666663" y2="174" fill="rgb(0, 0, 0)" stroke="rgb(66, 66, 66)" stroke-width="1px" opacity="0.25"></line><line x1="301.09375" y1="0" x2="301.09375" y2="174" fill="rgb(0, 0, 0)" stroke="rgb(66, 66, 66)" stroke-width="1px" opacity="0.25"></line></g><g><line x1="0" y1="174" x2="301.09375" y2="174" fill="rgb(0, 0, 0)" stroke="rgb(66, 66, 66)" stroke-width="1px" opacity="0.25"></line><line x1="0" y1="156.6" x2="301.09375" y2="156.6" fill="rgb(0, 0, 0)" stroke="rgb(66, 66, 66)" stroke-width="1px" opacity="0.25"></line><line x1="0" y1="139.20000000000002" x2="301.09375" y2="139.20000000000002" fill="rgb(0, 0, 0)" stroke="rgb(66, 66, 66)" stroke-width="1px" opacity="0.25"></line><line x1="0" y1="121.8" x2="301.09375" y2="121.8" fill="rgb(0, 0, 0)" stroke="rgb(66, 66, 66)" stroke-width="1px" opacity="0.25"></line><line x1="0" y1="104.39999999999999" x2="301.09375" y2="104.39999999999999" fill="rgb(0, 0, 0)" stroke="rgb(66, 66, 66)" stroke-width="1px" opacity="0.25"></line><line x1="0" y1="87" x2="301.09375" y2="87" fill="rgb(0, 0, 0)" stroke="rgb(66, 66, 66)" stroke-width="1px" opacity="0.25"></line><line x1="0" y1="69.60000000000001" x2="301.09375" y2="69.60000000000001" fill="rgb(0, 0, 0)" stroke="rgb(66, 66, 66)" stroke-width="1px" opacity="0.25"></line><line x1="0" y1="52.20000000000001" x2="301.09375" y2="52.20000000000001" fill="rgb(0, 0, 0)" stroke="rgb(66, 66, 66)" stroke-width="1px" opacity="0.25"></line><line x1="0" y1="34.79999999999999" x2="301.09375" y2="34.79999999999999" fill="rgb(0, 0, 0)" stroke="rgb(66, 66, 66)" stroke-width="1px" opacity="0.25"></line><line x1="0" y1="17.399999999999995" x2="301.09375" y2="17.399999999999995" fill="rgb(0, 0, 0)" stroke="rgb(66, 66, 66)" stroke-width="1px" opacity="0.25"></line><line x1="0" y1="0" x2="301.09375" y2="0" fill="rgb(0, 0, 0)" stroke="rgb(66, 66, 66)" stroke-width="1px" opacity="0.25"></line></g></g></g><g><g><line x1="0" y1="139.20000000000002" x2="301.09375" y2="139.20000000000002" fill="rgb(0, 0, 0)" stroke="rgb(153, 153, 153)" stroke-width="1.5px"></line></g></g><g><g><line x1="25.091145833333332" y1="0" x2="25.091145833333332" y2="174" fill="rgb(0, 0, 0)" stroke="rgb(153, 153, 153)" stroke-width="1.5px"></line></g></g><g><g><g><g><g><path stroke="rgb(255, 112, 67)" stroke-width="2px" d="M32.86940104166666,-46.95475730895995L33.1203125,25.774609565734863L33.37122395833334,-38.565511894226084L33.622135416666666,4.433749580383297L33.873046875,4.767519950866699L34.123958333333334,-84.1277229309082L34.37486979166667,34.043831062316904L34.62578125,-57.58137931823732L34.87669270833333,-38.69366683959962L35.127604166666664,6.931866645812988L35.378515625,-11.264393234252946L35.62942708333333,15.555269050598136L35.88033854166667,10.352540016174316L36.13125,37.77985553741454L36.382161458333336,-32.64692058563234L36.63307291666667,-24.918213272094743L36.883984375,3.148814964294426L37.13489583333333,48.49580268859862L37.385807291666666,51.59885158538818L37.63671875,45.80448246002197L37.887630208333334,27.04412841796875L38.13854166666667,29.398326301574702L38.389453125,30.678216361999507L38.64036458333333,34.094956970214845L38.89127604166667,-10.507759666442855L39.1421875,53.18679141998291L39.39309895833333,-35.34678668975831L39.64401041666666,47.80350379943847L39.894921875,61.005670166015626L40.145833333333336,73.61653661727905L40.39674479166666,38.852006149292L40.647656250000004,60.328745555877695L40.89856770833333,60.68346576690673L41.149479166666666,81.96004915237427L41.400390625,43.18342094421386L41.651302083333334,74.5773585319519L41.90221354166666,65.09247379302978L42.153125,45.22704677581786L42.40403645833334,52.230483055114746L42.654947916666664,72.37858772277832L42.905859375,70.3009443283081L43.15677083333333,72.83786630630493L43.40768229166667,39.750119590759276L43.658593749999994,99.83535747528076L43.909505208333336,39.70033779144287L44.16041666666667,-131.38711166381836L44.411328125,68.12435131072998L44.66223958333334,29.077134132385254L44.913151041666666,-126.58874359130861L45.1640625,50.434737396240244L45.414973958333334,17.63490371704101L45.66588541666667,10.075537490844718L45.916796874999996,11.223489189147946L46.16770833333333,65.05568504333496L46.41861979166667,17.347579765319818L46.66953125,86.55914897918701L46.92044270833333,29.935704231262207L47.17135416666667,80.67080841064454L47.422265625,32.56509590148926L47.67317708333333,26.694726562500005L47.92408854166667,67.96094255447387L48.175000000000004,74.7452974319458L48.42591145833333,73.08967094421386L48.676822916666666,84.57298793792724L48.927734375,88.07020912170411L49.178645833333334,22.728411483764642L49.42955729166666,106.00879011154176L49.68046875,47.76419277191163L49.93138020833333,66.77606935501099L50.182291666666664,45.985107421875L50.433203125000006,40.848057174682616L50.68411458333333,66.44667148590088L50.93502604166667,70.41803112030028L51.1859375,64.29191608428955L51.436848958333336,10.231055831909183L51.68776041666666,54.02712478637695L51.938671875,56.77241678237916L52.18958333333334,76.18578357696533L52.440494791666666,70.906432056427L52.69140625,95.65996713638306L52.942317708333334,81.3931423187256L53.19322916666667,62.6914478302002L53.444140624999996,121.23917484283447L53.69505208333334,113.1121301651001L53.945963541666664,109.74318008422851L54.196875,65.79548406600952L54.44778645833334,97.88857383728028L54.69869791666667,111.80427103042602L54.949609375,130.458900976181L55.20052083333333,118.7861186027527L55.45143229166667,103.00729608535767L55.70234375,109.63716144561768L55.95325520833333,99.24096279144287L56.204166666666666,103.10049591064454L56.455078125,122.13107385635375L56.705989583333334,124.20514540672302L56.95690104166667,132.74908361434936L57.2078125,130.28159065246584L57.45872395833333,132.01926584243776L57.70963541666667,89.06721410751344L57.960546875,133.29577903747557L58.21145833333333,124.11972398757935L58.46236979166666,114.31451826095581L58.71328125,130.40877485275269L58.964192708333336,130.21416120529173L59.21510416666666,93.75539016723633L59.466015625000004,126.99122114181519L59.71692708333333,131.68043432235717L59.967838541666666,130.02004537582397L60.21875,134.9124014854431L60.469661458333334,112.4490117073059L60.72057291666666,150.03147411346436L60.971484375,130.25548839569092L61.22239583333334,127.49603762626647L61.473307291666664,136.03655333518984L61.72421875,123.4530876159668L61.97513020833333,126.01079349517822L62.22604166666667,124.83301420211792L62.476953124999994,128.27824659347536L62.727864583333336,128.37399773597716L62.97877604166667,124.40772414207458L63.2296875,121.54615430831909L63.48059895833334,113.28557825088501L63.731510416666666,-5.869788551330582L63.982421875,90.38406715393067L64.23333333333333,100.13758277893066L64.48424479166667,72.19187278747559L64.73515625,24.310609817504883L64.98606770833332,89.08009099960327L65.23697916666667,113.28374462127685L65.487890625,85.81244688034057L65.73880208333333,107.69661712646484L65.98971354166667,116.0865180015564L66.240625,123.06358237266541L66.49153645833333,102.41501712799072L66.74244791666668,118.77157402038574L66.993359375,135.17942276000977L67.24427083333333,131.44079718589782L67.49518229166667,134.8581268787384L67.74609375,122.4639771938324L67.99700520833333,124.5796082496643L68.24791666666667,128.18812494277952L68.498828125,137.37852544784548L68.74973958333334,138.1794731140137L69.00065104166666,142.97626061439516L69.2515625,127.85150871276856L69.50247395833334,91.54609050750732L69.75338541666666,124.4174108505249L70.00429687500001,116.60177621841432L70.25520833333333,105.5292420387268L70.50611979166666,116.73717441558837L70.75703125,134.04244794845582L71.00794270833333,125.7631290435791L71.25885416666667,125.50276193618775L71.509765625,117.10663833618163L71.76067708333333,131.58589038848876L72.01158854166667,132.80015144348144L72.2625,137.35846338272094L72.51341145833334,107.7024167060852L72.76432291666667,126.74645233154297L73.01523437499999,121.21548700332642L73.26614583333334,143.54039211273195L73.51705729166667,133.66659951210022L73.76796875,135.16656246185303L74.01888020833333,139.60172252655028L74.26979166666666,149.81062130928038L74.520703125,140.114981174469L74.77161458333333,130.92082629203796L75.02252604166667,144.71623821258547L75.2734375,132.07300114631653L75.52434895833333,132.11134972572327L75.77526041666667,134.92625741958616L76.026171875,146.51971664428712L76.27708333333334,142.21073684692382L76.52799479166666,143.0484276294708L76.77890625,133.3669753074646L77.02981770833334,135.22608489990236L77.28072916666666,135.54800720214845L77.53164062500001,137.23590059280397L77.78255208333334,144.24159779548646L78.03346354166666,144.91888332366943L78.284375,136.26211051940916L78.53528645833333,158.04742448329924L78.78619791666667,125.52562837600708L79.037109375,137.51646251678469L79.28802083333332,141.46320505142214L79.53893229166667,116.64572525024414L79.78984375,129.8638466835022L80.04075520833332,140.12306656837464L80.29166666666667,142.28604426383973L80.542578125,153.7500832557678L80.79348958333333,148.38240637779236L81.04440104166666,142.47342710494993L81.29531250000001,149.15656728744509L81.54622395833333,135.49411010742188L81.79713541666666,134.73315382003784L82.04804687500001,143.07313184738157L82.29895833333333,160.55508928298948L82.54986979166667,146.88925523757936L82.80078125,152.63928537368773L83.05169270833333,69.04371328353882L83.30260416666667,104.95707492828369L83.553515625,141.89331150054932L83.80442708333332,126.81505994796753L84.05533854166667,136.16351766586305L84.30625,117.6191336631775L84.55716145833333,118.34949903488159L84.80807291666667,116.01882305145263L85.058984375,136.80953607559204L85.30989583333333,127.08168711662292L85.56080729166668,142.55136880874633L85.81171875,133.64348001480104L86.06263020833333,129.38948006629946L86.31354166666667,143.90192828178405L86.564453125,146.6363263607025L86.81536458333333,142.91790804862976L87.06627604166667,149.92495765686036L87.31718749999999,153.36805772781372L87.56809895833334,138.56478424072267L87.81901041666667,145.9546766281128L88.06992187499999,155.2320044517517L88.32083333333334,138.7026466369629L88.57174479166667,144.50139656066895L88.82265625,149.38513627052308L89.07356770833333,142.2816759109497L89.32447916666668,120.86878166198731L89.575390625,157.98480727672577L89.82630208333333,149.37453274726866L90.07721354166668,139.37366795539856L90.328125,140.800057554245L90.57903645833333,142.48485202789308L90.82994791666667,143.76838445663452L91.080859375,155.99488978385924L91.33177083333334,135.63034629821777L91.58268229166666,136.20975251197817L91.83359374999999,146.17900171279908L92.08450520833334,144.61955366134643L92.33541666666666,131.4860405445099L92.586328125,138.80153403282165L92.83723958333334,133.73961696624755L93.08815104166666,143.55477905273438L93.3390625,150.4837749481201L93.58997395833333,142.2270154953003L93.84088541666667,127.97400512695312L94.091796875,142.0377824306488L94.34270833333333,128.60230951309202L94.59361979166667,137.47230191230776L94.84453125,142.58370208740234L95.09544270833334,154.29620618820192L95.34635416666666,146.02968535423278L95.597265625,150.30956354141236L95.84817708333334,130.64398555755614L96.09908854166666,136.29100055694582L96.35000000000001,143.52349948883057L96.60091145833334,143.92601022720336L96.85182291666666,146.53166427612305L97.102734375,155.37790246009828L97.35364583333333,138.41669583320618L97.60455729166667,147.87290625572203L97.85546875,145.88887338638304L98.10638020833332,143.56808738708494L98.35729166666667,154.11544847488403L98.608203125,147.43898735046386L98.85911458333332,148.2848838329315L99.11002604166667,136.5568768501282L99.3609375,144.8531174182892L99.61184895833333,143.07175040245056L99.86276041666666,148.0551574230194L100.11367187500001,152.45483136177063L100.36458333333333,155.5939513206482L100.61549479166666,154.57639474868776L100.86640625000001,148.7191014289856L101.11731770833333,148.1402428150177L101.36822916666667,149.47079415321352L101.619140625,149.06225566864012L101.87005208333333,152.65329065322877L102.12096354166667,148.27197790145874L102.371875,111.76323423385621L102.62278645833332,109.9231993675232L102.87369791666667,119.04941453933715L103.124609375,120.55779476165772L103.37552083333333,116.71569356918336L103.62643229166667,43.92910251617432L103.87734375,101.05839672088622L104.12825520833333,110.9817014694214L104.37916666666668,111.6764313697815L104.630078125,115.79068965911866L104.88098958333333,118.90968532562256L105.13190104166667,129.96459259986878L105.3828125,136.23286371231077L105.63372395833333,101.3520429611206L105.88463541666667,126.33874354362489L106.13554687499999,120.85626153945923L106.38645833333334,129.45263242721558L106.63736979166667,109.60062160491943L106.88828124999999,98.17233839035033L107.13919270833334,124.36874084472656L107.39010416666667,126.16443257331848L107.641015625,129.87066264152529L107.89192708333333,131.82062816619873L108.14283854166668,115.90694675445557L108.39375,139.06150703430174L108.64466145833333,129.59849724769592L108.89557291666668,141.1805025100708L109.146484375,152.44432740211485L109.39739583333333,153.08582396507265L109.64830729166667,139.5254692554474L109.89921875,141.78901863098145L110.15013020833334,141.5905800819397L110.40104166666666,146.8559055805206L110.65195312499999,150.47844829559327L110.90286458333334,141.8942615032196L111.15377604166666,126.45286417007446L111.4046875,149.87306842803955L111.65559895833334,141.99229016304017L111.90651041666666,139.74429759979247L112.157421875,155.0038046836853L112.40833333333333,147.8316786289215L112.65924479166667,143.0405164718628L112.91015625,141.75783448219298L113.16106770833333,138.36694722175596L113.41197916666667,139.1594900608063L113.662890625,134.60501132011413L113.91380208333334,144.94343404769896L114.16471354166666,143.9085036277771L114.415625,156.02255601882936L114.66653645833334,147.62941932678223L114.91744791666666,146.47289686203L115.16835937500001,145.39483466148377L115.41927083333334,155.1830108642578L115.67018229166666,144.55507793426514L115.92109375,145.23930802345276L116.17200520833333,155.13048691749574L116.42291666666667,153.95480675697328L116.673828125,153.51120114326477L116.92473958333332,160.8001235961914L117.17565104166667,159.18094568252562L117.4265625,153.60550446510317L117.67747395833332,146.00081605911257L117.92838541666667,156.40229988098145L118.179296875,139.54463109970092L118.43020833333333,148.20665588378907L118.68111979166666,132.15653085708618L118.93203125000001,143.25767297744753L119.18294270833333,154.60123586654663L119.43385416666666,160.15803794860838L119.68476562500001,142.90072088241575L119.93567708333333,144.37135820388792L120.18658854166667,133.98933906555177L120.4375,143.59496541023256L120.68841145833333,158.16672034263613L120.93932291666667,155.37740879058836L121.190234375,128.8518158912659L121.44114583333332,130.07732763290406L121.69205729166667,105.8003620147705L121.94296875,115.51239280700683L122.19388020833333,126.401655292511L122.44479166666667,137.06100053787233L122.695703125,156.91635711193086L122.94661458333333,141.22195830345154L123.19752604166668,150.53065695762635L123.4484375,134.98736872673035L123.69934895833333,147.97112574577332L123.95026041666667,158.738418674469L124.201171875,143.44531717300416L124.45208333333333,131.55213003158568L124.70299479166667,143.06695890426636L124.95390624999999,143.6730896472931L125.20481770833334,135.96518697738648L125.45572916666667,139.28643779754637L125.70664062499999,127.02581119537354L125.95755208333334,125.6690041065216L126.20846354166667,147.5887683391571L126.459375,148.8956069469452L126.71028645833333,144.68738551139833L126.96119791666668,148.3239459514618L127.212109375,130.67205834388733L127.46302083333333,148.2425651550293L127.71393229166668,136.7706606388092L127.96484375,146.30442695617674L128.21575520833335,133.25236930847169L128.46666666666667,136.1197262763977L128.717578125,135.76790170669554L128.96848958333334,144.34925093650818L129.21940104166666,140.292693901062L129.4703125,148.01479268074036L129.72122395833333,152.38707833290098L129.97213541666665,141.36847858428953L130.223046875,153.39208574295046L130.47395833333334,146.23577785491943L130.72486979166666,138.8440559864044L130.97578125,123.35159912109374L131.22669270833333,133.16913828849792L131.47760416666665,145.1358904838562L131.728515625,146.55555539131163L131.97942708333335,147.517796087265L132.23033854166667,143.69991374015808L132.48125,123.86352195739745L132.73216145833334,153.1658730983734L132.98307291666666,150.75352592468263L133.233984375,161.0025467634201L133.48489583333335,158.91148717403414L133.73580729166667,148.79225993156433L133.98671875,144.07507352828978L134.23763020833334,141.80755405426024L134.48854166666666,145.82892780303953L134.739453125,141.5102903366089L134.99036458333333,151.06908860206605L135.24127604166665,158.6180670261383L135.4921875,157.82069535255434L135.74309895833332,149.33951539993288L135.99401041666667,148.8262484550476L136.24492187500002,159.39718537330626L136.49583333333334,149.7682777404785L136.74674479166666,154.84830293655395L136.99765625,143.7775857925415L137.24856770833333,135.04789094924925L137.49947916666667,156.35641765594482L137.750390625,148.1662952899933L138.00130208333331,156.971982049942L138.25221354166666,140.53521423339842L138.503125,134.53197727203369L138.75403645833333,153.48247289657593L139.00494791666668,162.780592918396L139.255859375,155.05636596679688L139.50677083333332,147.59121179580688L139.75768229166667,155.27597422599794L140.00859375000002,156.18885211944578L140.25950520833334,146.11672468185427L140.51041666666666,137.97564153671263L140.761328125,131.3610011100769L141.01223958333333,109.2533603668213L141.26315104166667,134.88502149581907L141.5140625,152.51542825698854L141.76497395833334,152.4740595817566L142.01588541666666,146.08558201789856L142.26679687499998,142.177565574646L142.51770833333333,123.39122543334962L142.76861979166668,144.62959713935854L143.01953125,142.52345781326292L143.27044270833332,143.2110025405884L143.52135416666667,153.84235382080078L143.772265625,131.45014786720276L144.02317708333334,131.6537512779236L144.27408854166669,145.32120323181152L144.525,136.28178677558898L144.77591145833333,141.8126732826233L145.02682291666667,159.78342576026918L145.277734375,153.70709252357483L145.52864583333334,155.32395973205567L145.77955729166666,148.2336832523346L146.03046874999998,153.82475595474241L146.28138020833333,150.28658094406128L146.53229166666668,149.39137144088747L146.783203125,145.03814392089842L147.03411458333335,147.29184064865112L147.28502604166667,150.61207094192505L147.5359375,157.12553815841673L147.78684895833334,151.12162914276124L148.03776041666666,149.76743144989015L148.288671875,147.88020758628844L148.53958333333333,156.81357636451722L148.79049479166665,164.80255122184755L149.04140625,153.09459800720217L149.29231770833334,161.37354769706727L149.54322916666666,153.82020506858825L149.794140625,162.3991979598999L150.04505208333333,168.53172240257263L150.29596354166665,156.4022749900818L150.546875,156.86980075836183L150.79778645833335,155.13852252960206L151.04869791666667,157.8423753261566L151.299609375,162.68134875297548L151.55052083333334,160.20498633384705L151.80143229166666,153.4585361480713L152.05234375,155.82551136016846L152.30325520833335,165.92025218009948L152.55416666666667,162.235432434082L152.805078125,163.9376961708069L153.05598958333331,149.77868628501892L153.30690104166666,155.86425819396973L153.5578125,162.60858228206635L153.80872395833333,151.93981790542603L154.05963541666668,155.1483627319336L154.310546875,161.4114731311798L154.56145833333332,153.96503691673277L154.81236979166667,154.6242060184479L155.06328125000002,142.38594388961792L155.31419270833334,163.9968535423279L155.56510416666669,165.1143844127655L155.81601562499998,158.88820381164552L156.06692708333333,150.62342534065246L156.31783854166667,163.98426496982574L156.56875,152.2235243797302L156.81966145833334,163.11808032989504L157.07057291666666,158.9442373752594L157.32148437499998,158.9430965423584L157.57239583333333,156.74714670181274L157.82330729166668,167.2906393289566L158.07421875,165.13661613464356L158.32513020833335,146.45321645736695L158.57604166666664,150.31245918273927L158.826953125,157.97056760787964L159.07786458333334,161.40183413028717L159.32877604166666,158.19623057842253L159.5796875,158.20913858413698L159.83059895833335,159.41719143390654L160.08151041666665,162.9745801448822L160.332421875,101.27676458358765L160.58333333333334,102.18750600814819L160.83424479166666,141.45721464157103L161.08515625,154.7142322540283L161.33606770833336,158.91388499736786L161.58697916666665,148.51178512573242L161.837890625,140.3781692504883L162.08880208333332,143.6092652320862L162.33971354166667,143.79838213920593L162.59062500000002,140.41964993476867L162.84153645833334,147.9467824459076L163.09244791666666,147.6340407371521L163.343359375,156.05411353111268L163.59427083333333,153.50340614318847L163.84518229166667,159.59965624809266L164.09609375000002,157.2231540441513L164.34700520833331,154.01214294433592L164.59791666666666,140.03375387191772L164.84882812499998,159.26116905212402L165.09973958333333,155.41694798469544L165.35065104166668,155.28849020004273L165.6015625,152.71149802207947L165.85247395833332,144.17250480651856L166.10338541666667,164.44831845760345L166.354296875,159.51398799419403L166.60520833333334,154.42967948913574L166.85611979166669,155.20176200866698L167.10703125,151.9482642173767L167.35794270833333,154.3900822162628L167.60885416666665,157.76191964149476L167.859765625,158.13406348228455L168.11067708333334,150.60038051605224L168.36158854166666,143.16178493499754L168.6125,149.04552068710328L168.86341145833333,150.86495003700256L169.11432291666665,159.7780285835266L169.365234375,164.75285654067991L169.61614583333335,157.85141487121584L169.86705729166667,156.15464787483214L170.11796875,162.48088989257812L170.36888020833334,163.17501618862153L170.61979166666666,162.64326775074005L170.870703125,158.15043339729309L171.12161458333335,155.9063030719757L171.37252604166667,163.88201937675476L171.6234375,164.57253649234772L171.87434895833331,158.6719869375229L172.12526041666666,152.44739727973936L172.376171875,161.02200937271118L172.62708333333333,161.8524237155914L172.87799479166668,159.9648721218109L173.12890625,160.37844686508177L173.37981770833332,158.8755737543106L173.63072916666667,155.6854751586914L173.88164062500002,148.11801524162294L174.13255208333334,155.02134447097777L174.38346354166669,159.52584643363954L174.63437499999998,153.43512210845947L174.88528645833333,157.85419642925262L175.13619791666667,158.00065655708315L175.387109375,162.07495665550232L175.63802083333334,164.55767040252684L175.88893229166666,150.36561369895935L176.13984374999998,157.80292739868165L176.39075520833333,144.17922120094298L176.64166666666668,153.12980203628538L176.892578125,165.38563299179077L177.14348958333335,162.42400588989258L177.39440104166664,158.92806243896484L177.6453125,162.2412486076355L177.89622395833334,159.11929507255556L178.14713541666666,153.38943071365358L178.398046875,140.8927222251892L178.64895833333335,158.25433423519135L178.89986979166665,155.92093062400818L179.15078125,153.63864254951477L179.40169270833334,160.16648840904236L179.65260416666666,121.24388751983643L179.903515625,126.25044722557068L180.15442708333336,135.63369827270506L180.40533854166665,136.5508325099945L180.65625,142.03715186119078L180.90716145833332,136.70858688354494L181.15807291666667,131.39136385917664L181.40898437500002,141.4966999053955L181.65989583333334,135.9799431324005L181.91080729166666,142.59517679214477L182.16171875,146.948632478714L182.41263020833333,151.07291765213014L182.66354166666667,152.7790892601013L182.91445312500002,156.23037843704222L183.16536458333331,153.41486921310425L183.41627604166666,147.4930088996887L183.66718749999998,145.9847116470337L183.91809895833333,156.4178981781006L184.16901041666668,162.6363729715347L184.419921875,154.77998571395872L184.67083333333332,147.13736772537231L184.92174479166667,148.46318979263307L185.17265625,148.14919939041138L185.42356770833334,164.00393085479735L185.67447916666669,151.64526314735414L185.925390625,161.95124058723448L186.17630208333333,161.92344574928282L186.42721354166665,156.5411993980408L186.678125,168.61123638153074L186.92903645833334,161.68603842258452L187.17994791666666,162.07617008686066L187.430859375,160.56017117500303L187.68177083333333,160.7636833190918L187.93268229166665,153.21990709304808L188.18359375,154.93490252494811L188.43450520833335,155.43813428878784L188.68541666666667,152.31715564727781L188.936328125,164.8236711502075L189.18723958333334,160.47773666381838L189.43815104166666,157.80798439979552L189.6890625,147.91224632263183L189.93997395833335,164.43557846546173L190.19088541666667,147.32141933441162L190.441796875,159.52027087211607L190.69270833333331,164.01955404281617L190.94361979166666,164.37477207183838L191.19453125,159.77987051010132L191.44544270833333,152.2541069984436L191.69635416666668,149.22514171600344L191.947265625,158.1373096704483L192.19817708333332,153.59185180664062L192.44908854166667,153.03756051063536L192.70000000000002,153.06124835014342L192.95091145833334,152.70344166755675L193.20182291666669,162.18329844474792L193.45273437499998,158.1453058719635L193.70364583333333,155.20498123168946L193.95455729166667,152.6675738811493L194.20546875,155.87004117965697L194.45638020833334,160.9123317718506L194.70729166666666,163.75356574058534L194.95820312499998,147.41573095321655L195.20911458333333,161.28950150012972L195.46002604166668,158.30691418647766L195.7109375,152.7354015827179L195.96184895833335,162.21142101287842L196.21276041666664,162.83361053466797L196.463671875,156.04203729629515L196.71458333333334,158.94405069351197L196.96549479166666,158.73285140991212L197.21640625,163.30364198684694L197.46731770833335,157.06911878585814L197.71822916666665,160.23330595493317L197.969140625,163.65274515151978L198.22005208333334,156.26793880462648L198.47096354166666,154.2131369590759L198.721875,151.16410546302794L198.97278645833336,142.1226769924164L199.22369791666665,144.716951751709L199.474609375,159.17173604965208L199.72552083333332,156.17104268074036L199.97643229166667,154.3578941345215L200.22734375000002,155.43752031326292L200.47825520833334,149.88182587623598L200.72916666666666,145.24478816986084L200.980078125,143.44462022781372L201.23098958333333,144.29083614349364L201.48190104166667,154.0427463054657L201.73281250000002,147.55753440856935L201.98372395833331,164.34304862022398L202.23463541666666,151.34873785972596L202.48554687499998,149.86019153594972L202.73645833333333,148.5786171913147L202.98736979166668,158.8310169696808L203.23828125,143.3935399532318L203.48919270833332,157.64615621566773L203.74010416666667,157.2005717754364L203.991015625,159.327584195137L204.24192708333334,161.28539242744446L204.49283854166669,159.57011282444L204.74375,157.77244641780854L204.99466145833333,161.20100812911986L205.24557291666665,153.79956221580505L205.496484375,160.679191160202L205.74739583333334,162.0071621417999L205.99830729166666,160.4246277809143L206.24921875,165.30533702373506L206.50013020833333,143.61453795433044L206.75104166666665,152.6279019355774L207.001953125,158.66306562423708L207.25286458333335,158.95733413696288L207.50377604166667,159.77633600234984L207.7546875,145.27387733459474L208.00559895833334,159.33391685485842L208.25651041666666,156.75727729797362L208.507421875,157.34375667572021L208.75833333333335,163.18915214538575L209.00924479166667,154.45460772514343L209.26015625,165.5538456916809L209.51106770833331,167.61998949050903L209.76197916666666,158.03695578575136L210.012890625,158.21874232292177L210.26380208333333,151.03264417648316L210.51471354166668,151.90219116210938L210.765625,160.75983352661135L211.01653645833332,166.31391627788545L211.26744791666667,166.32583279609682L211.51835937500002,161.16750497817995L211.76927083333334,158.1845650434494L212.02018229166669,156.9738986492157L212.27109374999998,154.09061980247498L212.52200520833333,161.12028279304505L212.77291666666667,157.00593945980071L213.023828125,159.35265140533446L213.27473958333334,165.60607509613035L213.52565104166666,157.79640390872956L213.77656249999998,161.81653933525084L214.02747395833333,160.31891198158266L214.27838541666668,162.19294781684877L214.529296875,159.62494955062866L214.78020833333335,161.65374455451965L215.03111979166664,165.04169261455536L215.28203125,159.8420521259308L215.53294270833334,163.11442136764526L215.78385416666666,158.70700635910035L216.034765625,156.67337007522585L216.28567708333335,168.10613365173342L216.53658854166665,163.2275671005249L216.7875,160.48098492622375L217.03841145833334,160.64579586982725L217.28932291666666,156.59447007179259L217.540234375,164.4883782863617L217.79114583333336,161.87250652313233L218.04205729166665,162.10854485034943L218.29296875,150.9457915306091L218.54388020833332,155.69872956275938L218.79479166666667,148.37248735427855L219.04570312500002,159.5909236907959L219.29661458333334,159.05991990566255L219.54752604166666,164.25995242595673L219.7984375,141.9543273925781L220.04934895833333,153.37205271720885L220.30026041666667,159.25068168640135L220.55117187500002,144.92437591552735L220.80208333333331,159.48738584518432L221.05299479166666,147.97803297042847L221.30390624999998,164.2509481430054L221.55481770833333,155.500071144104L221.80572916666668,157.20759515762327L222.056640625,153.8708746433258L222.30755208333332,157.81597023010252L222.55846354166667,144.62274799346923L222.809375,161.5446830034256L223.06028645833334,159.9417401790619L223.31119791666669,150.56806383132934L223.562109375,155.1573649406433L223.81302083333333,156.15396337509154L224.06393229166665,156.65398836135864L224.31484375,159.4027007818222L224.56575520833334,162.6983803510666L224.81666666666666,151.0179419517517L225.067578125,157.58743858337402L225.31848958333333,156.76006715297697L225.56940104166665,152.19571709632874L225.8203125,164.22725615501403L226.07122395833335,162.69734945297242L226.32213541666667,154.41821308135988L226.573046875,160.99530143737795L226.82395833333334,143.35655622482298L227.07486979166666,150.3275679588318L227.32578125,155.024800157547L227.57669270833335,165.33533263206482L227.82760416666667,162.47391629219055L228.078515625,160.22402787208557L228.32942708333331,161.45043568611143L228.58033854166666,158.5396026134491L228.83125,157.0936695098877L229.08216145833333,151.4621947288513L229.33307291666668,159.9610140323639L229.583984375,158.55167262554167L229.83489583333332,162.29006381034853L230.08580729166667,157.44661209583282L230.33671875000002,168.7514613389969L230.58763020833334,160.15062460899352L230.83854166666669,162.62394411563875L231.08945312499998,154.6252929210663L231.34036458333333,158.29029536247253L231.59127604166667,158.33087167739868L231.8421875,161.68918297290801L232.09309895833334,163.1854019165039L232.34401041666666,161.0953255176544L232.59492187499998,159.9426258802414L232.84583333333333,161.47168629169462L233.09674479166668,161.88976213932037L233.34765625,168.29002346992493L233.59856770833335,166.56147494316102L233.84947916666664,164.5375523328781L234.100390625,165.08653149604797L234.35130208333334,161.57469520568847L234.60221354166666,161.2823806285858L234.853125,163.2364821910858L235.10403645833335,164.5835735321045L235.35494791666665,169.13185029029844L235.605859375,155.337624835968L235.85677083333334,156.5785108566284L236.10768229166666,166.1207089662552L236.35859375,162.48103094100952L236.60950520833336,165.26838440895082L236.86041666666665,168.36401996612548L237.111328125,164.47815434932707L237.36223958333332,170.43300132751463L237.61315104166667,124.3662932395935L237.86406250000002,142.60032091140747L238.11497395833334,144.63210697174074L238.36588541666666,149.61763801574708L238.616796875,160.76012184619904L238.86770833333333,163.10451686382294L239.11861979166667,155.2278767108917L239.36953125000002,150.0210572719574L239.62044270833331,154.9615357875824L239.87135416666666,152.68591017723085L240.12226562499998,150.87995924949647L240.37317708333333,162.80918841361998L240.62408854166668,161.96446595191955L240.875,144.44313526153564L241.12591145833332,159.63542654514313L241.37682291666667,164.67368688583375L241.627734375,156.41303200721742L241.87864583333334,159.43026745319366L242.12955729166669,161.3175639152527L242.38046875,159.96794199943542L242.63138020833333,158.22873601913452L242.88229166666665,155.95600605010986L243.133203125,147.4813267707825L243.38411458333334,158.1256897687912L243.63502604166666,165.58963050842286L243.8859375,162.30087268352509L244.13684895833333,164.50650300979615L244.38776041666665,151.87983083724976L244.638671875,164.03953728675842L244.88958333333335,167.741921710968L245.14049479166667,143.49765858650207L245.39140625,158.38152050971985L245.64231770833334,156.22367448806764L245.89322916666666,158.49026262760162L246.144140625,152.43705096244813L246.39505208333335,149.16052494049072L246.64596354166667,159.90838429927825L246.896875,158.77132029533388L247.14778645833331,152.29768681526184L247.39869791666666,166.06790499687193L247.649609375,160.11964995861055L247.90052083333333,163.98064541816711L248.15143229166668,166.92504179477692L248.40234375,164.24989857673646L248.65325520833332,165.48655936717986L248.90416666666667,168.77530474662782L249.15507812500002,158.24661598205566L249.40598958333334,150.84458928108214L249.65690104166669,168.58083837032316L249.90781249999998,170.2613661289215L250.15872395833333,167.68992047309874L250.40963541666667,154.7294945240021L250.660546875,155.6941288948059L250.91145833333334,159.5754374027252L251.16236979166666,152.52399902343748L251.41328124999998,164.36196985244752L251.66419270833333,155.08837151527405L251.91510416666668,165.43344011306763L252.166015625,167.76936807632447L252.41692708333335,161.57468690872193L252.66783854166664,159.73983764648438L252.91875,168.81991338729858L253.16966145833334,168.8498301744461L253.42057291666666,162.08313124179838L253.671484375,170.885258603096L253.92239583333335,166.51767940521242L254.17330729166665,164.1541515827179L254.42421875,166.11052858829498L254.67513020833334,170.72815968990326L254.92604166666666,167.66959705352784L255.176953125,164.46968729496004L255.42786458333336,160.04352321624756L255.67877604166665,161.64287760257722L255.9296875,163.4396977186203L256.18059895833335,164.25061004161833L256.4315104166667,157.7819734096527L256.682421875,169.3373018503189L256.93333333333334,144.88430986404418L257.18424479166663,149.88412828445436L257.43515625,164.65649349689485L257.6860677083333,150.0494577884674L257.9369791666667,157.6310744047165L258.187890625,151.96119503974913L258.4388020833333,142.14354386329651L258.68971354166666,143.9831763267517L258.940625,155.91665353775025L259.19153645833336,152.757799243927L259.44244791666665,157.4828387260437L259.693359375,165.77789282798767L259.9442708333333,153.97403082847595L260.19518229166664,148.1841047286987L260.44609375,158.8956358194351L260.69700520833334,153.79591155052185L260.9479166666667,163.06287853717802L261.19882812500003,161.21291635036468L261.4497395833333,155.74237990379333L261.7006510416667,161.0794513463974L261.9515625,163.3181181192398L262.2024739583333,161.58353147506713L262.45338541666666,164.6197317123413L262.704296875,164.27414231300352L262.9552083333333,164.35953884124754L263.20611979166665,157.21020870208739L263.45703125,157.65708332061766L263.70794270833335,158.50621769428253L263.9588541666667,156.90396351814272L264.209765625,157.78278443813323L264.46067708333334,160.20888175964356L264.7115885416667,167.108722114563L264.9625,168.0343690395355L265.2134114583333,152.062019777298L265.4643229166667,157.92085633277892L265.71523437499997,163.02785704135894L265.9661458333333,166.35185623168945L266.21705729166666,158.87397451400759L266.46796875,160.24478688240052L266.71888020833336,158.82413463592528L266.9697916666667,166.4361140012741L267.220703125,168.2725396871567L267.47161458333335,173.64791822433472L267.72252604166664,161.87055258750914L267.9734375,164.78321928977968L268.22434895833334,163.919895029068L268.4752604166667,164.19812965393066L268.726171875,158.61753187179565L268.9770833333333,163.44370307922364L269.2279947916667,159.94917218685148L269.47890625,157.67588424682617L269.72981770833337,167.1108253955841L269.98072916666666,167.04216799736022L270.231640625,158.8092498779297L270.4825520833333,172.89378204345704L270.73346354166665,165.19522383213044L270.984375,159.8445018053055L271.23528645833335,162.8517186641693L271.48619791666664,167.4383419275284L271.737109375,164.30467100143434L271.98802083333334,172.96769971847536L272.2389322916667,166.35041670799254" style="fill: none;" fill="none"></path></g></g></g></g></g></g><g transform="translate(28, 174)" clip-path="url(#clip_1)"><clipPath id="clip_1"><rect width="301" height="26"></rect></clipPath><g><g><line x1="0" y1="0" x2="0" y2="5" style="visibility: inherit;" fill="rgb(0, 0, 0)" stroke="rgb(204, 204, 204)" stroke-width="1px"></line><line x1="25.091145833333332" y1="0" x2="25.091145833333332" y2="5" style="visibility: inherit;" fill="rgb(0, 0, 0)" stroke="rgb(204, 204, 204)" stroke-width="1px"></line><line x1="50.182291666666664" y1="0" x2="50.182291666666664" y2="5" style="visibility: inherit;" fill="rgb(0, 0, 0)" stroke="rgb(204, 204, 204)" stroke-width="1px"></line><line x1="75.2734375" y1="0" x2="75.2734375" y2="5" style="visibility: inherit;" fill="rgb(0, 0, 0)" stroke="rgb(204, 204, 204)" stroke-width="1px"></line><line x1="100.36458333333333" y1="0" x2="100.36458333333333" y2="5" style="visibility: inherit;" fill="rgb(0, 0, 0)" stroke="rgb(204, 204, 204)" stroke-width="1px"></line><line x1="125.45572916666667" y1="0" x2="125.45572916666667" y2="5" style="visibility: inherit;" fill="rgb(0, 0, 0)" stroke="rgb(204, 204, 204)" stroke-width="1px"></line><line x1="150.546875" y1="0" x2="150.546875" y2="5" style="visibility: inherit;" fill="rgb(0, 0, 0)" stroke="rgb(204, 204, 204)" stroke-width="1px"></line><line x1="175.63802083333334" y1="0" x2="175.63802083333334" y2="5" style="visibility: inherit;" fill="rgb(0, 0, 0)" stroke="rgb(204, 204, 204)" stroke-width="1px"></line><line x1="200.72916666666666" y1="0" x2="200.72916666666666" y2="5" style="visibility: inherit;" fill="rgb(0, 0, 0)" stroke="rgb(204, 204, 204)" stroke-width="1px"></line><line x1="225.8203125" y1="0" x2="225.8203125" y2="5" style="visibility: inherit;" fill="rgb(0, 0, 0)" stroke="rgb(204, 204, 204)" stroke-width="1px"></line><line x1="250.91145833333334" y1="0" x2="250.91145833333334" y2="5" style="visibility: inherit;" fill="rgb(0, 0, 0)" stroke="rgb(204, 204, 204)" stroke-width="1px"></line><line x1="276.00260416666663" y1="0" x2="276.00260416666663" y2="5" style="visibility: inherit;" fill="rgb(0, 0, 0)" stroke="rgb(204, 204, 204)" stroke-width="1px"></line><line x1="301.09375" y1="0" x2="301.09375" y2="5" style="visibility: inherit;" fill="rgb(0, 0, 0)" stroke="rgb(204, 204, 204)" stroke-width="1px"></line></g><g transform="translate(0, 8)"><text x="0" y="0" dx="0em" dy="0.95em" style="text-anchor: middle; visibility: hidden; font-family: Roboto, sans-serif; font-size: 12px; font-weight: 200;" fill="rgb(33, 33, 33)" stroke="none" stroke-width="1px">-100</text><text x="25.091145833333332" y="0" dx="0em" dy="0.95em" style="text-anchor: middle; visibility: inherit; font-family: Roboto, sans-serif; font-size: 12px; font-weight: 200;" fill="rgb(33, 33, 33)" stroke="none" stroke-width="1px">0</text><text x="50.182291666666664" y="0" dx="0em" dy="0.95em" style="text-anchor: middle; visibility: inherit; font-family: Roboto, sans-serif; font-size: 12px; font-weight: 200;" fill="rgb(33, 33, 33)" stroke="none" stroke-width="1px">100</text><text x="75.2734375" y="0" dx="0em" dy="0.95em" style="text-anchor: middle; visibility: inherit; font-family: Roboto, sans-serif; font-size: 12px; font-weight: 200;" fill="rgb(33, 33, 33)" stroke="none" stroke-width="1px">200</text><text x="100.36458333333333" y="0" dx="0em" dy="0.95em" style="text-anchor: middle; visibility: inherit; font-family: Roboto, sans-serif; font-size: 12px; font-weight: 200;" fill="rgb(33, 33, 33)" stroke="none" stroke-width="1px">300</text><text x="125.45572916666667" y="0" dx="0em" dy="0.95em" style="text-anchor: middle; visibility: inherit; font-family: Roboto, sans-serif; font-size: 12px; font-weight: 200;" fill="rgb(33, 33, 33)" stroke="none" stroke-width="1px">400</text><text x="150.546875" y="0" dx="0em" dy="0.95em" style="text-anchor: middle; visibility: inherit; font-family: Roboto, sans-serif; font-size: 12px; font-weight: 200;" fill="rgb(33, 33, 33)" stroke="none" stroke-width="1px">500</text><text x="175.63802083333334" y="0" dx="0em" dy="0.95em" style="text-anchor: middle; visibility: inherit; font-family: Roboto, sans-serif; font-size: 12px; font-weight: 200;" fill="rgb(33, 33, 33)" stroke="none" stroke-width="1px">600</text><text x="200.72916666666666" y="0" dx="0em" dy="0.95em" style="text-anchor: middle; visibility: inherit; font-family: Roboto, sans-serif; font-size: 12px; font-weight: 200;" fill="rgb(33, 33, 33)" stroke="none" stroke-width="1px">700</text><text x="225.8203125" y="0" dx="0em" dy="0.95em" style="text-anchor: middle; visibility: inherit; font-family: Roboto, sans-serif; font-size: 12px; font-weight: 200;" fill="rgb(33, 33, 33)" stroke="none" stroke-width="1px">800</text><text x="250.91145833333334" y="0" dx="0em" dy="0.95em" style="text-anchor: middle; visibility: inherit; font-family: Roboto, sans-serif; font-size: 12px; font-weight: 200;" fill="rgb(33, 33, 33)" stroke="none" stroke-width="1px">900</text><text x="276.00260416666663" y="0" dx="0em" dy="0.95em" style="text-anchor: middle; visibility: inherit; font-family: Roboto, sans-serif; font-size: 12px; font-weight: 200;" fill="rgb(33, 33, 33)" stroke="none" stroke-width="1px">1k</text><text x="301.09375" y="0" dx="0em" dy="0.95em" style="text-anchor: middle; visibility: hidden; font-family: Roboto, sans-serif; font-size: 12px; font-weight: 200;" fill="rgb(33, 33, 33)" stroke="none" stroke-width="1px">1.1k</text></g><line x1="0" y1="0" x2="301.09375" y2="0" fill="rgb(0, 0, 0)" stroke="rgb(204, 204, 204)" stroke-width="1px"></line></g></g></g></g></svg>